<svg width="982" height="595" viewBox="0 0 982 595" fill="none" xmlns="http://www.w3.org/2000/svg">
<g clip-path="url(#clip0_26_3)">
<rect x="54" y="23" width="339" height="182" rx="32" fill="white"/>
<path d="M105.5 63H100.114V45.5455H105.739C107.432 45.5455 108.881 45.8949 110.085 46.5938C111.29 47.2869 112.213 48.2841 112.855 49.5852C113.497 50.8807 113.818 52.4318 113.818 54.2386C113.818 56.0568 113.494 57.6222 112.847 58.9347C112.199 60.2415 111.256 61.2472 110.017 61.9517C108.778 62.6506 107.273 63 105.5 63ZM102.227 61.125H105.364C106.807 61.125 108.003 60.8466 108.952 60.2898C109.901 59.733 110.608 58.9403 111.074 57.9119C111.54 56.8835 111.773 55.6591 111.773 54.2386C111.773 52.8295 111.543 51.6165 111.082 50.5994C110.622 49.5767 109.935 48.7926 109.02 48.2472C108.105 47.696 106.966 47.4205 105.602 47.4205H102.227V61.125ZM122.409 63.2727C121.227 63.2727 120.19 62.9915 119.298 62.429C118.412 61.8665 117.719 61.0795 117.219 60.0682C116.724 59.0568 116.477 57.875 116.477 56.5227C116.477 55.1591 116.724 53.9687 117.219 52.9517C117.719 51.9347 118.412 51.1449 119.298 50.5824C120.19 50.0199 121.227 49.7386 122.409 49.7386C123.591 49.7386 124.625 50.0199 125.511 50.5824C126.403 51.1449 127.097 51.9347 127.591 52.9517C128.091 53.9687 128.341 55.1591 128.341 56.5227C128.341 57.875 128.091 59.0568 127.591 60.0682C127.097 61.0795 126.403 61.8665 125.511 62.429C124.625 62.9915 123.591 63.2727 122.409 63.2727ZM122.409 61.4659C123.307 61.4659 124.045 61.2358 124.625 60.7756C125.205 60.3153 125.634 59.7102 125.912 58.9602C126.19 58.2102 126.33 57.3977 126.33 56.5227C126.33 55.6477 126.19 54.8324 125.912 54.0767C125.634 53.321 125.205 52.7102 124.625 52.2443C124.045 51.7784 123.307 51.5455 122.409 51.5455C121.511 51.5455 120.773 51.7784 120.193 52.2443C119.614 52.7102 119.185 53.321 118.906 54.0767C118.628 54.8324 118.489 55.6477 118.489 56.5227C118.489 57.3977 118.628 58.2102 118.906 58.9602C119.185 59.7102 119.614 60.3153 120.193 60.7756C120.773 61.2358 121.511 61.4659 122.409 61.4659ZM133.932 63L129.943 49.9091H132.057L134.886 59.9318H135.023L137.818 49.9091H139.966L142.727 59.8977H142.864L145.693 49.9091H147.807L143.818 63H141.841L138.977 52.9432H138.773L135.909 63H133.932ZM152.477 55.125V63H150.466V49.9091H152.409V51.9545H152.58C152.886 51.2898 153.352 50.7557 153.977 50.3523C154.602 49.9432 155.409 49.7386 156.398 49.7386C157.284 49.7386 158.06 49.9205 158.724 50.2841C159.389 50.642 159.906 51.1875 160.276 51.9205C160.645 52.6477 160.83 53.5682 160.83 54.6818V63H158.818V54.8182C158.818 53.7898 158.551 52.9886 158.017 52.4148C157.483 51.8352 156.75 51.5455 155.818 51.5455C155.176 51.5455 154.602 51.6847 154.097 51.9631C153.597 52.2415 153.202 52.6477 152.912 53.1818C152.622 53.7159 152.477 54.3636 152.477 55.125ZM166.516 45.5455V63H164.505V45.5455H166.516ZM175.518 63.2727C174.337 63.2727 173.3 62.9915 172.408 62.429C171.521 61.8665 170.828 61.0795 170.328 60.0682C169.834 59.0568 169.587 57.875 169.587 56.5227C169.587 55.1591 169.834 53.9687 170.328 52.9517C170.828 51.9347 171.521 51.1449 172.408 50.5824C173.3 50.0199 174.337 49.7386 175.518 49.7386C176.7 49.7386 177.734 50.0199 178.621 50.5824C179.513 51.1449 180.206 51.9347 180.7 52.9517C181.2 53.9687 181.45 55.1591 181.45 56.5227C181.45 57.875 181.2 59.0568 180.7 60.0682C180.206 61.0795 179.513 61.8665 178.621 62.429C177.734 62.9915 176.7 63.2727 175.518 63.2727ZM175.518 61.4659C176.416 61.4659 177.155 61.2358 177.734 60.7756C178.314 60.3153 178.743 59.7102 179.021 58.9602C179.3 58.2102 179.439 57.3977 179.439 56.5227C179.439 55.6477 179.3 54.8324 179.021 54.0767C178.743 53.321 178.314 52.7102 177.734 52.2443C177.155 51.7784 176.416 51.5455 175.518 51.5455C174.621 51.5455 173.882 51.7784 173.303 52.2443C172.723 52.7102 172.294 53.321 172.016 54.0767C171.737 54.8324 171.598 55.6477 171.598 56.5227C171.598 57.3977 171.737 58.2102 172.016 58.9602C172.294 59.7102 172.723 60.3153 173.303 60.7756C173.882 61.2358 174.621 61.4659 175.518 61.4659ZM188.373 63.3068C187.543 63.3068 186.79 63.1506 186.114 62.8381C185.438 62.5199 184.901 62.0625 184.504 61.4659C184.106 60.8636 183.907 60.1364 183.907 59.2841C183.907 58.5341 184.055 57.9261 184.35 57.4602C184.646 56.9886 185.04 56.6193 185.535 56.3523C186.029 56.0852 186.575 55.8864 187.171 55.7557C187.773 55.6193 188.379 55.5114 188.987 55.4318C189.782 55.3295 190.427 55.2528 190.921 55.2017C191.421 55.1449 191.785 55.0511 192.012 54.9205C192.245 54.7898 192.362 54.5625 192.362 54.2386V54.1705C192.362 53.3295 192.131 52.6761 191.671 52.2102C191.217 51.7443 190.526 51.5114 189.6 51.5114C188.64 51.5114 187.887 51.7216 187.342 52.142C186.796 52.5625 186.413 53.0114 186.191 53.4886L184.282 52.8068C184.623 52.0114 185.077 51.392 185.646 50.9489C186.219 50.5 186.844 50.1875 187.521 50.0114C188.202 49.8295 188.873 49.7386 189.532 49.7386C189.952 49.7386 190.435 49.7898 190.981 49.892C191.532 49.9886 192.063 50.1903 192.575 50.4972C193.092 50.804 193.521 51.267 193.862 51.8864C194.202 52.5057 194.373 53.3352 194.373 54.375V63H192.362V61.2273H192.259C192.123 61.5114 191.896 61.8153 191.577 62.1392C191.259 62.4631 190.836 62.7386 190.308 62.9659C189.779 63.1932 189.134 63.3068 188.373 63.3068ZM188.68 61.5C189.475 61.5 190.146 61.3438 190.691 61.0312C191.242 60.7188 191.657 60.3153 191.935 59.821C192.219 59.3267 192.362 58.8068 192.362 58.2614V56.4205C192.276 56.5227 192.089 56.6165 191.799 56.7017C191.515 56.7812 191.185 56.8523 190.81 56.9148C190.441 56.9716 190.08 57.0227 189.728 57.0682C189.381 57.108 189.1 57.142 188.884 57.1705C188.362 57.2386 187.873 57.3494 187.418 57.5028C186.969 57.6506 186.606 57.875 186.327 58.1761C186.055 58.4716 185.918 58.875 185.918 59.3864C185.918 60.0852 186.177 60.6136 186.694 60.9716C187.217 61.3239 187.879 61.5 188.68 61.5ZM202.987 63.2727C201.896 63.2727 200.933 62.9972 200.098 62.446C199.263 61.8892 198.609 61.1051 198.138 60.0938C197.666 59.0767 197.43 57.875 197.43 56.4886C197.43 55.1136 197.666 53.9205 198.138 52.9091C198.609 51.8977 199.266 51.1165 200.107 50.5653C200.947 50.0142 201.919 49.7386 203.021 49.7386C203.874 49.7386 204.547 49.8807 205.041 50.1648C205.541 50.4432 205.922 50.7614 206.183 51.1193C206.45 51.4716 206.658 51.7614 206.805 51.9886H206.976V45.5455H208.987V63H207.044V60.9886H206.805C206.658 61.2273 206.447 61.5284 206.175 61.892C205.902 62.25 205.513 62.571 205.007 62.8551C204.501 63.1335 203.828 63.2727 202.987 63.2727ZM203.26 61.4659C204.067 61.4659 204.749 61.2557 205.305 60.8352C205.862 60.4091 206.286 59.821 206.575 59.071C206.865 58.3153 207.01 57.4432 207.01 56.4545C207.01 55.4773 206.868 54.6222 206.584 53.8892C206.3 53.1506 205.879 52.5767 205.322 52.1676C204.766 51.7528 204.078 51.5455 203.26 51.5455C202.408 51.5455 201.697 51.7642 201.129 52.2017C200.567 52.6335 200.143 53.2216 199.859 53.9659C199.581 54.7045 199.442 55.5341 199.442 56.4545C199.442 57.3864 199.584 58.233 199.868 58.9943C200.158 59.75 200.584 60.3523 201.146 60.8011C201.714 61.2443 202.419 61.4659 203.26 61.4659ZM222.223 52.8409L220.416 53.3523C220.303 53.0511 220.135 52.7585 219.913 52.4744C219.697 52.1847 219.402 51.946 219.027 51.7585C218.652 51.571 218.172 51.4773 217.587 51.4773C216.786 51.4773 216.118 51.6619 215.584 52.0312C215.055 52.3949 214.791 52.858 214.791 53.4205C214.791 53.9205 214.973 54.3153 215.337 54.6051C215.7 54.8949 216.268 55.1364 217.041 55.3295L218.984 55.8068C220.155 56.0909 221.027 56.5256 221.601 57.1108C222.175 57.6903 222.462 58.4375 222.462 59.3523C222.462 60.1023 222.246 60.7727 221.814 61.3636C221.388 61.9545 220.791 62.4205 220.024 62.7614C219.257 63.1023 218.365 63.2727 217.348 63.2727C216.013 63.2727 214.908 62.983 214.033 62.4034C213.158 61.8239 212.604 60.9773 212.371 59.8636L214.28 59.3864C214.462 60.0909 214.805 60.6193 215.311 60.9716C215.822 61.3239 216.49 61.5 217.314 61.5C218.251 61.5 218.996 61.3011 219.547 60.9034C220.104 60.5 220.382 60.017 220.382 59.4545C220.382 59 220.223 58.6193 219.905 58.3125C219.587 58 219.098 57.767 218.439 57.6136L216.257 57.1023C215.058 56.8182 214.178 56.3778 213.615 55.7812C213.058 55.179 212.78 54.4261 212.78 53.5227C212.78 52.7841 212.987 52.1307 213.402 51.5625C213.822 50.9943 214.393 50.5483 215.115 50.2244C215.842 49.9006 216.666 49.7386 217.587 49.7386C218.882 49.7386 219.899 50.0227 220.638 50.5909C221.382 51.1591 221.911 51.9091 222.223 52.8409Z" fill="black"/>
<path d="M308.009 45.5455V63H304.318V49.0483H304.216L300.219 51.554V48.2812L304.54 45.5455H308.009ZM313.376 63.2216C312.813 63.2216 312.33 63.0227 311.927 62.625C311.529 62.2216 311.33 61.7386 311.33 61.1761C311.33 60.6193 311.529 60.142 311.927 59.7443C312.33 59.3466 312.813 59.1477 313.376 59.1477C313.921 59.1477 314.398 59.3466 314.808 59.7443C315.217 60.142 315.421 60.6193 315.421 61.1761C315.421 61.5511 315.325 61.8949 315.131 62.2074C314.944 62.5142 314.697 62.7614 314.39 62.9489C314.083 63.1307 313.745 63.2216 313.376 63.2216ZM324.257 63.2386C322.984 63.2386 321.851 63.0199 320.857 62.5824C319.868 62.1392 319.087 61.5312 318.513 60.7585C317.945 59.9801 317.652 59.0824 317.635 58.0653H321.351C321.374 58.4915 321.513 58.8665 321.768 59.1903C322.03 59.5085 322.376 59.7557 322.808 59.9318C323.24 60.108 323.726 60.196 324.266 60.196C324.828 60.196 325.325 60.0966 325.757 59.8977C326.189 59.6989 326.527 59.4233 326.771 59.071C327.016 58.7187 327.138 58.3125 327.138 57.8523C327.138 57.3864 327.007 56.9744 326.746 56.6165C326.49 56.2528 326.121 55.9687 325.638 55.7642C325.161 55.5597 324.592 55.4574 323.933 55.4574H322.305V52.7472H323.933C324.49 52.7472 324.982 52.6506 325.408 52.4574C325.839 52.2642 326.175 51.9972 326.413 51.6562C326.652 51.3097 326.771 50.9062 326.771 50.446C326.771 50.0085 326.666 49.625 326.456 49.2955C326.251 48.9602 325.962 48.6989 325.587 48.5114C325.217 48.3239 324.786 48.2301 324.291 48.2301C323.791 48.2301 323.334 48.321 322.919 48.5028C322.504 48.679 322.172 48.9318 321.922 49.2614C321.672 49.5909 321.538 49.9773 321.521 50.4205H317.984C318.001 49.4148 318.288 48.5284 318.845 47.7614C319.402 46.9943 320.152 46.3949 321.095 45.9631C322.044 45.5256 323.115 45.3068 324.308 45.3068C325.513 45.3068 326.567 45.5256 327.47 45.9631C328.374 46.4006 329.075 46.9915 329.575 47.7358C330.081 48.4744 330.331 49.304 330.325 50.2244C330.331 51.2017 330.027 52.017 329.413 52.6705C328.805 53.3239 328.013 53.7386 327.036 53.9148V54.0511C328.32 54.2159 329.297 54.6619 329.967 55.3892C330.643 56.1108 330.979 57.0142 330.973 58.0994C330.979 59.0938 330.692 59.9773 330.112 60.75C329.538 61.5227 328.746 62.1307 327.734 62.5739C326.723 63.017 325.564 63.2386 324.257 63.2386ZM339.283 45.5455H343.834L348.641 57.2727H348.845L353.652 45.5455H358.203V63H354.624V51.6392H354.479L349.962 62.9148H347.524L343.007 51.5966H342.862V63H339.283V45.5455Z" fill="#B483F2"/>
<rect x="98" y="161" width="214" height="15" rx="7.5" fill="#3EE677" fill-opacity="0.23"/>
<rect x="98" y="161" width="110" height="15" rx="7.5" fill="#3EE677" fill-opacity="0.9"/>
<path d="M334.136 173.159C333.386 173.159 332.718 173.03 332.131 172.773C331.547 172.515 331.083 172.157 330.739 171.699C330.398 171.237 330.212 170.701 330.182 170.091H331.614C331.644 170.466 331.773 170.79 332 171.062C332.227 171.331 332.525 171.54 332.892 171.688C333.259 171.835 333.667 171.909 334.114 171.909C334.614 171.909 335.057 171.822 335.443 171.648C335.83 171.473 336.133 171.231 336.352 170.92C336.572 170.61 336.682 170.25 336.682 169.841C336.682 169.413 336.576 169.036 336.364 168.71C336.152 168.381 335.841 168.123 335.432 167.938C335.023 167.752 334.523 167.659 333.932 167.659H333V166.409H333.932C334.394 166.409 334.799 166.326 335.148 166.159C335.5 165.992 335.775 165.758 335.972 165.455C336.172 165.152 336.273 164.795 336.273 164.386C336.273 163.992 336.186 163.65 336.011 163.358C335.837 163.066 335.591 162.839 335.273 162.676C334.958 162.513 334.587 162.432 334.159 162.432C333.758 162.432 333.379 162.506 333.023 162.653C332.67 162.797 332.383 163.008 332.159 163.284C331.936 163.557 331.814 163.886 331.795 164.273H330.432C330.455 163.663 330.638 163.129 330.983 162.67C331.328 162.208 331.778 161.848 332.335 161.591C332.896 161.333 333.511 161.205 334.182 161.205C334.902 161.205 335.519 161.35 336.034 161.642C336.549 161.93 336.945 162.311 337.222 162.784C337.498 163.258 337.636 163.769 337.636 164.318C337.636 164.973 337.464 165.532 337.119 165.994C336.778 166.456 336.314 166.777 335.727 166.955V167.045C336.462 167.167 337.036 167.479 337.449 167.983C337.862 168.483 338.068 169.102 338.068 169.841C338.068 170.473 337.896 171.042 337.551 171.545C337.21 172.045 336.744 172.439 336.153 172.727C335.563 173.015 334.89 173.159 334.136 173.159ZM340.756 173L345.96 162.705V162.614H339.96V161.364H347.415V162.682L342.233 173H340.756ZM353.013 173.159C352.346 173.159 351.746 173.027 351.212 172.761C350.678 172.496 350.25 172.133 349.928 171.67C349.606 171.208 349.429 170.682 349.399 170.091H350.763C350.816 170.617 351.054 171.053 351.479 171.398C351.907 171.739 352.418 171.909 353.013 171.909C353.49 171.909 353.914 171.797 354.286 171.574C354.661 171.35 354.954 171.044 355.166 170.653C355.382 170.259 355.49 169.814 355.49 169.318C355.49 168.811 355.378 168.358 355.155 167.96C354.935 167.559 354.632 167.242 354.246 167.011C353.859 166.78 353.418 166.663 352.922 166.659C352.566 166.655 352.2 166.71 351.825 166.824C351.45 166.934 351.142 167.076 350.899 167.25L349.581 167.091L350.286 161.364H356.331V162.614H351.467L351.058 166.045H351.126C351.365 165.856 351.664 165.699 352.024 165.574C352.384 165.449 352.759 165.386 353.149 165.386C353.861 165.386 354.496 165.557 355.053 165.898C355.613 166.235 356.053 166.697 356.371 167.284C356.693 167.871 356.854 168.542 356.854 169.295C356.854 170.038 356.687 170.701 356.354 171.284C356.024 171.864 355.57 172.322 354.99 172.659C354.411 172.992 353.751 173.159 353.013 173.159ZM363.815 173V161.364H365.224V167.136H365.361L370.588 161.364H372.429L367.543 166.614L372.429 173H370.724L366.679 167.591L365.224 169.227V173H363.815Z" fill="black"/>
<rect x="99" y="129" width="214" height="15" rx="7.5" fill="#3EE677" fill-opacity="0.23"/>
<rect x="99" y="129" width="180" height="15" rx="7.5" fill="#3EE677" fill-opacity="0.9"/>
<path d="M330.932 138.614V137.455L336.045 129.364H336.886V131.159H336.318L332.455 137.273V137.364H339.341V138.614H330.932ZM336.409 141V138.261V137.722V129.364H337.75V141H336.409ZM341.834 141L347.038 130.705V130.614H341.038V129.364H348.493V130.682L343.311 141H341.834ZM354.091 141.159C353.424 141.159 352.824 141.027 352.29 140.761C351.756 140.496 351.328 140.133 351.006 139.67C350.684 139.208 350.508 138.682 350.477 138.091H351.841C351.894 138.617 352.133 139.053 352.557 139.398C352.985 139.739 353.496 139.909 354.091 139.909C354.568 139.909 354.992 139.797 355.364 139.574C355.739 139.35 356.032 139.044 356.244 138.653C356.46 138.259 356.568 137.814 356.568 137.318C356.568 136.811 356.456 136.358 356.233 135.96C356.013 135.559 355.71 135.242 355.324 135.011C354.938 134.78 354.496 134.663 354 134.659C353.644 134.655 353.278 134.71 352.903 134.824C352.528 134.934 352.22 135.076 351.977 135.25L350.659 135.091L351.364 129.364H357.409V130.614H352.545L352.136 134.045H352.205C352.443 133.856 352.742 133.699 353.102 133.574C353.462 133.449 353.837 133.386 354.227 133.386C354.939 133.386 355.574 133.557 356.131 133.898C356.691 134.235 357.131 134.697 357.449 135.284C357.771 135.871 357.932 136.542 357.932 137.295C357.932 138.038 357.765 138.701 357.432 139.284C357.102 139.864 356.648 140.322 356.068 140.659C355.489 140.992 354.83 141.159 354.091 141.159ZM364.893 141V129.364H366.303V135.136H366.439L371.666 129.364H373.507L368.621 134.614L373.507 141H371.803L367.757 135.591L366.303 137.227V141H364.893Z" fill="black"/>
<rect x="99" y="97" width="214" height="15" rx="7.5" fill="#3EE677" fill-opacity="0.23"/>
<rect x="99" y="97" width="135" height="15" rx="7.5" fill="#3EE677" fill-opacity="0.9"/>
<path d="M330.932 106.614V105.455L336.045 97.3636H336.886V99.1591H336.318L332.455 105.273V105.364H339.341V106.614H330.932ZM336.409 109V106.261V105.722V97.3636H337.75V109H336.409ZM345.107 109.159C344.44 109.159 343.839 109.027 343.305 108.761C342.771 108.496 342.343 108.133 342.021 107.67C341.699 107.208 341.523 106.682 341.493 106.091H342.857C342.91 106.617 343.148 107.053 343.572 107.398C344 107.739 344.512 107.909 345.107 107.909C345.584 107.909 346.008 107.797 346.379 107.574C346.754 107.35 347.048 107.044 347.26 106.653C347.476 106.259 347.584 105.814 347.584 105.318C347.584 104.811 347.472 104.358 347.249 103.96C347.029 103.559 346.726 103.242 346.339 103.011C345.953 102.78 345.512 102.663 345.016 102.659C344.66 102.655 344.294 102.71 343.919 102.824C343.544 102.934 343.235 103.076 342.993 103.25L341.675 103.091L342.379 97.3636H348.425V98.6136H343.561L343.152 102.045H343.22C343.459 101.856 343.758 101.699 344.118 101.574C344.478 101.449 344.853 101.386 345.243 101.386C345.955 101.386 346.589 101.557 347.146 101.898C347.707 102.235 348.146 102.697 348.464 103.284C348.786 103.871 348.947 104.542 348.947 105.295C348.947 106.038 348.781 106.701 348.447 107.284C348.118 107.864 347.663 108.322 347.084 108.659C346.504 108.992 345.845 109.159 345.107 109.159ZM355 109.159C354.144 109.159 353.415 108.926 352.812 108.46C352.21 107.991 351.75 107.311 351.432 106.42C351.114 105.527 350.955 104.447 350.955 103.182C350.955 101.924 351.114 100.85 351.432 99.9602C351.754 99.0663 352.216 98.3845 352.818 97.9148C353.424 97.4413 354.152 97.2045 355 97.2045C355.848 97.2045 356.574 97.4413 357.176 97.9148C357.782 98.3845 358.244 99.0663 358.562 99.9602C358.884 100.85 359.045 101.924 359.045 103.182C359.045 104.447 358.886 105.527 358.568 106.42C358.25 107.311 357.79 107.991 357.188 108.46C356.585 108.926 355.856 109.159 355 109.159ZM355 107.909C355.848 107.909 356.508 107.5 356.977 106.682C357.447 105.864 357.682 104.697 357.682 103.182C357.682 102.174 357.574 101.316 357.358 100.608C357.146 99.8996 356.839 99.3598 356.438 98.9886C356.04 98.6174 355.561 98.4318 355 98.4318C354.159 98.4318 353.502 98.8466 353.028 99.6761C352.555 100.502 352.318 101.67 352.318 103.182C352.318 104.189 352.424 105.045 352.636 105.75C352.848 106.455 353.153 106.991 353.551 107.358C353.953 107.725 354.436 107.909 355 107.909ZM365.909 109V97.3636H367.318V103.136H367.455L372.682 97.3636H374.523L369.636 102.614L374.523 109H372.818L368.773 103.591L367.318 105.227V109H365.909Z" fill="black"/>
<g filter="url(#filter0_d_26_3)">
<circle cx="171.5" cy="402.5" r="133.5" fill="#B483F2" fill-opacity="0.3" shape-rendering="crispEdges"/>
</g>
<g filter="url(#filter1_d_26_3)">
<path d="M323.136 380.525L184.383 537.635L124.185 260.999L323.136 380.525Z" fill="#B483F2"/>
</g>
<path d="M375.041 211.016C372.484 209.974 369.566 211.202 368.524 213.76L351.542 255.432C350.5 257.989 351.728 260.907 354.285 261.949C356.843 262.991 359.76 261.763 360.803 259.206L375.898 222.164L412.94 237.259C415.497 238.301 418.415 237.073 419.457 234.516C420.5 231.958 419.271 229.041 416.714 227.998L375.041 211.016ZM441.617 378.288L437.009 380.228L441.498 390.893L446.188 380.315L441.617 378.288ZM482.046 287.099L486.156 284.251L481.084 276.931L477.475 285.072L482.046 287.099ZM446.226 376.348L377.763 213.707L368.546 217.586L437.009 380.228L446.226 376.348ZM583.065 424.124L486.156 284.251L477.936 289.946L574.845 429.819L583.065 424.124ZM477.475 285.072L437.046 376.262L446.188 380.315L486.617 289.125L477.475 285.072Z" fill="#B483F2"/>
<rect x="595" y="380" width="339" height="182" rx="32" fill="white"/>
<path d="M633.114 424V406.545H639.216C640.432 406.545 641.435 406.756 642.224 407.176C643.014 407.591 643.602 408.151 643.989 408.855C644.375 409.554 644.568 410.33 644.568 411.182C644.568 411.932 644.435 412.551 644.168 413.04C643.906 413.528 643.56 413.915 643.128 414.199C642.702 414.483 642.239 414.693 641.739 414.83V415C642.273 415.034 642.81 415.222 643.349 415.562C643.889 415.903 644.341 416.392 644.705 417.028C645.068 417.665 645.25 418.443 645.25 419.364C645.25 420.239 645.051 421.026 644.653 421.724C644.256 422.423 643.628 422.977 642.77 423.386C641.912 423.795 640.795 424 639.42 424H633.114ZM635.227 422.125H639.42C640.801 422.125 641.781 421.858 642.361 421.324C642.946 420.784 643.239 420.131 643.239 419.364C643.239 418.773 643.088 418.227 642.787 417.727C642.486 417.222 642.057 416.818 641.5 416.517C640.943 416.21 640.284 416.057 639.523 416.057H635.227V422.125ZM635.227 414.216H639.148C639.784 414.216 640.358 414.091 640.869 413.841C641.386 413.591 641.795 413.239 642.097 412.784C642.403 412.33 642.557 411.795 642.557 411.182C642.557 410.415 642.29 409.764 641.756 409.23C641.222 408.69 640.375 408.42 639.216 408.42H635.227V414.216ZM656.7 418.648V410.909H658.712V424H656.7V421.784H656.564C656.257 422.449 655.78 423.014 655.132 423.48C654.484 423.94 653.666 424.17 652.678 424.17C651.859 424.17 651.132 423.991 650.496 423.634C649.859 423.27 649.359 422.724 648.996 421.997C648.632 421.264 648.45 420.341 648.45 419.227V410.909H650.462V419.091C650.462 420.045 650.729 420.807 651.263 421.375C651.803 421.943 652.49 422.227 653.325 422.227C653.825 422.227 654.334 422.099 654.851 421.844C655.374 421.588 655.811 421.196 656.163 420.668C656.521 420.139 656.7 419.466 656.7 418.648ZM662.396 424V410.909H664.407V424H662.396ZM663.418 408.727C663.026 408.727 662.688 408.594 662.404 408.327C662.126 408.06 661.987 407.739 661.987 407.364C661.987 406.989 662.126 406.668 662.404 406.401C662.688 406.134 663.026 406 663.418 406C663.81 406 664.146 406.134 664.424 406.401C664.708 406.668 664.85 406.989 664.85 407.364C664.85 407.739 664.708 408.06 664.424 408.327C664.146 408.594 663.81 408.727 663.418 408.727ZM670.102 406.545V424H668.091V406.545H670.102ZM678.729 424.273C677.638 424.273 676.675 423.997 675.84 423.446C675.005 422.889 674.352 422.105 673.88 421.094C673.408 420.077 673.173 418.875 673.173 417.489C673.173 416.114 673.408 414.92 673.88 413.909C674.352 412.898 675.008 412.116 675.849 411.565C676.69 411.014 677.661 410.739 678.763 410.739C679.616 410.739 680.289 410.881 680.783 411.165C681.283 411.443 681.664 411.761 681.925 412.119C682.192 412.472 682.4 412.761 682.548 412.989H682.718V406.545H684.729V424H682.786V421.989H682.548C682.4 422.227 682.19 422.528 681.917 422.892C681.644 423.25 681.255 423.571 680.749 423.855C680.244 424.134 679.57 424.273 678.729 424.273ZM679.002 422.466C679.809 422.466 680.491 422.256 681.048 421.835C681.604 421.409 682.028 420.821 682.317 420.071C682.607 419.315 682.752 418.443 682.752 417.455C682.752 416.477 682.61 415.622 682.326 414.889C682.042 414.151 681.621 413.577 681.065 413.168C680.508 412.753 679.82 412.545 679.002 412.545C678.15 412.545 677.44 412.764 676.871 413.202C676.309 413.634 675.886 414.222 675.602 414.966C675.323 415.705 675.184 416.534 675.184 417.455C675.184 418.386 675.326 419.233 675.61 419.994C675.9 420.75 676.326 421.352 676.888 421.801C677.457 422.244 678.161 422.466 679.002 422.466ZM688.692 424V410.909H690.704V424H688.692ZM689.715 408.727C689.323 408.727 688.985 408.594 688.701 408.327C688.423 408.06 688.283 407.739 688.283 407.364C688.283 406.989 688.423 406.668 688.701 406.401C688.985 406.134 689.323 406 689.715 406C690.107 406 690.442 406.134 690.721 406.401C691.005 406.668 691.147 406.989 691.147 407.364C691.147 407.739 691.005 408.06 690.721 408.327C690.442 408.594 690.107 408.727 689.715 408.727ZM696.399 416.125V424H694.388V410.909H696.331V412.955H696.501C696.808 412.29 697.274 411.756 697.899 411.352C698.524 410.943 699.331 410.739 700.32 410.739C701.206 410.739 701.982 410.92 702.646 411.284C703.311 411.642 703.828 412.188 704.197 412.92C704.567 413.648 704.751 414.568 704.751 415.682V424H702.74V415.818C702.74 414.79 702.473 413.989 701.939 413.415C701.405 412.835 700.672 412.545 699.74 412.545C699.098 412.545 698.524 412.685 698.018 412.963C697.518 413.241 697.124 413.648 696.834 414.182C696.544 414.716 696.399 415.364 696.399 416.125ZM713.711 429.182C712.739 429.182 711.904 429.057 711.205 428.807C710.506 428.562 709.924 428.239 709.458 427.835C708.998 427.438 708.631 427.011 708.359 426.557L709.961 425.432C710.143 425.67 710.373 425.943 710.651 426.25C710.93 426.562 711.31 426.832 711.793 427.06C712.282 427.293 712.921 427.409 713.711 427.409C714.768 427.409 715.64 427.153 716.327 426.642C717.015 426.131 717.359 425.33 717.359 424.239V421.58H717.188C717.04 421.818 716.83 422.114 716.558 422.466C716.29 422.812 715.904 423.122 715.398 423.395C714.898 423.662 714.222 423.795 713.37 423.795C712.313 423.795 711.364 423.545 710.523 423.045C709.688 422.545 709.026 421.818 708.538 420.864C708.055 419.909 707.813 418.75 707.813 417.386C707.813 416.045 708.049 414.878 708.521 413.884C708.992 412.884 709.648 412.111 710.489 411.565C711.33 411.014 712.302 410.739 713.404 410.739C714.256 410.739 714.933 410.881 715.433 411.165C715.938 411.443 716.325 411.761 716.592 412.119C716.864 412.472 717.075 412.761 717.222 412.989H717.427V410.909H719.37V424.375C719.37 425.5 719.114 426.415 718.603 427.119C718.097 427.83 717.415 428.349 716.558 428.679C715.705 429.014 714.756 429.182 713.711 429.182ZM713.643 421.989C714.45 421.989 715.131 421.804 715.688 421.435C716.245 421.065 716.668 420.534 716.958 419.841C717.248 419.148 717.393 418.318 717.393 417.352C717.393 416.409 717.251 415.577 716.967 414.855C716.683 414.134 716.262 413.568 715.705 413.159C715.148 412.75 714.461 412.545 713.643 412.545C712.79 412.545 712.08 412.761 711.512 413.193C710.95 413.625 710.526 414.205 710.242 414.932C709.964 415.659 709.825 416.466 709.825 417.352C709.825 418.261 709.967 419.065 710.251 419.764C710.54 420.457 710.967 421.003 711.529 421.401C712.097 421.793 712.802 421.989 713.643 421.989Z" fill="black"/>
<path d="M833.009 406.545V424H829.318V410.048H829.216L825.219 412.554V409.281L829.54 406.545H833.009ZM836.893 420.932V418.026L844.18 406.545H846.685V410.568H845.202L840.609 417.838V417.974H850.964V420.932H836.893ZM845.271 424V420.045L845.339 418.759V406.545H848.799V424H845.271ZM853.457 424V410.909H856.917V413.219H857.07C857.343 412.452 857.798 411.847 858.434 411.403C859.07 410.96 859.832 410.739 860.718 410.739C861.616 410.739 862.38 410.963 863.011 411.412C863.641 411.855 864.062 412.457 864.272 413.219H864.408C864.675 412.469 865.158 411.869 865.857 411.42C866.562 410.966 867.394 410.739 868.354 410.739C869.576 410.739 870.567 411.128 871.329 411.906C872.096 412.679 872.479 413.776 872.479 415.196V424H868.857V415.912C868.857 415.185 868.664 414.639 868.278 414.276C867.891 413.912 867.408 413.73 866.829 413.73C866.17 413.73 865.656 413.94 865.286 414.361C864.917 414.776 864.732 415.324 864.732 416.006V424H861.212V415.835C861.212 415.193 861.028 414.682 860.658 414.301C860.295 413.92 859.815 413.73 859.218 413.73C858.815 413.73 858.451 413.832 858.127 414.037C857.809 414.236 857.556 414.517 857.369 414.881C857.181 415.239 857.087 415.659 857.087 416.142V424H853.457ZM884.635 424.247C883.8 424.247 883.055 424.102 882.402 423.812C881.749 423.517 881.232 423.082 880.851 422.509C880.476 421.929 880.288 421.207 880.288 420.344C880.288 419.616 880.422 419.006 880.689 418.511C880.956 418.017 881.32 417.619 881.78 417.318C882.24 417.017 882.763 416.79 883.348 416.636C883.939 416.483 884.558 416.375 885.206 416.312C885.967 416.233 886.581 416.159 887.047 416.091C887.513 416.017 887.851 415.909 888.061 415.767C888.271 415.625 888.376 415.415 888.376 415.136V415.085C888.376 414.545 888.206 414.128 887.865 413.832C887.53 413.537 887.053 413.389 886.433 413.389C885.78 413.389 885.26 413.534 884.874 413.824C884.487 414.108 884.232 414.466 884.107 414.898L880.749 414.625C880.919 413.83 881.254 413.142 881.754 412.562C882.254 411.977 882.899 411.528 883.689 411.216C884.484 410.898 885.405 410.739 886.45 410.739C887.178 410.739 887.874 410.824 888.538 410.994C889.209 411.165 889.803 411.429 890.32 411.787C890.842 412.145 891.254 412.605 891.555 413.168C891.857 413.724 892.007 414.392 892.007 415.17V424H888.564V422.185H888.462C888.251 422.594 887.97 422.955 887.618 423.267C887.266 423.574 886.842 423.815 886.348 423.991C885.854 424.162 885.283 424.247 884.635 424.247ZM885.675 421.741C886.209 421.741 886.68 421.636 887.089 421.426C887.499 421.21 887.82 420.92 888.053 420.557C888.286 420.193 888.402 419.781 888.402 419.321V417.932C888.288 418.006 888.132 418.074 887.933 418.136C887.74 418.193 887.521 418.247 887.277 418.298C887.033 418.344 886.788 418.386 886.544 418.426C886.3 418.46 886.078 418.491 885.879 418.52C885.453 418.582 885.081 418.682 884.763 418.818C884.445 418.955 884.197 419.139 884.021 419.372C883.845 419.599 883.757 419.884 883.757 420.224C883.757 420.719 883.936 421.097 884.294 421.358C884.658 421.614 885.118 421.741 885.675 421.741ZM900.722 429.182C899.545 429.182 898.537 429.02 897.696 428.696C896.861 428.378 896.196 427.943 895.702 427.392C895.207 426.841 894.886 426.222 894.739 425.534L898.097 425.082C898.199 425.344 898.361 425.588 898.582 425.815C898.804 426.043 899.097 426.224 899.46 426.361C899.83 426.503 900.278 426.574 900.807 426.574C901.597 426.574 902.247 426.381 902.759 425.994C903.276 425.614 903.534 424.974 903.534 424.077V421.682H903.381C903.222 422.045 902.983 422.389 902.665 422.713C902.347 423.037 901.938 423.301 901.438 423.506C900.938 423.71 900.341 423.812 899.648 423.812C898.665 423.812 897.77 423.585 896.963 423.131C896.162 422.67 895.523 421.969 895.045 421.026C894.574 420.077 894.338 418.878 894.338 417.429C894.338 415.946 894.58 414.707 895.062 413.713C895.545 412.719 896.188 411.974 896.989 411.48C897.795 410.986 898.679 410.739 899.639 410.739C900.372 410.739 900.986 410.864 901.48 411.114C901.974 411.358 902.372 411.665 902.673 412.034C902.98 412.398 903.216 412.756 903.381 413.108H903.517V410.909H907.122V424.128C907.122 425.241 906.849 426.173 906.304 426.923C905.759 427.673 905.003 428.236 904.037 428.611C903.077 428.991 901.972 429.182 900.722 429.182ZM900.798 421.085C901.384 421.085 901.878 420.94 902.281 420.651C902.69 420.355 903.003 419.935 903.219 419.389C903.44 418.838 903.551 418.179 903.551 417.412C903.551 416.645 903.443 415.98 903.227 415.418C903.011 414.849 902.699 414.409 902.29 414.097C901.881 413.784 901.384 413.628 900.798 413.628C900.202 413.628 899.699 413.79 899.29 414.114C898.881 414.432 898.571 414.875 898.361 415.443C898.151 416.011 898.045 416.668 898.045 417.412C898.045 418.168 898.151 418.821 898.361 419.372C898.577 419.918 898.886 420.341 899.29 420.642C899.699 420.937 900.202 421.085 900.798 421.085ZM915.926 424.256C914.602 424.256 913.457 423.974 912.491 423.412C911.531 422.844 910.79 422.054 910.267 421.043C909.744 420.026 909.483 418.847 909.483 417.506C909.483 416.153 909.744 414.972 910.267 413.96C910.79 412.943 911.531 412.153 912.491 411.591C913.457 411.023 914.602 410.739 915.926 410.739C917.25 410.739 918.392 411.023 919.352 411.591C920.318 412.153 921.062 412.943 921.585 413.96C922.108 414.972 922.369 416.153 922.369 417.506C922.369 418.847 922.108 420.026 921.585 421.043C921.062 422.054 920.318 422.844 919.352 423.412C918.392 423.974 917.25 424.256 915.926 424.256ZM915.943 421.443C916.545 421.443 917.048 421.273 917.452 420.932C917.855 420.585 918.159 420.114 918.364 419.517C918.574 418.92 918.679 418.241 918.679 417.48C918.679 416.719 918.574 416.04 918.364 415.443C918.159 414.847 917.855 414.375 917.452 414.028C917.048 413.682 916.545 413.509 915.943 413.509C915.335 413.509 914.824 413.682 914.409 414.028C914 414.375 913.69 414.847 913.48 415.443C913.276 416.04 913.173 416.719 913.173 417.48C913.173 418.241 913.276 418.92 913.48 419.517C913.69 420.114 914 420.585 914.409 420.932C914.824 421.273 915.335 421.443 915.943 421.443Z" fill="#B483F2"/>
<path d="M641.963 471L638.384 457.909H639.994L642.73 468.571H642.858L645.645 457.909H647.435L650.222 468.571H650.349L653.085 457.909H654.696L651.116 471H649.48L646.591 460.568H646.489L643.599 471H641.963ZM656.467 471V461.182H657.975V471H656.467ZM657.234 459.545C656.94 459.545 656.686 459.445 656.473 459.245C656.264 459.045 656.16 458.804 656.16 458.523C656.16 458.241 656.264 458.001 656.473 457.8C656.686 457.6 656.94 457.5 657.234 457.5C657.528 457.5 657.779 457.6 657.988 457.8C658.201 458.001 658.308 458.241 658.308 458.523C658.308 458.804 658.201 459.045 657.988 459.245C657.779 459.445 657.528 459.545 657.234 459.545ZM662.247 465.094V471H660.738V461.182H662.195V462.716H662.323C662.553 462.217 662.903 461.817 663.372 461.514C663.84 461.207 664.445 461.054 665.187 461.054C665.852 461.054 666.433 461.19 666.932 461.463C667.431 461.732 667.818 462.141 668.095 462.69C668.372 463.236 668.511 463.926 668.511 464.761V471H667.002V464.864C667.002 464.092 666.802 463.491 666.401 463.061C666.001 462.626 665.451 462.409 664.752 462.409C664.271 462.409 663.84 462.513 663.461 462.722C663.086 462.931 662.79 463.236 662.573 463.636C662.355 464.037 662.247 464.523 662.247 465.094ZM674.975 471.205C674.157 471.205 673.434 470.998 672.808 470.585C672.181 470.167 671.691 469.579 671.338 468.82C670.984 468.058 670.807 467.156 670.807 466.116C670.807 465.085 670.984 464.19 671.338 463.432C671.691 462.673 672.184 462.087 672.814 461.674C673.445 461.261 674.174 461.054 675 461.054C675.64 461.054 676.145 461.161 676.515 461.374C676.89 461.582 677.176 461.821 677.372 462.089C677.572 462.354 677.728 462.571 677.838 462.741H677.966V457.909H679.475V471H678.017V469.491H677.838C677.728 469.67 677.57 469.896 677.365 470.169C677.161 470.437 676.869 470.678 676.49 470.891C676.11 471.1 675.605 471.205 674.975 471.205ZM675.179 469.849C675.784 469.849 676.296 469.692 676.713 469.376C677.131 469.057 677.449 468.616 677.666 468.053C677.883 467.487 677.992 466.832 677.992 466.091C677.992 465.358 677.885 464.717 677.672 464.167C677.459 463.613 677.144 463.183 676.726 462.876C676.309 462.565 675.793 462.409 675.179 462.409C674.54 462.409 674.007 462.573 673.581 462.901C673.159 463.225 672.842 463.666 672.629 464.224C672.42 464.778 672.316 465.401 672.316 466.091C672.316 466.79 672.422 467.425 672.635 467.996C672.853 468.562 673.172 469.014 673.594 469.351C674.02 469.683 674.549 469.849 675.179 469.849ZM686.436 471.205C685.549 471.205 684.772 470.994 684.103 470.572C683.438 470.15 682.918 469.56 682.543 468.801C682.172 468.043 681.987 467.156 681.987 466.142C681.987 465.119 682.172 464.227 682.543 463.464C682.918 462.701 683.438 462.109 684.103 461.687C684.772 461.265 685.549 461.054 686.436 461.054C687.322 461.054 688.098 461.265 688.762 461.687C689.431 462.109 689.951 462.701 690.322 463.464C690.697 464.227 690.885 465.119 690.885 466.142C690.885 467.156 690.697 468.043 690.322 468.801C689.951 469.56 689.431 470.15 688.762 470.572C688.098 470.994 687.322 471.205 686.436 471.205ZM686.436 469.849C687.109 469.849 687.663 469.677 688.098 469.332C688.532 468.987 688.854 468.533 689.063 467.97C689.272 467.408 689.376 466.798 689.376 466.142C689.376 465.486 689.272 464.874 689.063 464.308C688.854 463.741 688.532 463.283 688.098 462.933C687.663 462.584 687.109 462.409 686.436 462.409C685.762 462.409 685.208 462.584 684.774 462.933C684.339 463.283 684.017 463.741 683.809 464.308C683.6 464.874 683.495 465.486 683.495 466.142C683.495 466.798 683.6 467.408 683.809 467.97C684.017 468.533 684.339 468.987 684.774 469.332C685.208 469.677 685.762 469.849 686.436 469.849ZM695.078 471L692.086 461.182H693.672L695.794 468.699H695.896L697.993 461.182H699.603L701.674 468.673H701.777L703.899 461.182H705.484L702.493 471H701.01L698.862 463.457H698.708L696.561 471H695.078ZM714.433 463.381L713.078 463.764C712.993 463.538 712.867 463.319 712.701 463.106C712.539 462.888 712.317 462.71 712.036 462.569C711.755 462.428 711.395 462.358 710.956 462.358C710.355 462.358 709.854 462.496 709.453 462.773C709.057 463.046 708.859 463.393 708.859 463.815C708.859 464.19 708.995 464.487 709.268 464.704C709.541 464.921 709.967 465.102 710.547 465.247L712.004 465.605C712.882 465.818 713.536 466.144 713.966 466.583C714.397 467.018 714.612 467.578 714.612 468.264C714.612 468.827 714.45 469.33 714.126 469.773C713.806 470.216 713.359 470.565 712.784 470.821C712.208 471.077 711.539 471.205 710.777 471.205C709.775 471.205 708.946 470.987 708.29 470.553C707.634 470.118 707.218 469.483 707.044 468.648L708.475 468.29C708.612 468.818 708.87 469.214 709.249 469.479C709.632 469.743 710.133 469.875 710.751 469.875C711.454 469.875 712.012 469.726 712.426 469.428C712.843 469.125 713.052 468.763 713.052 468.341C713.052 468 712.933 467.714 712.694 467.484C712.456 467.25 712.089 467.075 711.595 466.96L709.958 466.577C709.059 466.364 708.399 466.033 707.977 465.586C707.559 465.134 707.35 464.57 707.35 463.892C707.35 463.338 707.506 462.848 707.817 462.422C708.132 461.996 708.561 461.661 709.102 461.418C709.647 461.175 710.265 461.054 710.956 461.054C711.927 461.054 712.69 461.267 713.244 461.693C713.802 462.119 714.199 462.682 714.433 463.381Z" fill="black"/>
<path d="M872.129 469V468.041L875.73 464.099C876.153 463.638 876.501 463.237 876.774 462.896C877.048 462.551 877.25 462.228 877.381 461.926C877.516 461.621 877.584 461.301 877.584 460.967C877.584 460.584 877.491 460.252 877.307 459.971C877.126 459.691 876.877 459.474 876.561 459.321C876.245 459.169 875.89 459.092 875.496 459.092C875.077 459.092 874.711 459.179 874.398 459.353C874.089 459.524 873.85 459.763 873.679 460.072C873.512 460.381 873.429 460.744 873.429 461.159H872.172C872.172 460.52 872.319 459.959 872.614 459.476C872.909 458.993 873.31 458.616 873.818 458.347C874.329 458.077 874.903 457.942 875.538 457.942C876.178 457.942 876.744 458.077 877.238 458.347C877.731 458.616 878.118 458.98 878.399 459.439C878.679 459.897 878.82 460.406 878.82 460.967C878.82 461.369 878.747 461.761 878.601 462.145C878.459 462.525 878.211 462.949 877.855 463.418C877.504 463.883 877.016 464.451 876.391 465.122L873.94 467.743V467.828H879.011V469H872.129ZM881.233 469V460.818H882.447V462.097H882.554C882.724 461.66 882.999 461.321 883.379 461.079C883.759 460.834 884.216 460.712 884.748 460.712C885.288 460.712 885.737 460.834 886.096 461.079C886.458 461.321 886.74 461.66 886.943 462.097H887.028C887.238 461.674 887.552 461.338 887.971 461.09C888.39 460.838 888.892 460.712 889.478 460.712C890.21 460.712 890.808 460.941 891.273 461.399C891.739 461.853 891.971 462.562 891.971 463.524V469H890.714V463.524C890.714 462.92 890.549 462.489 890.219 462.23C889.888 461.971 889.5 461.841 889.052 461.841C888.477 461.841 888.031 462.015 887.715 462.363C887.399 462.707 887.241 463.144 887.241 463.673V469H885.963V463.396C885.963 462.931 885.812 462.556 885.51 462.272C885.208 461.985 884.819 461.841 884.343 461.841C884.017 461.841 883.711 461.928 883.427 462.102C883.147 462.276 882.919 462.517 882.745 462.826C882.575 463.132 882.49 463.485 882.49 463.886V469H881.233ZM900.896 469.192C900.378 469.192 899.907 469.094 899.485 468.899C899.062 468.7 898.726 468.414 898.478 468.041C898.229 467.665 898.105 467.21 898.105 466.678C898.105 466.209 898.197 465.829 898.382 465.538C898.567 465.243 898.813 465.012 899.122 464.845C899.431 464.678 899.772 464.554 900.145 464.472C900.521 464.387 900.9 464.32 901.28 464.27C901.777 464.206 902.18 464.158 902.489 464.126C902.801 464.091 903.029 464.032 903.171 463.95C903.316 463.869 903.389 463.727 903.389 463.524V463.482C903.389 462.956 903.245 462.548 902.958 462.256C902.673 461.965 902.242 461.82 901.663 461.82C901.063 461.82 900.593 461.951 900.252 462.214C899.911 462.477 899.671 462.757 899.532 463.055L898.339 462.629C898.552 462.132 898.836 461.745 899.192 461.468C899.55 461.187 899.941 460.992 900.363 460.882C900.79 460.768 901.209 460.712 901.621 460.712C901.883 460.712 902.185 460.744 902.526 460.808C902.871 460.868 903.203 460.994 903.522 461.186C903.845 461.377 904.113 461.667 904.327 462.054C904.54 462.441 904.646 462.96 904.646 463.609V469H903.389V467.892H903.325C903.24 468.07 903.098 468.26 902.899 468.462C902.7 468.664 902.436 468.837 902.105 468.979C901.775 469.121 901.372 469.192 900.896 469.192ZM901.088 468.062C901.585 468.062 902.004 467.965 902.345 467.77C902.689 467.574 902.949 467.322 903.123 467.013C903.3 466.704 903.389 466.379 903.389 466.038V464.888C903.336 464.952 903.219 465.01 903.037 465.064C902.86 465.113 902.654 465.158 902.42 465.197C902.189 465.232 901.963 465.264 901.743 465.293C901.526 465.317 901.351 465.339 901.216 465.357C900.889 465.399 900.584 465.468 900.3 465.564C900.019 465.657 899.792 465.797 899.618 465.985C899.447 466.17 899.362 466.422 899.362 466.741C899.362 467.178 899.524 467.509 899.847 467.732C900.173 467.952 900.587 468.062 901.088 468.062ZM910.243 472.239C909.636 472.239 909.114 472.161 908.677 472.004C908.24 471.852 907.876 471.649 907.585 471.397C907.297 471.148 907.068 470.882 906.898 470.598L907.899 469.895C908.013 470.044 908.157 470.214 908.331 470.406C908.505 470.602 908.743 470.77 909.045 470.912C909.35 471.058 909.75 471.131 910.243 471.131C910.904 471.131 911.449 470.971 911.878 470.651C912.308 470.332 912.523 469.831 912.523 469.149V467.487H912.416C912.324 467.636 912.193 467.821 912.022 468.041C911.855 468.258 911.614 468.451 911.298 468.622C910.985 468.789 910.563 468.872 910.03 468.872C909.37 468.872 908.777 468.716 908.251 468.403C907.729 468.091 907.315 467.636 907.01 467.04C906.708 466.443 906.557 465.719 906.557 464.866C906.557 464.028 906.704 463.299 906.999 462.677C907.294 462.052 907.704 461.569 908.23 461.228C908.755 460.884 909.362 460.712 910.051 460.712C910.584 460.712 911.007 460.8 911.319 460.978C911.635 461.152 911.877 461.351 912.044 461.575C912.214 461.795 912.345 461.976 912.438 462.118H912.566V460.818H913.78V469.234C913.78 469.938 913.62 470.509 913.301 470.95C912.985 471.393 912.559 471.718 912.022 471.924C911.49 472.134 910.897 472.239 910.243 472.239ZM910.201 467.743C910.705 467.743 911.131 467.627 911.479 467.397C911.827 467.166 912.092 466.834 912.273 466.401C912.454 465.967 912.544 465.449 912.544 464.845C912.544 464.256 912.456 463.735 912.278 463.284C912.1 462.833 911.838 462.48 911.49 462.224C911.142 461.969 910.712 461.841 910.201 461.841C909.668 461.841 909.224 461.976 908.869 462.246C908.517 462.516 908.253 462.878 908.075 463.332C907.901 463.787 907.814 464.291 907.814 464.845C907.814 465.413 907.903 465.916 908.081 466.353C908.262 466.786 908.528 467.127 908.88 467.375C909.235 467.62 909.675 467.743 910.201 467.743ZM919.405 469.17C918.666 469.17 918.018 468.995 917.461 468.643C916.907 468.292 916.474 467.8 916.161 467.168C915.852 466.536 915.698 465.797 915.698 464.952C915.698 464.099 915.852 463.355 916.161 462.72C916.474 462.084 916.907 461.591 917.461 461.239C918.018 460.887 918.666 460.712 919.405 460.712C920.144 460.712 920.79 460.887 921.344 461.239C921.902 461.591 922.335 462.084 922.644 462.72C922.956 463.355 923.112 464.099 923.112 464.952C923.112 465.797 922.956 466.536 922.644 467.168C922.335 467.8 921.902 468.292 921.344 468.643C920.79 468.995 920.144 469.17 919.405 469.17ZM919.405 468.041C919.966 468.041 920.428 467.897 920.79 467.61C921.152 467.322 921.42 466.944 921.594 466.475C921.768 466.006 921.855 465.499 921.855 464.952C921.855 464.405 921.768 463.895 921.594 463.423C921.42 462.951 921.152 462.569 920.79 462.278C920.428 461.987 919.966 461.841 919.405 461.841C918.844 461.841 918.382 461.987 918.02 462.278C917.658 462.569 917.39 462.951 917.216 463.423C917.042 463.895 916.955 464.405 916.955 464.952C916.955 465.499 917.042 466.006 917.216 466.475C917.39 466.944 917.658 467.322 918.02 467.61C918.382 467.897 918.844 468.041 919.405 468.041Z" fill="black" fill-opacity="0.7"/>
<rect x="732" y="454" width="92" height="20" rx="10" fill="#3EE677" fill-opacity="0.9"/>
<path d="M763.815 469H759.948V458.091H763.847C764.945 458.091 765.889 458.309 766.681 458.746C767.473 459.179 768.082 459.803 768.508 460.616C768.938 461.429 769.153 462.402 769.153 463.535C769.153 464.671 768.938 465.648 768.508 466.464C768.082 467.281 767.469 467.908 766.67 468.345C765.875 468.782 764.923 469 763.815 469ZM762.255 467.024H763.719C764.401 467.024 764.975 466.903 765.44 466.662C765.909 466.417 766.26 466.038 766.495 465.527C766.733 465.012 766.852 464.348 766.852 463.535C766.852 462.729 766.733 462.07 766.495 461.559C766.26 461.047 765.911 460.671 765.445 460.429C764.98 460.188 764.407 460.067 763.725 460.067H762.255V467.024ZM774.515 469.16C773.688 469.16 772.972 468.984 772.369 468.632C771.769 468.277 771.305 467.784 770.978 467.152C770.652 466.516 770.488 465.779 770.488 464.941C770.488 464.096 770.652 463.357 770.978 462.725C771.305 462.089 771.769 461.596 772.369 461.244C772.972 460.889 773.688 460.712 774.515 460.712C775.343 460.712 776.057 460.889 776.657 461.244C777.26 461.596 777.726 462.089 778.052 462.725C778.379 463.357 778.542 464.096 778.542 464.941C778.542 465.779 778.379 466.516 778.052 467.152C777.726 467.784 777.26 468.277 776.657 468.632C776.057 468.984 775.343 469.16 774.515 469.16ZM774.526 467.402C774.902 467.402 775.217 467.295 775.469 467.082C775.721 466.866 775.911 466.571 776.039 466.198C776.17 465.825 776.236 465.401 776.236 464.925C776.236 464.449 776.17 464.025 776.039 463.652C775.911 463.279 775.721 462.984 775.469 462.768C775.217 462.551 774.902 462.443 774.526 462.443C774.146 462.443 773.826 462.551 773.567 462.768C773.312 462.984 773.118 463.279 772.987 463.652C772.859 464.025 772.795 464.449 772.795 464.925C772.795 465.401 772.859 465.825 772.987 466.198C773.118 466.571 773.312 466.866 773.567 467.082C773.826 467.295 774.146 467.402 774.526 467.402ZM782.287 464.27V469H780.018V460.818H782.18V462.262H782.276C782.457 461.786 782.761 461.409 783.187 461.132C783.613 460.852 784.13 460.712 784.737 460.712C785.305 460.712 785.801 460.836 786.223 461.085C786.646 461.333 786.975 461.688 787.209 462.15C787.443 462.608 787.56 463.155 787.56 463.79V469H785.291V464.195C785.295 463.695 785.167 463.304 784.908 463.023C784.649 462.739 784.292 462.597 783.837 462.597C783.532 462.597 783.262 462.663 783.027 462.794C782.797 462.926 782.616 463.118 782.484 463.37C782.356 463.618 782.291 463.918 782.287 464.27ZM793.078 469.16C792.236 469.16 791.512 468.989 790.904 468.648C790.301 468.304 789.835 467.817 789.509 467.189C789.182 466.557 789.019 465.809 789.019 464.946C789.019 464.105 789.182 463.366 789.509 462.73C789.835 462.095 790.295 461.599 790.888 461.244C791.485 460.889 792.184 460.712 792.987 460.712C793.527 460.712 794.029 460.799 794.494 460.973C794.963 461.143 795.372 461.401 795.72 461.745C796.071 462.089 796.345 462.523 796.54 463.045C796.735 463.563 796.833 464.17 796.833 464.866V465.49H789.924V464.083H794.697C794.697 463.757 794.626 463.467 794.484 463.215C794.342 462.963 794.145 462.766 793.893 462.624C793.644 462.478 793.355 462.406 793.024 462.406C792.68 462.406 792.374 462.485 792.108 462.645C791.845 462.801 791.639 463.013 791.49 463.279C791.341 463.542 791.265 463.835 791.261 464.158V465.495C791.261 465.9 791.336 466.25 791.485 466.544C791.638 466.839 791.852 467.066 792.129 467.226C792.406 467.386 792.735 467.466 793.115 467.466C793.367 467.466 793.598 467.43 793.807 467.359C794.017 467.288 794.196 467.182 794.345 467.04C794.494 466.898 794.608 466.724 794.686 466.518L796.785 466.656C796.678 467.161 796.46 467.601 796.13 467.977C795.803 468.35 795.381 468.641 794.862 468.851C794.347 469.057 793.752 469.16 793.078 469.16Z" fill="white"/>
<path d="M639.585 503V489.909H641.17V501.594H647.256V503H639.585ZM649.506 503V493.182H651.014V503H649.506ZM650.273 491.545C649.979 491.545 649.725 491.445 649.512 491.245C649.303 491.045 649.199 490.804 649.199 490.523C649.199 490.241 649.303 490.001 649.512 489.8C649.725 489.6 649.979 489.5 650.273 489.5C650.567 489.5 650.818 489.6 651.027 489.8C651.24 490.001 651.347 490.241 651.347 490.523C651.347 490.804 651.24 491.045 651.027 491.245C650.818 491.445 650.567 491.545 650.273 491.545ZM655.286 497.094V503H653.777V493.182H655.235V494.716H655.362C655.593 494.217 655.942 493.817 656.411 493.514C656.879 493.207 657.485 493.054 658.226 493.054C658.891 493.054 659.472 493.19 659.971 493.463C660.47 493.732 660.857 494.141 661.134 494.69C661.411 495.236 661.55 495.926 661.55 496.761V503H660.041V496.864C660.041 496.092 659.841 495.491 659.441 495.061C659.04 494.626 658.49 494.409 657.791 494.409C657.31 494.409 656.879 494.513 656.5 494.722C656.125 494.931 655.829 495.236 655.612 495.636C655.394 496.037 655.286 496.523 655.286 497.094ZM670.494 498.986V493.182H672.002V503H670.494V501.338H670.392C670.162 501.837 669.804 502.261 669.318 502.61C668.832 502.955 668.218 503.128 667.477 503.128C666.863 503.128 666.318 502.994 665.841 502.725C665.363 502.452 664.988 502.043 664.716 501.498C664.443 500.948 664.306 500.256 664.306 499.42V493.182H665.815V499.318C665.815 500.034 666.015 500.605 666.416 501.031C666.821 501.457 667.336 501.67 667.963 501.67C668.338 501.67 668.719 501.575 669.107 501.383C669.499 501.191 669.827 500.897 670.091 500.501C670.36 500.104 670.494 499.599 670.494 498.986ZM675.89 493.182L678.243 497.196L680.595 493.182H682.334L679.163 498.091L682.334 503H680.595L678.243 499.19L675.89 503H674.152L677.271 498.091L674.152 493.182H675.89Z" fill="black"/>
<path d="M875.964 490.091V501H874.643V491.476H874.58L871.916 493.244V491.902L874.643 490.091H875.964ZM879.123 501V492.818H880.338V494.097H880.444C880.615 493.66 880.89 493.321 881.27 493.079C881.65 492.834 882.106 492.712 882.639 492.712C883.179 492.712 883.628 492.834 883.987 493.079C884.349 493.321 884.631 493.66 884.833 494.097H884.919C885.128 493.674 885.442 493.338 885.862 493.09C886.281 492.838 886.783 492.712 887.369 492.712C888.1 492.712 888.699 492.941 889.164 493.399C889.629 493.853 889.862 494.562 889.862 495.524V501H888.605V495.524C888.605 494.92 888.44 494.489 888.109 494.23C887.779 493.971 887.39 493.841 886.943 493.841C886.368 493.841 885.922 494.015 885.606 494.363C885.29 494.707 885.132 495.144 885.132 495.673V501H883.853V495.396C883.853 494.931 883.702 494.556 883.401 494.272C883.099 493.985 882.71 493.841 882.234 493.841C881.907 493.841 881.602 493.928 881.318 494.102C881.037 494.276 880.81 494.517 880.636 494.826C880.466 495.132 880.38 495.485 880.38 495.886V501H879.123ZM898.787 501.192C898.268 501.192 897.798 501.094 897.375 500.899C896.953 500.7 896.617 500.414 896.368 500.041C896.12 499.665 895.996 499.21 895.996 498.678C895.996 498.209 896.088 497.829 896.273 497.538C896.457 497.243 896.704 497.012 897.013 496.845C897.322 496.678 897.663 496.554 898.036 496.472C898.412 496.387 898.79 496.32 899.17 496.27C899.667 496.206 900.07 496.158 900.379 496.126C900.692 496.091 900.919 496.032 901.061 495.95C901.207 495.869 901.28 495.727 901.28 495.524V495.482C901.28 494.956 901.136 494.548 900.848 494.256C900.564 493.965 900.133 493.82 899.554 493.82C898.954 493.82 898.483 493.951 898.142 494.214C897.801 494.477 897.562 494.757 897.423 495.055L896.23 494.629C896.443 494.132 896.727 493.745 897.082 493.468C897.441 493.187 897.831 492.992 898.254 492.882C898.68 492.768 899.099 492.712 899.511 492.712C899.774 492.712 900.076 492.744 900.417 492.808C900.761 492.868 901.093 492.994 901.413 493.186C901.736 493.377 902.004 493.667 902.217 494.054C902.43 494.441 902.537 494.96 902.537 495.609V501H901.28V499.892H901.216C901.131 500.07 900.988 500.26 900.79 500.462C900.591 500.664 900.326 500.837 899.996 500.979C899.666 501.121 899.263 501.192 898.787 501.192ZM898.979 500.062C899.476 500.062 899.895 499.965 900.236 499.77C900.58 499.574 900.839 499.322 901.013 499.013C901.191 498.704 901.28 498.379 901.28 498.038V496.888C901.226 496.952 901.109 497.01 900.928 497.064C900.751 497.113 900.545 497.158 900.31 497.197C900.079 497.232 899.854 497.264 899.634 497.293C899.417 497.317 899.241 497.339 899.106 497.357C898.78 497.399 898.474 497.468 898.19 497.564C897.91 497.657 897.682 497.797 897.508 497.985C897.338 498.17 897.253 498.422 897.253 498.741C897.253 499.178 897.414 499.509 897.737 499.732C898.064 499.952 898.478 500.062 898.979 500.062ZM908.134 504.239C907.527 504.239 907.005 504.161 906.568 504.004C906.131 503.852 905.767 503.649 905.476 503.397C905.188 503.148 904.959 502.882 904.789 502.598L905.79 501.895C905.904 502.044 906.047 502.214 906.222 502.406C906.396 502.602 906.633 502.77 906.935 502.912C907.241 503.058 907.64 503.131 908.134 503.131C908.794 503.131 909.339 502.971 909.769 502.651C910.199 502.332 910.414 501.831 910.414 501.149V499.487H910.307C910.215 499.636 910.083 499.821 909.913 500.041C909.746 500.258 909.505 500.451 909.188 500.622C908.876 500.789 908.453 500.872 907.921 500.872C907.26 500.872 906.667 500.716 906.142 500.403C905.62 500.091 905.206 499.636 904.9 499.04C904.599 498.443 904.448 497.719 904.448 496.866C904.448 496.028 904.595 495.299 904.89 494.677C905.185 494.052 905.595 493.569 906.12 493.228C906.646 492.884 907.253 492.712 907.942 492.712C908.475 492.712 908.897 492.8 909.21 492.978C909.526 493.152 909.767 493.351 909.934 493.575C910.105 493.795 910.236 493.976 910.328 494.118H910.456V492.818H911.671V501.234C911.671 501.938 911.511 502.509 911.191 502.95C910.875 503.393 910.449 503.718 909.913 503.924C909.38 504.134 908.787 504.239 908.134 504.239ZM908.091 499.743C908.595 499.743 909.022 499.627 909.37 499.397C909.718 499.166 909.982 498.834 910.163 498.401C910.344 497.967 910.435 497.449 910.435 496.845C910.435 496.256 910.346 495.735 910.169 495.284C909.991 494.833 909.728 494.48 909.38 494.224C909.032 493.969 908.603 493.841 908.091 493.841C907.559 493.841 907.115 493.976 906.759 494.246C906.408 494.516 906.143 494.878 905.966 495.332C905.792 495.787 905.705 496.291 905.705 496.845C905.705 497.413 905.794 497.916 905.971 498.353C906.152 498.786 906.419 499.127 906.77 499.375C907.125 499.62 907.566 499.743 908.091 499.743ZM917.296 501.17C916.557 501.17 915.909 500.995 915.351 500.643C914.797 500.292 914.364 499.8 914.052 499.168C913.743 498.536 913.588 497.797 913.588 496.952C913.588 496.099 913.743 495.355 914.052 494.72C914.364 494.084 914.797 493.591 915.351 493.239C915.909 492.887 916.557 492.712 917.296 492.712C918.034 492.712 918.681 492.887 919.235 493.239C919.792 493.591 920.225 494.084 920.534 494.72C920.847 495.355 921.003 496.099 921.003 496.952C921.003 497.797 920.847 498.536 920.534 499.168C920.225 499.8 919.792 500.292 919.235 500.643C918.681 500.995 918.034 501.17 917.296 501.17ZM917.296 500.041C917.857 500.041 918.318 499.897 918.681 499.61C919.043 499.322 919.311 498.944 919.485 498.475C919.659 498.006 919.746 497.499 919.746 496.952C919.746 496.405 919.659 495.895 919.485 495.423C919.311 494.951 919.043 494.569 918.681 494.278C918.318 493.987 917.857 493.841 917.296 493.841C916.735 493.841 916.273 493.987 915.911 494.278C915.549 494.569 915.28 494.951 915.106 495.423C914.932 495.895 914.845 496.405 914.845 496.952C914.845 497.499 914.932 498.006 915.106 498.475C915.28 498.944 915.549 499.322 915.911 499.61C916.273 499.897 916.735 500.041 917.296 500.041Z" fill="black" fill-opacity="0.7"/>
<rect x="732" y="486" width="92" height="20" rx="10" fill="#3EE677" fill-opacity="0.9"/>
<path d="M763.815 501H759.948V490.091H763.847C764.945 490.091 765.889 490.309 766.681 490.746C767.473 491.179 768.082 491.803 768.508 492.616C768.938 493.429 769.153 494.402 769.153 495.535C769.153 496.671 768.938 497.648 768.508 498.464C768.082 499.281 767.469 499.908 766.67 500.345C765.875 500.782 764.923 501 763.815 501ZM762.255 499.024H763.719C764.401 499.024 764.975 498.903 765.44 498.662C765.909 498.417 766.26 498.038 766.495 497.527C766.733 497.012 766.852 496.348 766.852 495.535C766.852 494.729 766.733 494.07 766.495 493.559C766.26 493.047 765.911 492.671 765.445 492.429C764.98 492.188 764.407 492.067 763.725 492.067H762.255V499.024ZM774.515 501.16C773.688 501.16 772.972 500.984 772.369 500.632C771.769 500.277 771.305 499.784 770.978 499.152C770.652 498.516 770.488 497.779 770.488 496.941C770.488 496.096 770.652 495.357 770.978 494.725C771.305 494.089 771.769 493.596 772.369 493.244C772.972 492.889 773.688 492.712 774.515 492.712C775.343 492.712 776.057 492.889 776.657 493.244C777.26 493.596 777.726 494.089 778.052 494.725C778.379 495.357 778.542 496.096 778.542 496.941C778.542 497.779 778.379 498.516 778.052 499.152C777.726 499.784 777.26 500.277 776.657 500.632C776.057 500.984 775.343 501.16 774.515 501.16ZM774.526 499.402C774.902 499.402 775.217 499.295 775.469 499.082C775.721 498.866 775.911 498.571 776.039 498.198C776.17 497.825 776.236 497.401 776.236 496.925C776.236 496.449 776.17 496.025 776.039 495.652C775.911 495.279 775.721 494.984 775.469 494.768C775.217 494.551 774.902 494.443 774.526 494.443C774.146 494.443 773.826 494.551 773.567 494.768C773.312 494.984 773.118 495.279 772.987 495.652C772.859 496.025 772.795 496.449 772.795 496.925C772.795 497.401 772.859 497.825 772.987 498.198C773.118 498.571 773.312 498.866 773.567 499.082C773.826 499.295 774.146 499.402 774.526 499.402ZM782.287 496.27V501H780.018V492.818H782.18V494.262H782.276C782.457 493.786 782.761 493.409 783.187 493.132C783.613 492.852 784.13 492.712 784.737 492.712C785.305 492.712 785.801 492.836 786.223 493.085C786.646 493.333 786.975 493.688 787.209 494.15C787.443 494.608 787.56 495.155 787.56 495.79V501H785.291V496.195C785.295 495.695 785.167 495.304 784.908 495.023C784.649 494.739 784.292 494.597 783.837 494.597C783.532 494.597 783.262 494.663 783.027 494.794C782.797 494.926 782.616 495.118 782.484 495.37C782.356 495.618 782.291 495.918 782.287 496.27ZM793.078 501.16C792.236 501.16 791.512 500.989 790.904 500.648C790.301 500.304 789.835 499.817 789.509 499.189C789.182 498.557 789.019 497.809 789.019 496.946C789.019 496.105 789.182 495.366 789.509 494.73C789.835 494.095 790.295 493.599 790.888 493.244C791.485 492.889 792.184 492.712 792.987 492.712C793.527 492.712 794.029 492.799 794.494 492.973C794.963 493.143 795.372 493.401 795.72 493.745C796.071 494.089 796.345 494.523 796.54 495.045C796.735 495.563 796.833 496.17 796.833 496.866V497.49H789.924V496.083H794.697C794.697 495.757 794.626 495.467 794.484 495.215C794.342 494.963 794.145 494.766 793.893 494.624C793.644 494.478 793.355 494.406 793.024 494.406C792.68 494.406 792.374 494.485 792.108 494.645C791.845 494.801 791.639 495.013 791.49 495.279C791.341 495.542 791.265 495.835 791.261 496.158V497.495C791.261 497.9 791.336 498.25 791.485 498.544C791.638 498.839 791.852 499.066 792.129 499.226C792.406 499.386 792.735 499.466 793.115 499.466C793.367 499.466 793.598 499.43 793.807 499.359C794.017 499.288 794.196 499.182 794.345 499.04C794.494 498.898 794.608 498.724 794.686 498.518L796.785 498.656C796.678 499.161 796.46 499.601 796.13 499.977C795.803 500.35 795.381 500.641 794.862 500.851C794.347 501.057 793.752 501.16 793.078 501.16Z" fill="white"/>
<path d="M639.585 522.909H641.477L645.926 533.776H646.08L650.528 522.909H652.42V536H650.938V526.054H650.81L646.719 536H645.287L641.196 526.054H641.068V536H639.585V522.909ZM658.284 536.23C657.661 536.23 657.097 536.113 656.59 535.879C656.083 535.64 655.68 535.297 655.382 534.849C655.083 534.398 654.934 533.852 654.934 533.213C654.934 532.651 655.045 532.195 655.267 531.845C655.488 531.491 655.784 531.214 656.155 531.014C656.526 530.814 656.935 530.665 657.382 530.567C657.834 530.464 658.288 530.384 658.744 530.324C659.34 530.247 659.824 530.19 660.195 530.151C660.57 530.109 660.843 530.038 661.013 529.94C661.188 529.842 661.275 529.672 661.275 529.429V529.378C661.275 528.747 661.102 528.257 660.757 527.908C660.416 527.558 659.899 527.384 659.204 527.384C658.484 527.384 657.919 527.541 657.51 527.857C657.101 528.172 656.813 528.509 656.647 528.866L655.215 528.355C655.471 527.759 655.812 527.294 656.238 526.962C656.669 526.625 657.137 526.391 657.644 526.259C658.156 526.122 658.659 526.054 659.153 526.054C659.468 526.054 659.83 526.092 660.24 526.169C660.653 526.241 661.051 526.393 661.435 526.623C661.823 526.853 662.144 527.2 662.4 527.665C662.656 528.129 662.784 528.751 662.784 529.531V536H661.275V534.67H661.198C661.096 534.884 660.926 535.112 660.687 535.354C660.448 535.597 660.131 535.804 659.735 535.974C659.338 536.145 658.855 536.23 658.284 536.23ZM658.514 534.875C659.11 534.875 659.613 534.758 660.022 534.523C660.436 534.289 660.747 533.987 660.955 533.616C661.169 533.245 661.275 532.855 661.275 532.446V531.065C661.211 531.142 661.07 531.212 660.853 531.276C660.64 531.336 660.393 531.389 660.112 531.436C659.835 531.479 659.564 531.517 659.3 531.551C659.04 531.581 658.829 531.607 658.667 531.628C658.275 531.679 657.909 531.762 657.568 531.877C657.231 531.988 656.958 532.156 656.749 532.382C656.545 532.604 656.443 532.906 656.443 533.29C656.443 533.814 656.637 534.21 657.024 534.479C657.416 534.743 657.913 534.875 658.514 534.875ZM669.526 536.205C668.605 536.205 667.813 535.987 667.148 535.553C666.483 535.118 665.972 534.519 665.614 533.756C665.256 532.994 665.077 532.122 665.077 531.142C665.077 530.145 665.26 529.265 665.626 528.502C665.997 527.735 666.513 527.136 667.173 526.706C667.838 526.271 668.614 526.054 669.5 526.054C670.19 526.054 670.812 526.182 671.366 526.438C671.92 526.693 672.374 527.051 672.728 527.511C673.082 527.972 673.301 528.509 673.386 529.122H671.878C671.763 528.675 671.507 528.278 671.111 527.933C670.719 527.584 670.19 527.409 669.526 527.409C668.938 527.409 668.422 527.562 667.979 527.869C667.54 528.172 667.197 528.6 666.95 529.154C666.707 529.704 666.585 530.349 666.585 531.091C666.585 531.849 666.705 532.51 666.943 533.072C667.186 533.635 667.527 534.072 667.966 534.383C668.409 534.694 668.929 534.849 669.526 534.849C669.918 534.849 670.273 534.781 670.593 534.645C670.913 534.509 671.183 534.312 671.405 534.057C671.626 533.801 671.784 533.494 671.878 533.136H673.386C673.301 533.716 673.09 534.238 672.754 534.702C672.421 535.163 671.98 535.529 671.43 535.802C670.885 536.07 670.25 536.205 669.526 536.205ZM691.904 529.455C691.904 530.835 691.655 532.028 691.156 533.034C690.658 534.04 689.974 534.815 689.104 535.361C688.235 535.906 687.242 536.179 686.126 536.179C685.009 536.179 684.016 535.906 683.147 535.361C682.278 534.815 681.594 534.04 681.095 533.034C680.597 532.028 680.347 530.835 680.347 529.455C680.347 528.074 680.597 526.881 681.095 525.875C681.594 524.869 682.278 524.094 683.147 523.548C684.016 523.003 685.009 522.73 686.126 522.73C687.242 522.73 688.235 523.003 689.104 523.548C689.974 524.094 690.658 524.869 691.156 525.875C691.655 526.881 691.904 528.074 691.904 529.455ZM690.37 529.455C690.37 528.321 690.18 527.364 689.801 526.585C689.426 525.805 688.917 525.214 688.273 524.814C687.634 524.413 686.918 524.213 686.126 524.213C685.333 524.213 684.615 524.413 683.972 524.814C683.332 525.214 682.823 525.805 682.444 526.585C682.069 527.364 681.881 528.321 681.881 529.455C681.881 530.588 682.069 531.545 682.444 532.325C682.823 533.104 683.332 533.695 683.972 534.095C684.615 534.496 685.333 534.696 686.126 534.696C686.918 534.696 687.634 534.496 688.273 534.095C688.917 533.695 689.426 533.104 689.801 532.325C690.18 531.545 690.37 530.588 690.37 529.455ZM701.32 528.381L699.964 528.764C699.879 528.538 699.754 528.319 699.587 528.106C699.425 527.888 699.204 527.71 698.923 527.569C698.641 527.428 698.281 527.358 697.842 527.358C697.241 527.358 696.741 527.496 696.34 527.773C695.944 528.046 695.746 528.393 695.746 528.815C695.746 529.19 695.882 529.487 696.155 529.704C696.428 529.921 696.854 530.102 697.433 530.247L698.891 530.605C699.768 530.818 700.423 531.144 700.853 531.583C701.283 532.018 701.499 532.578 701.499 533.264C701.499 533.827 701.337 534.33 701.013 534.773C700.693 535.216 700.246 535.565 699.67 535.821C699.095 536.077 698.426 536.205 697.663 536.205C696.662 536.205 695.833 535.987 695.177 535.553C694.521 535.118 694.105 534.483 693.93 533.648L695.362 533.29C695.499 533.818 695.756 534.214 696.136 534.479C696.519 534.743 697.02 534.875 697.638 534.875C698.341 534.875 698.899 534.726 699.312 534.428C699.73 534.125 699.939 533.763 699.939 533.341C699.939 533 699.82 532.714 699.581 532.484C699.342 532.25 698.976 532.075 698.482 531.96L696.845 531.577C695.946 531.364 695.286 531.033 694.864 530.586C694.446 530.134 694.237 529.57 694.237 528.892C694.237 528.338 694.393 527.848 694.704 527.422C695.019 526.996 695.447 526.661 695.989 526.418C696.534 526.175 697.152 526.054 697.842 526.054C698.814 526.054 699.577 526.267 700.131 526.693C700.689 527.119 701.085 527.682 701.32 528.381Z" fill="black"/>
<path d="M895.838 528.737V529.909H891.065V528.737H895.838ZM902.737 528.737V529.909H897.965V528.737H902.737Z" fill="black" fill-opacity="0.7"/>
<rect x="732" y="519" width="92" height="20" rx="10" fill="#E8EC33"/>
<path d="M744.948 534V523.091H752.171V524.993H747.255V527.592H751.692V529.494H747.255V534H744.948ZM753.68 534V525.818H755.949V534H753.68ZM754.82 524.763C754.483 524.763 754.193 524.652 753.952 524.428C753.714 524.201 753.595 523.929 753.595 523.613C753.595 523.3 753.714 523.032 753.952 522.809C754.193 522.581 754.483 522.468 754.82 522.468C755.157 522.468 755.445 522.581 755.683 522.809C755.924 523.032 756.045 523.3 756.045 523.613C756.045 523.929 755.924 524.201 755.683 524.428C755.445 524.652 755.157 524.763 754.82 524.763ZM760.036 529.27V534H757.767V525.818H759.93V527.262H760.025C760.206 526.786 760.51 526.409 760.936 526.132C761.362 525.852 761.879 525.712 762.486 525.712C763.055 525.712 763.55 525.836 763.972 526.085C764.395 526.333 764.724 526.688 764.958 527.15C765.192 527.608 765.309 528.155 765.309 528.79V534H763.04V529.195C763.044 528.695 762.916 528.304 762.657 528.023C762.398 527.739 762.041 527.597 761.586 527.597C761.281 527.597 761.011 527.663 760.776 527.794C760.546 527.926 760.365 528.118 760.233 528.37C760.105 528.618 760.04 528.918 760.036 529.27ZM767.098 534V525.818H769.367V534H767.098ZM768.238 524.763C767.9 524.763 767.611 524.652 767.37 524.428C767.132 524.201 767.013 523.929 767.013 523.613C767.013 523.3 767.132 523.032 767.37 522.809C767.611 522.581 767.9 522.468 768.238 522.468C768.575 522.468 768.863 522.581 769.101 522.809C769.342 523.032 769.463 523.3 769.463 523.613C769.463 523.929 769.342 524.201 769.101 524.428C768.863 524.652 768.575 524.763 768.238 524.763ZM777.992 528.151L775.915 528.279C775.879 528.102 775.803 527.942 775.686 527.8C775.569 527.654 775.414 527.539 775.222 527.453C775.034 527.365 774.809 527.32 774.546 527.32C774.194 527.32 773.898 527.395 773.656 527.544C773.415 527.69 773.294 527.885 773.294 528.13C773.294 528.325 773.372 528.49 773.529 528.625C773.685 528.76 773.953 528.869 774.333 528.95L775.814 529.249C776.609 529.412 777.202 529.675 777.593 530.037C777.983 530.399 778.179 530.875 778.179 531.464C778.179 532.001 778.021 532.471 777.705 532.876C777.392 533.281 776.963 533.597 776.416 533.824C775.872 534.048 775.246 534.16 774.535 534.16C773.452 534.16 772.589 533.934 771.947 533.483C771.307 533.029 770.933 532.411 770.823 531.63L773.055 531.512C773.122 531.843 773.285 532.095 773.545 532.269C773.804 532.439 774.136 532.525 774.541 532.525C774.938 532.525 775.258 532.448 775.499 532.295C775.744 532.139 775.869 531.939 775.872 531.694C775.869 531.488 775.782 531.319 775.611 531.188C775.441 531.053 775.178 530.95 774.823 530.879L773.406 530.596C772.607 530.436 772.012 530.159 771.622 529.765C771.235 529.371 771.041 528.869 771.041 528.258C771.041 527.732 771.183 527.279 771.467 526.9C771.755 526.52 772.158 526.227 772.676 526.021C773.198 525.815 773.809 525.712 774.509 525.712C775.542 525.712 776.355 525.93 776.948 526.367C777.545 526.804 777.893 527.398 777.992 528.151ZM781.877 529.27V534H779.608V523.091H781.813V527.262H781.909C782.093 526.779 782.392 526.401 782.804 526.127C783.216 525.85 783.732 525.712 784.354 525.712C784.922 525.712 785.417 525.836 785.84 526.085C786.266 526.33 786.596 526.683 786.831 527.145C787.069 527.603 787.186 528.151 787.182 528.79V534H784.913V529.195C784.917 528.691 784.789 528.299 784.53 528.018C784.274 527.738 783.915 527.597 783.454 527.597C783.145 527.597 782.871 527.663 782.633 527.794C782.399 527.926 782.214 528.118 782.079 528.37C781.948 528.618 781.88 528.918 781.877 529.27ZM788.968 534V525.818H791.237V534H788.968ZM790.108 524.763C789.771 524.763 789.481 524.652 789.24 524.428C789.002 524.201 788.883 523.929 788.883 523.613C788.883 523.3 789.002 523.032 789.24 522.809C789.481 522.581 789.771 522.468 790.108 522.468C790.445 522.468 790.733 522.581 790.971 522.809C791.212 523.032 791.333 523.3 791.333 523.613C791.333 523.929 791.212 524.201 790.971 524.428C790.733 524.652 790.445 524.763 790.108 524.763ZM795.324 529.27V534H793.055V525.818H795.218V527.262H795.313C795.495 526.786 795.798 526.409 796.224 526.132C796.65 525.852 797.167 525.712 797.774 525.712C798.343 525.712 798.838 525.836 799.261 526.085C799.683 526.333 800.012 526.688 800.246 527.15C800.48 527.608 800.598 528.155 800.598 528.79V534H798.328V529.195C798.332 528.695 798.204 528.304 797.945 528.023C797.686 527.739 797.329 527.597 796.874 527.597C796.569 527.597 796.299 527.663 796.065 527.794C795.834 527.926 795.653 528.118 795.521 528.37C795.393 528.618 795.328 528.918 795.324 529.27ZM806.072 537.239C805.337 537.239 804.707 537.137 804.181 536.935C803.659 536.736 803.244 536.464 802.935 536.12C802.626 535.776 802.425 535.388 802.333 534.959L804.431 534.676C804.495 534.84 804.597 534.993 804.735 535.135C804.874 535.277 805.056 535.39 805.284 535.475C805.515 535.564 805.795 535.609 806.125 535.609C806.619 535.609 807.026 535.488 807.345 535.246C807.668 535.009 807.83 534.609 807.83 534.048V532.551H807.734C807.635 532.778 807.485 532.993 807.287 533.196C807.088 533.398 806.832 533.563 806.52 533.691C806.207 533.819 805.834 533.883 805.401 533.883C804.787 533.883 804.227 533.741 803.723 533.457C803.222 533.169 802.823 532.73 802.525 532.141C802.23 531.548 802.082 530.799 802.082 529.893C802.082 528.966 802.233 528.192 802.535 527.571C802.837 526.949 803.238 526.484 803.739 526.175C804.243 525.866 804.795 525.712 805.396 525.712C805.854 525.712 806.237 525.79 806.546 525.946C806.855 526.099 807.104 526.29 807.292 526.521C807.484 526.749 807.631 526.972 807.734 527.192H807.819V525.818H810.072V534.08C810.072 534.776 809.902 535.358 809.561 535.827C809.22 536.296 808.748 536.647 808.144 536.882C807.544 537.12 806.853 537.239 806.072 537.239ZM806.12 532.178C806.486 532.178 806.795 532.088 807.047 531.907C807.303 531.722 807.498 531.459 807.633 531.118C807.771 530.774 807.841 530.362 807.841 529.882C807.841 529.403 807.773 528.988 807.638 528.636C807.503 528.281 807.308 528.006 807.052 527.81C806.797 527.615 806.486 527.517 806.12 527.517C805.747 527.517 805.433 527.619 805.177 527.821C804.922 528.02 804.728 528.297 804.597 528.652C804.465 529.007 804.4 529.417 804.4 529.882C804.4 530.355 804.465 530.763 804.597 531.108C804.732 531.449 804.925 531.713 805.177 531.901C805.433 532.086 805.747 532.178 806.12 532.178Z" fill="white"/>
</g>
<defs>
<filter id="filter0_d_26_3" x="16" y="245" width="361" height="361" filterUnits="userSpaceOnUse" color-interpolation-filters="sRGB">
<feFlood flood-opacity="0" result="BackgroundImageFix"/>
<feColorMatrix in="SourceAlpha" type="matrix" values="0 0 0 0 0 0 0 0 0 0 0 0 0 0 0 0 0 0 127 0" result="hardAlpha"/>
<feOffset dx="25" dy="23"/>
<feGaussianBlur stdDeviation="23.5"/>
<feComposite in2="hardAlpha" operator="out"/>
<feColorMatrix type="matrix" values="0 0 0 0 0 0 0 0 0 0 0 0 0 0 0 0 0 0 0.1 0"/>
<feBlend mode="normal" in2="BackgroundImageFix" result="effect1_dropShadow_26_3"/>
<feBlend mode="normal" in="SourceGraphic" in2="effect1_dropShadow_26_3" result="shape"/>
</filter>
<filter id="filter1_d_26_3" x="124.185" y="260.999" width="227.951" height="306.636" filterUnits="userSpaceOnUse" color-interpolation-filters="sRGB">
<feFlood flood-opacity="0" result="BackgroundImageFix"/>
<feColorMatrix in="SourceAlpha" type="matrix" values="0 0 0 0 0 0 0 0 0 0 0 0 0 0 0 0 0 0 127 0" result="hardAlpha"/>
<feOffset dx="16" dy="17"/>
<feGaussianBlur stdDeviation="6.5"/>
<feComposite in2="hardAlpha" operator="out"/>
<feColorMatrix type="matrix" values="0 0 0 0 0 0 0 0 0 0 0 0 0 0 0 0 0 0 0.3 0"/>
<feBlend mode="normal" in2="BackgroundImageFix" result="effect1_dropShadow_26_3"/>
<feBlend mode="normal" in="SourceGraphic" in2="effect1_dropShadow_26_3" result="shape"/>
</filter>
<clipPath id="clip0_26_3">
<rect width="982" height="595" fill="white"/>
</clipPath>
</defs>
</svg>
