<svg width="1000" height="446" viewBox="0 0 1000 446" fill="none" xmlns="http://www.w3.org/2000/svg">
<rect width="849" height="88" rx="14" transform="matrix(1 0 0 -1 37 111)" fill="white"/>
<path d="M802.899 54.1289V72H800.641V56.9487L796.087 58.6089V56.5703L802.545 54.1289H802.899ZM820.697 61.6973V64.4072C820.697 65.8639 820.567 67.0928 820.306 68.0938C820.046 69.0947 819.671 69.9004 819.183 70.5107C818.695 71.1211 818.105 71.5646 817.413 71.8413C816.729 72.1099 815.956 72.2441 815.094 72.2441C814.41 72.2441 813.779 72.1587 813.202 71.9878C812.624 71.8169 812.103 71.5443 811.639 71.1699C811.183 70.7874 810.793 70.291 810.467 69.6807C810.142 69.0703 809.894 68.3298 809.723 67.459C809.552 66.5882 809.466 65.571 809.466 64.4072V61.6973C809.466 60.2406 809.597 59.0199 809.857 58.0352C810.125 57.0505 810.504 56.2611 810.992 55.667C811.48 55.0648 812.066 54.6335 812.75 54.373C813.442 54.1126 814.215 53.9824 815.069 53.9824C815.761 53.9824 816.396 54.0679 816.974 54.2388C817.56 54.4015 818.08 54.666 818.536 55.0322C818.992 55.3903 819.378 55.8704 819.696 56.4727C820.021 57.0667 820.27 57.7951 820.44 58.6577C820.611 59.5203 820.697 60.5335 820.697 61.6973ZM818.426 64.7734V61.3188C818.426 60.5213 818.377 59.8215 818.28 59.2192C818.19 58.6089 818.056 58.0881 817.877 57.6567C817.698 57.2254 817.47 56.8755 817.193 56.6069C816.925 56.3384 816.611 56.1431 816.253 56.021C815.903 55.8908 815.509 55.8257 815.069 55.8257C814.532 55.8257 814.056 55.9274 813.641 56.1309C813.226 56.3262 812.876 56.6395 812.591 57.0708C812.315 57.5021 812.103 58.0677 811.957 58.7676C811.81 59.4674 811.737 60.3179 811.737 61.3188V64.7734C811.737 65.571 811.782 66.2749 811.871 66.8853C811.969 67.4956 812.111 68.0246 812.298 68.4722C812.486 68.9116 812.713 69.2738 812.982 69.5586C813.25 69.8434 813.56 70.055 813.91 70.1934C814.268 70.3236 814.662 70.3887 815.094 70.3887C815.647 70.3887 816.131 70.2829 816.546 70.0713C816.961 69.8597 817.307 69.5301 817.584 69.0825C817.869 68.6268 818.08 68.0449 818.219 67.3369C818.357 66.6208 818.426 65.7663 818.426 64.7734ZM823.407 58.5845V57.6445C823.407 56.9691 823.553 56.3547 823.846 55.8013C824.139 55.2479 824.558 54.8044 825.104 54.4707C825.649 54.137 826.296 53.9702 827.044 53.9702C827.809 53.9702 828.46 54.137 828.998 54.4707C829.543 54.8044 829.962 55.2479 830.255 55.8013C830.548 56.3547 830.694 56.9691 830.694 57.6445V58.5845C830.694 59.2437 830.548 59.8499 830.255 60.4033C829.97 60.9567 829.555 61.4002 829.01 61.7339C828.473 62.0675 827.826 62.2344 827.069 62.2344C826.312 62.2344 825.657 62.0675 825.104 61.7339C824.558 61.4002 824.139 60.9567 823.846 60.4033C823.553 59.8499 823.407 59.2437 823.407 58.5845ZM825.104 57.6445V58.5845C825.104 58.9588 825.173 59.3128 825.311 59.6465C825.458 59.9801 825.677 60.2528 825.97 60.4644C826.263 60.6678 826.629 60.7695 827.069 60.7695C827.508 60.7695 827.87 60.6678 828.155 60.4644C828.44 60.2528 828.652 59.9801 828.79 59.6465C828.928 59.3128 828.998 58.9588 828.998 58.5845V57.6445C828.998 57.262 828.924 56.904 828.778 56.5703C828.639 56.2285 828.424 55.9559 828.131 55.7524C827.846 55.5409 827.484 55.4351 827.044 55.4351C826.613 55.4351 826.251 55.5409 825.958 55.7524C825.673 55.9559 825.458 56.2285 825.311 56.5703C825.173 56.904 825.104 57.262 825.104 57.6445ZM832.062 68.5942V67.6421C832.062 66.9748 832.208 66.3644 832.501 65.811C832.794 65.2576 833.213 64.8141 833.758 64.4805C834.304 64.1468 834.951 63.98 835.699 63.98C836.464 63.98 837.115 64.1468 837.652 64.4805C838.198 64.8141 838.617 65.2576 838.91 65.811C839.203 66.3644 839.349 66.9748 839.349 67.6421V68.5942C839.349 69.2616 839.203 69.8719 838.91 70.4253C838.625 70.9787 838.21 71.4222 837.665 71.7559C837.127 72.0895 836.48 72.2563 835.724 72.2563C834.967 72.2563 834.316 72.0895 833.771 71.7559C833.225 71.4222 832.802 70.9787 832.501 70.4253C832.208 69.8719 832.062 69.2616 832.062 68.5942ZM833.758 67.6421V68.5942C833.758 68.9686 833.827 69.3267 833.966 69.6685C834.112 70.0021 834.332 70.2747 834.625 70.4863C834.918 70.6898 835.284 70.7915 835.724 70.7915C836.163 70.7915 836.525 70.6898 836.81 70.4863C837.103 70.2747 837.319 70.0021 837.457 69.6685C837.595 69.3348 837.665 68.9767 837.665 68.5942V67.6421C837.665 67.2596 837.591 66.9015 837.445 66.5679C837.306 66.2342 837.091 65.9657 836.798 65.7622C836.513 65.5506 836.147 65.4448 835.699 65.4448C835.268 65.4448 834.906 65.5506 834.613 65.7622C834.328 65.9657 834.112 66.2342 833.966 66.5679C833.827 66.9015 833.758 67.2596 833.758 67.6421ZM836.261 56.7534L827.582 70.645L826.312 69.8394L834.991 55.9478L836.261 56.7534Z" fill="black"/>
<path d="M70.6406 55.25H78.1719C79.8802 55.25 81.3229 55.5104 82.5 56.0312C83.6875 56.5521 84.5885 57.3229 85.2031 58.3438C85.8281 59.3542 86.1406 60.599 86.1406 62.0781C86.1406 63.1198 85.9271 64.0729 85.5 64.9375C85.0833 65.7917 84.4792 66.5208 83.6875 67.125C82.9062 67.7188 81.9688 68.1615 80.875 68.4531L80.0312 68.7812H72.9531L72.9219 66.3281H78.2656C79.349 66.3281 80.25 66.1406 80.9688 65.7656C81.6875 65.3802 82.2292 64.8646 82.5938 64.2188C82.9583 63.5729 83.1406 62.8594 83.1406 62.0781C83.1406 61.2031 82.9688 60.4375 82.625 59.7812C82.2812 59.125 81.7396 58.6198 81 58.2656C80.2708 57.901 79.3281 57.7188 78.1719 57.7188H73.6562V78H70.6406V55.25ZM83.9375 78L78.4062 67.6875L81.5469 67.6719L87.1562 77.8125V78H83.9375ZM98.7812 57.2656L91.25 78H88.1719L96.8438 55.25H98.8281L98.7812 57.2656ZM105.094 78L97.5469 57.2656L97.5 55.25H99.4844L108.188 78H105.094ZM104.703 69.5781V72.0469H91.9219V69.5781H104.703ZM112.188 55.25H115.109L122.562 73.7969L130 55.25H132.938L123.688 78H121.406L112.188 55.25ZM111.234 55.25H113.812L114.234 69.125V78H111.234V55.25ZM131.297 55.25H133.875V78H130.875V69.125L131.297 55.25Z" fill="black"/>
<rect x="166" y="54" width="553" height="24" rx="12" fill="#D9D9D9" fill-opacity="0.44"/>
<rect x="166" y="54" width="50" height="24" rx="12" fill="#B483F2"/>
<rect width="849" height="88" rx="14" transform="matrix(1 0 0 -1 37 236)" fill="white"/>
<path d="M807.123 195.145V197H795.489V195.376L801.312 188.895C802.028 188.097 802.582 187.422 802.972 186.868C803.371 186.307 803.648 185.806 803.802 185.367C803.965 184.919 804.046 184.463 804.046 184C804.046 183.414 803.924 182.885 803.68 182.413C803.444 181.932 803.094 181.55 802.63 181.265C802.167 180.98 801.605 180.838 800.946 180.838C800.156 180.838 799.497 180.993 798.968 181.302C798.447 181.603 798.057 182.026 797.796 182.571C797.536 183.117 797.406 183.743 797.406 184.451H795.147C795.147 183.45 795.367 182.535 795.807 181.705C796.246 180.875 796.897 180.215 797.76 179.727C798.622 179.231 799.684 178.982 800.946 178.982C802.069 178.982 803.029 179.182 803.827 179.581C804.624 179.971 805.235 180.525 805.658 181.241C806.089 181.949 806.305 182.779 806.305 183.731C806.305 184.252 806.215 184.781 806.036 185.318C805.865 185.847 805.625 186.376 805.316 186.905C805.015 187.434 804.661 187.955 804.254 188.467C803.855 188.98 803.428 189.485 802.972 189.981L798.211 195.145H807.123ZM821.185 195.145V197H809.552V195.376L815.375 188.895C816.091 188.097 816.644 187.422 817.035 186.868C817.433 186.307 817.71 185.806 817.865 185.367C818.028 184.919 818.109 184.463 818.109 184C818.109 183.414 817.987 182.885 817.743 182.413C817.507 181.932 817.157 181.55 816.693 181.265C816.229 180.98 815.667 180.838 815.008 180.838C814.219 180.838 813.56 180.993 813.031 181.302C812.51 181.603 812.119 182.026 811.859 182.571C811.598 183.117 811.468 183.743 811.468 184.451H809.21C809.21 183.45 809.43 182.535 809.869 181.705C810.309 180.875 810.96 180.215 811.822 179.727C812.685 179.231 813.747 178.982 815.008 178.982C816.131 178.982 817.092 179.182 817.889 179.581C818.687 179.971 819.297 180.525 819.72 181.241C820.152 181.949 820.367 182.779 820.367 183.731C820.367 184.252 820.278 184.781 820.099 185.318C819.928 185.847 819.688 186.376 819.378 186.905C819.077 187.434 818.723 187.955 818.316 188.467C817.918 188.98 817.49 189.485 817.035 189.981L812.274 195.145H821.185ZM823.407 183.584V182.645C823.407 181.969 823.553 181.355 823.846 180.801C824.139 180.248 824.558 179.804 825.104 179.471C825.649 179.137 826.296 178.97 827.044 178.97C827.809 178.97 828.46 179.137 828.998 179.471C829.543 179.804 829.962 180.248 830.255 180.801C830.548 181.355 830.694 181.969 830.694 182.645V183.584C830.694 184.244 830.548 184.85 830.255 185.403C829.97 185.957 829.555 186.4 829.01 186.734C828.473 187.068 827.826 187.234 827.069 187.234C826.312 187.234 825.657 187.068 825.104 186.734C824.558 186.4 824.139 185.957 823.846 185.403C823.553 184.85 823.407 184.244 823.407 183.584ZM825.104 182.645V183.584C825.104 183.959 825.173 184.313 825.311 184.646C825.458 184.98 825.677 185.253 825.97 185.464C826.263 185.668 826.629 185.77 827.069 185.77C827.508 185.77 827.87 185.668 828.155 185.464C828.44 185.253 828.652 184.98 828.79 184.646C828.928 184.313 828.998 183.959 828.998 183.584V182.645C828.998 182.262 828.924 181.904 828.778 181.57C828.639 181.229 828.424 180.956 828.131 180.752C827.846 180.541 827.484 180.435 827.044 180.435C826.613 180.435 826.251 180.541 825.958 180.752C825.673 180.956 825.458 181.229 825.311 181.57C825.173 181.904 825.104 182.262 825.104 182.645ZM832.062 193.594V192.642C832.062 191.975 832.208 191.364 832.501 190.811C832.794 190.258 833.213 189.814 833.758 189.48C834.304 189.147 834.951 188.98 835.699 188.98C836.464 188.98 837.115 189.147 837.652 189.48C838.198 189.814 838.617 190.258 838.91 190.811C839.203 191.364 839.349 191.975 839.349 192.642V193.594C839.349 194.262 839.203 194.872 838.91 195.425C838.625 195.979 838.21 196.422 837.665 196.756C837.127 197.09 836.48 197.256 835.724 197.256C834.967 197.256 834.316 197.09 833.771 196.756C833.225 196.422 832.802 195.979 832.501 195.425C832.208 194.872 832.062 194.262 832.062 193.594ZM833.758 192.642V193.594C833.758 193.969 833.827 194.327 833.966 194.668C834.112 195.002 834.332 195.275 834.625 195.486C834.918 195.69 835.284 195.792 835.724 195.792C836.163 195.792 836.525 195.69 836.81 195.486C837.103 195.275 837.319 195.002 837.457 194.668C837.595 194.335 837.665 193.977 837.665 193.594V192.642C837.665 192.26 837.591 191.902 837.445 191.568C837.306 191.234 837.091 190.966 836.798 190.762C836.513 190.551 836.147 190.445 835.699 190.445C835.268 190.445 834.906 190.551 834.613 190.762C834.328 190.966 834.112 191.234 833.966 191.568C833.827 191.902 833.758 192.26 833.758 192.642ZM836.261 181.753L827.582 195.645L826.312 194.839L834.991 180.948L836.261 181.753Z" fill="black"/>
<path d="M84.375 195.766H87.375C87.2188 197.203 86.8073 198.49 86.1406 199.625C85.474 200.76 84.5312 201.661 83.3125 202.328C82.0938 202.984 80.5729 203.312 78.75 203.312C77.4167 203.312 76.2031 203.062 75.1094 202.562C74.026 202.062 73.0938 201.354 72.3125 200.438C71.5312 199.51 70.9271 198.401 70.5 197.109C70.0833 195.807 69.875 194.359 69.875 192.766V190.5C69.875 188.906 70.0833 187.464 70.5 186.172C70.9271 184.87 71.5365 183.755 72.3281 182.828C73.1302 181.901 74.0938 181.188 75.2188 180.688C76.3438 180.188 77.6094 179.938 79.0156 179.938C80.7344 179.938 82.1875 180.26 83.375 180.906C84.5625 181.552 85.4844 182.448 86.1406 183.594C86.8073 184.729 87.2188 186.047 87.375 187.547H84.375C84.2292 186.484 83.9583 185.573 83.5625 184.812C83.1667 184.042 82.6042 183.448 81.875 183.031C81.1458 182.615 80.1927 182.406 79.0156 182.406C78.0052 182.406 77.1146 182.599 76.3438 182.984C75.5833 183.37 74.9427 183.917 74.4219 184.625C73.9115 185.333 73.526 186.182 73.2656 187.172C73.0052 188.161 72.875 189.26 72.875 190.469V192.766C72.875 193.88 72.9896 194.927 73.2188 195.906C73.4583 196.885 73.8177 197.745 74.2969 198.484C74.776 199.224 75.3854 199.807 76.125 200.234C76.8646 200.651 77.7396 200.859 78.75 200.859C80.0312 200.859 81.0521 200.656 81.8125 200.25C82.5729 199.844 83.1458 199.26 83.5312 198.5C83.9271 197.74 84.2083 196.828 84.375 195.766ZM99.875 194.078H93.7969V191.625H99.875C101.052 191.625 102.005 191.438 102.734 191.062C103.464 190.688 103.995 190.167 104.328 189.5C104.672 188.833 104.844 188.073 104.844 187.219C104.844 186.438 104.672 185.703 104.328 185.016C103.995 184.328 103.464 183.776 102.734 183.359C102.005 182.932 101.052 182.719 99.875 182.719H94.5V203H91.4844V180.25H99.875C101.594 180.25 103.047 180.547 104.234 181.141C105.422 181.734 106.323 182.557 106.938 183.609C107.552 184.651 107.859 185.844 107.859 187.188C107.859 188.646 107.552 189.891 106.938 190.922C106.323 191.953 105.422 192.74 104.234 193.281C103.047 193.812 101.594 194.078 99.875 194.078ZM124.688 180.25H127.688V195.641C127.688 197.349 127.307 198.771 126.547 199.906C125.786 201.042 124.776 201.896 123.516 202.469C122.266 203.031 120.906 203.312 119.438 203.312C117.896 203.312 116.5 203.031 115.25 202.469C114.01 201.896 113.026 201.042 112.297 199.906C111.578 198.771 111.219 197.349 111.219 195.641V180.25H114.203V195.641C114.203 196.828 114.422 197.807 114.859 198.578C115.297 199.349 115.906 199.922 116.688 200.297C117.479 200.672 118.396 200.859 119.438 200.859C120.49 200.859 121.406 200.672 122.188 200.297C122.979 199.922 123.594 199.349 124.031 198.578C124.469 197.807 124.688 196.828 124.688 195.641V180.25Z" fill="black"/>
<rect x="166" y="179" width="553" height="24" rx="12" fill="#D9D9D9" fill-opacity="0.44"/>
<rect x="166" y="179" width="110" height="24" rx="12" fill="#B483F2"/>
<rect x="360" y="248" width="469" height="175" rx="31" fill="white"/>
<g filter="url(#filter0_d_15_16)">
<ellipse cx="741" cy="335.5" rx="52" ry="52.5" stroke="#B483F2" stroke-opacity="0.4" stroke-width="40" shape-rendering="crispEdges"/>
</g>
<path d="M741 283C730.41 283 720.073 286.264 711.37 292.357C702.667 298.449 696.015 307.079 692.301 317.092C688.588 327.105 687.992 338.024 690.591 348.388C693.191 358.753 698.863 368.069 706.849 375.091C714.835 382.113 724.754 386.505 735.28 387.681C745.805 388.858 756.436 386.761 765.749 381.672C775.063 376.583 782.616 368.745 787.397 359.205C792.179 349.665 793.962 338.879 792.507 328.289" stroke="#B483F2" stroke-width="40" stroke-linecap="round"/>
<path d="M623.203 279.203V283H607.484V279.781L614.828 272C615.516 271.208 616.062 270.51 616.469 269.906C616.885 269.302 617.188 268.755 617.375 268.266C617.562 267.766 617.656 267.307 617.656 266.891C617.656 266.214 617.547 265.641 617.328 265.172C617.12 264.703 616.812 264.344 616.406 264.094C616 263.844 615.505 263.719 614.922 263.719C614.297 263.719 613.76 263.88 613.312 264.203C612.865 264.526 612.521 264.974 612.281 265.547C612.042 266.109 611.922 266.75 611.922 267.469H607.016C607.016 266.083 607.349 264.823 608.016 263.688C608.682 262.542 609.615 261.63 610.812 260.953C612.01 260.266 613.411 259.922 615.016 259.922C616.661 259.922 618.042 260.182 619.156 260.703C620.271 261.224 621.115 261.969 621.688 262.938C622.26 263.906 622.547 265.073 622.547 266.438C622.547 267.208 622.422 267.953 622.172 268.672C621.932 269.391 621.583 270.104 621.125 270.812C620.667 271.521 620.115 272.245 619.469 272.984C618.823 273.714 618.094 274.484 617.281 275.297L613.844 279.203H623.203ZM630.656 269.547H633.141C633.849 269.547 634.432 269.422 634.891 269.172C635.359 268.922 635.703 268.568 635.922 268.109C636.151 267.651 636.266 267.115 636.266 266.5C636.266 265.969 636.161 265.495 635.953 265.078C635.745 264.661 635.427 264.333 635 264.094C634.583 263.844 634.042 263.719 633.375 263.719C632.896 263.719 632.438 263.818 632 264.016C631.573 264.203 631.224 264.479 630.953 264.844C630.682 265.198 630.547 265.625 630.547 266.125H625.656C625.656 264.854 626 263.755 626.688 262.828C627.385 261.901 628.307 261.188 629.453 260.688C630.609 260.177 631.87 259.922 633.234 259.922C634.807 259.922 636.188 260.172 637.375 260.672C638.573 261.161 639.5 261.891 640.156 262.859C640.823 263.818 641.156 265.005 641.156 266.422C641.156 267.161 640.979 267.875 640.625 268.562C640.281 269.24 639.786 269.844 639.141 270.375C638.505 270.896 637.745 271.312 636.859 271.625C635.984 271.927 635.01 272.078 633.938 272.078H630.656V269.547ZM630.656 273.219V270.734H633.938C635.125 270.734 636.188 270.87 637.125 271.141C638.062 271.411 638.859 271.802 639.516 272.312C640.172 272.823 640.672 273.443 641.016 274.172C641.359 274.901 641.531 275.714 641.531 276.609C641.531 277.672 641.323 278.62 640.906 279.453C640.49 280.286 639.906 280.99 639.156 281.562C638.406 282.135 637.526 282.573 636.516 282.875C635.505 283.167 634.411 283.312 633.234 283.312C632.286 283.312 631.344 283.182 630.406 282.922C629.469 282.661 628.62 282.266 627.859 281.734C627.099 281.193 626.49 280.51 626.031 279.688C625.573 278.854 625.344 277.865 625.344 276.719H630.234C630.234 277.25 630.37 277.729 630.641 278.156C630.922 278.573 631.302 278.906 631.781 279.156C632.271 279.396 632.802 279.516 633.375 279.516C634.062 279.516 634.646 279.391 635.125 279.141C635.615 278.88 635.984 278.526 636.234 278.078C636.495 277.63 636.625 277.115 636.625 276.531C636.625 275.74 636.484 275.104 636.203 274.625C635.932 274.135 635.536 273.781 635.016 273.562C634.495 273.333 633.87 273.219 633.141 273.219H630.656ZM660.484 274.312V278.094H644.109L643.844 275.125L653.156 260.25H657.016L652.828 267.188L648.594 274.312H660.484ZM658.047 260.25V283H653.172V260.25H658.047ZM678.438 269.594V273.641C678.438 275.307 678.25 276.75 677.875 277.969C677.51 279.188 676.979 280.193 676.281 280.984C675.594 281.776 674.771 282.365 673.812 282.75C672.865 283.125 671.812 283.312 670.656 283.312C669.729 283.312 668.865 283.193 668.062 282.953C667.26 282.714 666.536 282.344 665.891 281.844C665.255 281.333 664.708 280.698 664.25 279.938C663.792 279.177 663.438 278.271 663.188 277.219C662.948 276.167 662.828 274.974 662.828 273.641V269.594C662.828 267.906 663.01 266.458 663.375 265.25C663.75 264.042 664.286 263.042 664.984 262.25C665.682 261.458 666.505 260.875 667.453 260.5C668.411 260.125 669.469 259.938 670.625 259.938C671.552 259.938 672.411 260.057 673.203 260.297C674.005 260.536 674.729 260.906 675.375 261.406C676.021 261.906 676.568 262.536 677.016 263.297C677.474 264.057 677.823 264.964 678.062 266.016C678.312 267.057 678.438 268.25 678.438 269.594ZM673.562 274.25V268.953C673.562 268.172 673.516 267.495 673.422 266.922C673.339 266.339 673.214 265.844 673.047 265.438C672.891 265.031 672.693 264.703 672.453 264.453C672.214 264.203 671.938 264.021 671.625 263.906C671.323 263.781 670.99 263.719 670.625 263.719C670.167 263.719 669.755 263.812 669.391 264C669.026 264.188 668.719 264.484 668.469 264.891C668.219 265.286 668.026 265.823 667.891 266.5C667.766 267.167 667.703 267.984 667.703 268.953V274.25C667.703 275.031 667.745 275.714 667.828 276.297C667.922 276.88 668.047 277.38 668.203 277.797C668.37 278.203 668.573 278.536 668.812 278.797C669.052 279.047 669.328 279.229 669.641 279.344C669.953 279.458 670.292 279.516 670.656 279.516C671.115 279.516 671.521 279.427 671.875 279.25C672.229 279.062 672.531 278.766 672.781 278.359C673.042 277.943 673.234 277.396 673.359 276.719C673.495 276.042 673.562 275.219 673.562 274.25Z" fill="#8E3CF7"/>
<path d="M416.902 311.293V322.367C416.486 322.901 415.828 323.48 414.93 324.105C414.044 324.73 412.885 325.271 411.453 325.727C410.021 326.169 408.263 326.391 406.18 326.391C404.37 326.391 402.716 326.091 401.219 325.492C399.721 324.88 398.432 323.988 397.352 322.816C396.271 321.645 395.438 320.212 394.852 318.52C394.266 316.827 393.973 314.893 393.973 312.719V310.844C393.973 308.669 394.246 306.736 394.793 305.043C395.353 303.35 396.147 301.918 397.176 300.746C398.217 299.574 399.461 298.682 400.906 298.07C402.365 297.458 403.992 297.152 405.789 297.152C408.198 297.152 410.177 297.549 411.727 298.344C413.289 299.138 414.487 300.232 415.32 301.625C416.154 303.005 416.674 304.594 416.883 306.391H411.648C411.505 305.401 411.219 304.535 410.789 303.793C410.359 303.038 409.747 302.452 408.953 302.035C408.172 301.605 407.156 301.391 405.906 301.391C404.852 301.391 403.921 301.599 403.113 302.016C402.306 302.432 401.629 303.038 401.082 303.832C400.535 304.626 400.118 305.609 399.832 306.781C399.559 307.953 399.422 309.294 399.422 310.805V312.719C399.422 314.242 399.578 315.596 399.891 316.781C400.203 317.953 400.652 318.943 401.238 319.75C401.837 320.544 402.573 321.15 403.445 321.566C404.331 321.97 405.333 322.172 406.453 322.172C407.469 322.172 408.309 322.087 408.973 321.918C409.65 321.736 410.19 321.521 410.594 321.273C410.997 321.026 411.31 320.785 411.531 320.551V315.219H405.887V311.293H416.902ZM426.746 309.184V326H421.59V304.867H426.473L426.746 309.184ZM433.172 304.73L433.094 309.535C432.807 309.483 432.482 309.444 432.117 309.418C431.766 309.392 431.434 309.379 431.121 309.379C430.327 309.379 429.63 309.49 429.031 309.711C428.432 309.919 427.931 310.225 427.527 310.629C427.137 311.033 426.837 311.527 426.629 312.113C426.421 312.686 426.303 313.337 426.277 314.066L425.164 313.93C425.164 312.589 425.301 311.345 425.574 310.199C425.848 309.053 426.245 308.051 426.766 307.191C427.286 306.332 427.938 305.668 428.719 305.199C429.513 304.717 430.424 304.477 431.453 304.477C431.74 304.477 432.046 304.503 432.371 304.555C432.71 304.594 432.977 304.652 433.172 304.73ZM445.105 326.391C443.504 326.391 442.065 326.13 440.789 325.609C439.513 325.089 438.426 324.366 437.527 323.441C436.642 322.504 435.958 321.417 435.477 320.18C435.008 318.93 434.773 317.589 434.773 316.156V315.375C434.773 313.747 435.008 312.27 435.477 310.941C435.945 309.6 436.609 308.448 437.469 307.484C438.328 306.521 439.357 305.779 440.555 305.258C441.753 304.737 443.074 304.477 444.52 304.477C446.017 304.477 447.339 304.73 448.484 305.238C449.63 305.733 450.587 306.436 451.355 307.348C452.124 308.259 452.703 309.353 453.094 310.629C453.484 311.892 453.68 313.292 453.68 314.828V316.996H437.117V313.441H448.602V313.051C448.576 312.23 448.419 311.482 448.133 310.805C447.846 310.115 447.404 309.568 446.805 309.164C446.206 308.747 445.431 308.539 444.48 308.539C443.712 308.539 443.042 308.708 442.469 309.047C441.909 309.372 441.44 309.841 441.062 310.453C440.698 311.052 440.424 311.768 440.242 312.602C440.06 313.435 439.969 314.359 439.969 315.375V316.156C439.969 317.042 440.086 317.862 440.32 318.617C440.568 319.372 440.926 320.03 441.395 320.59C441.876 321.137 442.449 321.566 443.113 321.879C443.79 322.178 444.559 322.328 445.418 322.328C446.499 322.328 447.475 322.12 448.348 321.703C449.233 321.273 450.001 320.642 450.652 319.809L453.25 322.504C452.807 323.155 452.208 323.78 451.453 324.379C450.711 324.978 449.812 325.466 448.758 325.844C447.703 326.208 446.486 326.391 445.105 326.391ZM468.777 321.508V311.762C468.777 311.046 468.654 310.427 468.406 309.906C468.159 309.385 467.781 308.982 467.273 308.695C466.766 308.409 466.121 308.266 465.34 308.266C464.65 308.266 464.044 308.383 463.523 308.617C463.016 308.852 462.625 309.184 462.352 309.613C462.078 310.03 461.941 310.512 461.941 311.059H456.766C456.766 310.186 456.974 309.359 457.391 308.578C457.807 307.784 458.4 307.081 459.168 306.469C459.949 305.844 460.88 305.355 461.961 305.004C463.055 304.652 464.279 304.477 465.633 304.477C467.234 304.477 468.66 304.75 469.91 305.297C471.173 305.831 472.163 306.638 472.879 307.719C473.608 308.799 473.973 310.16 473.973 311.801V321.02C473.973 322.074 474.038 322.979 474.168 323.734C474.311 324.477 474.52 325.121 474.793 325.668V326H469.539C469.292 325.466 469.103 324.789 468.973 323.969C468.842 323.135 468.777 322.315 468.777 321.508ZM469.5 313.129L469.539 316.195H466.277C465.47 316.195 464.76 316.28 464.148 316.449C463.536 316.605 463.035 316.84 462.645 317.152C462.254 317.452 461.961 317.816 461.766 318.246C461.57 318.663 461.473 319.138 461.473 319.672C461.473 320.193 461.59 320.661 461.824 321.078C462.072 321.495 462.423 321.827 462.879 322.074C463.348 322.309 463.895 322.426 464.52 322.426C465.431 322.426 466.225 322.243 466.902 321.879C467.579 321.501 468.107 321.046 468.484 320.512C468.862 319.978 469.064 319.47 469.09 318.988L470.574 321.215C470.392 321.749 470.118 322.315 469.754 322.914C469.389 323.513 468.921 324.073 468.348 324.594C467.775 325.115 467.085 325.544 466.277 325.883C465.47 326.221 464.533 326.391 463.465 326.391C462.098 326.391 460.874 326.117 459.793 325.57C458.712 325.023 457.859 324.275 457.234 323.324C456.609 322.374 456.297 321.293 456.297 320.082C456.297 318.962 456.505 317.973 456.922 317.113C457.339 316.254 457.957 315.531 458.777 314.945C459.598 314.346 460.613 313.897 461.824 313.598C463.048 313.285 464.448 313.129 466.023 313.129H469.5ZM488.621 304.867V308.578H476.512V304.867H488.621ZM479.754 299.672H484.93V319.906C484.93 320.531 485.014 321.013 485.184 321.352C485.353 321.69 485.607 321.918 485.945 322.035C486.284 322.152 486.688 322.211 487.156 322.211C487.495 322.211 487.807 322.191 488.094 322.152C488.38 322.113 488.621 322.074 488.816 322.035L488.836 325.902C488.406 326.046 487.918 326.163 487.371 326.254C486.837 326.345 486.232 326.391 485.555 326.391C484.396 326.391 483.38 326.195 482.508 325.805C481.635 325.401 480.958 324.757 480.477 323.871C479.995 322.973 479.754 321.788 479.754 320.316V299.672ZM405.652 362.629H398.328V358.41H405.652C406.85 358.41 407.82 358.215 408.562 357.824C409.318 357.421 409.871 356.874 410.223 356.184C410.574 355.48 410.75 354.68 410.75 353.781C410.75 352.909 410.574 352.095 410.223 351.34C409.871 350.585 409.318 349.973 408.562 349.504C407.82 349.035 406.85 348.801 405.652 348.801H400.086V373H394.715V344.562H405.652C407.866 344.562 409.754 344.96 411.316 345.754C412.892 346.535 414.09 347.622 414.91 349.016C415.743 350.396 416.16 351.971 416.16 353.742C416.16 355.578 415.743 357.16 414.91 358.488C414.09 359.816 412.892 360.839 411.316 361.555C409.754 362.271 407.866 362.629 405.652 362.629ZM429.207 373.391C427.605 373.391 426.167 373.13 424.891 372.609C423.615 372.089 422.527 371.366 421.629 370.441C420.743 369.504 420.06 368.417 419.578 367.18C419.109 365.93 418.875 364.589 418.875 363.156V362.375C418.875 360.747 419.109 359.27 419.578 357.941C420.047 356.6 420.711 355.448 421.57 354.484C422.43 353.521 423.458 352.779 424.656 352.258C425.854 351.737 427.176 351.477 428.621 351.477C430.118 351.477 431.44 351.73 432.586 352.238C433.732 352.733 434.689 353.436 435.457 354.348C436.225 355.259 436.805 356.353 437.195 357.629C437.586 358.892 437.781 360.292 437.781 361.828V363.996H421.219V360.441H432.703V360.051C432.677 359.23 432.521 358.482 432.234 357.805C431.948 357.115 431.505 356.568 430.906 356.164C430.307 355.747 429.533 355.539 428.582 355.539C427.814 355.539 427.143 355.708 426.57 356.047C426.01 356.372 425.542 356.841 425.164 357.453C424.799 358.052 424.526 358.768 424.344 359.602C424.161 360.435 424.07 361.359 424.07 362.375V363.156C424.07 364.042 424.188 364.862 424.422 365.617C424.669 366.372 425.027 367.03 425.496 367.59C425.978 368.137 426.551 368.566 427.215 368.879C427.892 369.178 428.66 369.328 429.52 369.328C430.6 369.328 431.577 369.12 432.449 368.703C433.335 368.273 434.103 367.642 434.754 366.809L437.352 369.504C436.909 370.155 436.31 370.78 435.555 371.379C434.812 371.978 433.914 372.466 432.859 372.844C431.805 373.208 430.587 373.391 429.207 373.391ZM446.395 356.184V373H441.238V351.867H446.121L446.395 356.184ZM452.82 351.73L452.742 356.535C452.456 356.483 452.13 356.444 451.766 356.418C451.414 356.392 451.082 356.379 450.77 356.379C449.975 356.379 449.279 356.49 448.68 356.711C448.081 356.919 447.579 357.225 447.176 357.629C446.785 358.033 446.486 358.527 446.277 359.113C446.069 359.686 445.952 360.337 445.926 361.066L444.812 360.93C444.812 359.589 444.949 358.345 445.223 357.199C445.496 356.053 445.893 355.051 446.414 354.191C446.935 353.332 447.586 352.668 448.367 352.199C449.161 351.717 450.073 351.477 451.102 351.477C451.388 351.477 451.694 351.503 452.02 351.555C452.358 351.594 452.625 351.652 452.82 351.73ZM462.762 373H457.566V349.914C457.566 348.326 457.872 346.991 458.484 345.91C459.096 344.816 459.969 343.99 461.102 343.43C462.234 342.87 463.569 342.59 465.105 342.59C465.613 342.59 466.095 342.622 466.551 342.688C467.02 342.753 467.482 342.844 467.938 342.961L467.84 346.887C467.592 346.822 467.319 346.776 467.02 346.75C466.733 346.724 466.414 346.711 466.062 346.711C465.359 346.711 464.76 346.835 464.266 347.082C463.771 347.329 463.393 347.694 463.133 348.176C462.885 348.645 462.762 349.224 462.762 349.914V373ZM467.039 351.867V355.578H454.383V351.867H467.039ZM469.305 362.648V362.238C469.305 360.689 469.526 359.263 469.969 357.961C470.411 356.646 471.056 355.507 471.902 354.543C472.749 353.579 473.784 352.831 475.008 352.297C476.232 351.75 477.625 351.477 479.188 351.477C480.776 351.477 482.182 351.75 483.406 352.297C484.643 352.831 485.685 353.579 486.531 354.543C487.378 355.507 488.022 356.646 488.465 357.961C488.908 359.263 489.129 360.689 489.129 362.238V362.648C489.129 364.185 488.908 365.611 488.465 366.926C488.022 368.228 487.378 369.367 486.531 370.344C485.685 371.307 484.65 372.056 483.426 372.59C482.202 373.124 480.802 373.391 479.227 373.391C477.664 373.391 476.264 373.124 475.027 372.59C473.79 372.056 472.749 371.307 471.902 370.344C471.056 369.367 470.411 368.228 469.969 366.926C469.526 365.611 469.305 364.185 469.305 362.648ZM474.461 362.238V362.648C474.461 363.573 474.552 364.439 474.734 365.246C474.917 366.053 475.197 366.763 475.574 367.375C475.952 367.987 476.44 368.469 477.039 368.82C477.651 369.159 478.38 369.328 479.227 369.328C480.06 369.328 480.776 369.159 481.375 368.82C481.974 368.469 482.462 367.987 482.84 367.375C483.23 366.763 483.517 366.053 483.699 365.246C483.882 364.439 483.973 363.573 483.973 362.648V362.238C483.973 361.327 483.882 360.474 483.699 359.68C483.517 358.872 483.23 358.163 482.84 357.551C482.462 356.926 481.967 356.438 481.355 356.086C480.757 355.721 480.034 355.539 479.188 355.539C478.354 355.539 477.638 355.721 477.039 356.086C476.44 356.438 475.952 356.926 475.574 357.551C475.197 358.163 474.917 358.872 474.734 359.68C474.552 360.474 474.461 361.327 474.461 362.238ZM498.035 356.184V373H492.879V351.867H497.762L498.035 356.184ZM504.461 351.73L504.383 356.535C504.096 356.483 503.771 356.444 503.406 356.418C503.055 356.392 502.723 356.379 502.41 356.379C501.616 356.379 500.919 356.49 500.32 356.711C499.721 356.919 499.22 357.225 498.816 357.629C498.426 358.033 498.126 358.527 497.918 359.113C497.71 359.686 497.592 360.337 497.566 361.066L496.453 360.93C496.453 359.589 496.59 358.345 496.863 357.199C497.137 356.053 497.534 355.051 498.055 354.191C498.576 353.332 499.227 352.668 500.008 352.199C500.802 351.717 501.714 351.477 502.742 351.477C503.029 351.477 503.335 351.503 503.66 351.555C503.999 351.594 504.266 351.652 504.461 351.73ZM512.43 356.203V373H507.273V351.867H512.137L512.43 356.203ZM511.668 361.672H510.086C510.086 360.201 510.262 358.846 510.613 357.609C510.978 356.372 511.512 355.298 512.215 354.387C512.918 353.462 513.784 352.746 514.812 352.238C515.854 351.73 517.059 351.477 518.426 351.477C519.376 351.477 520.249 351.62 521.043 351.906C521.837 352.18 522.521 352.616 523.094 353.215C523.68 353.801 524.129 354.569 524.441 355.52C524.754 356.457 524.91 357.583 524.91 358.898V373H519.754V359.426C519.754 358.436 519.611 357.661 519.324 357.102C519.051 356.542 518.654 356.151 518.133 355.93C517.612 355.695 516.987 355.578 516.258 355.578C515.451 355.578 514.754 355.741 514.168 356.066C513.595 356.379 513.12 356.815 512.742 357.375C512.378 357.935 512.104 358.579 511.922 359.309C511.753 360.038 511.668 360.826 511.668 361.672ZM524.52 360.715L522.391 361.105C522.404 359.777 522.586 358.534 522.938 357.375C523.289 356.203 523.803 355.181 524.48 354.309C525.171 353.423 526.023 352.733 527.039 352.238C528.068 351.73 529.253 351.477 530.594 351.477C531.635 351.477 532.573 351.626 533.406 351.926C534.253 352.212 534.975 352.674 535.574 353.312C536.173 353.938 536.629 354.751 536.941 355.754C537.267 356.757 537.43 357.98 537.43 359.426V373H532.234V359.406C532.234 358.378 532.091 357.59 531.805 357.043C531.531 356.496 531.134 356.118 530.613 355.91C530.092 355.689 529.48 355.578 528.777 355.578C528.061 355.578 527.436 355.715 526.902 355.988C526.382 356.249 525.939 356.613 525.574 357.082C525.223 357.551 524.956 358.098 524.773 358.723C524.604 359.335 524.52 359.999 524.52 360.715ZM553.699 368.508V358.762C553.699 358.046 553.576 357.427 553.328 356.906C553.081 356.385 552.703 355.982 552.195 355.695C551.688 355.409 551.043 355.266 550.262 355.266C549.572 355.266 548.966 355.383 548.445 355.617C547.938 355.852 547.547 356.184 547.273 356.613C547 357.03 546.863 357.512 546.863 358.059H541.688C541.688 357.186 541.896 356.359 542.312 355.578C542.729 354.784 543.322 354.081 544.09 353.469C544.871 352.844 545.802 352.355 546.883 352.004C547.977 351.652 549.201 351.477 550.555 351.477C552.156 351.477 553.582 351.75 554.832 352.297C556.095 352.831 557.085 353.638 557.801 354.719C558.53 355.799 558.895 357.16 558.895 358.801V368.02C558.895 369.074 558.96 369.979 559.09 370.734C559.233 371.477 559.441 372.121 559.715 372.668V373H554.461C554.214 372.466 554.025 371.789 553.895 370.969C553.764 370.135 553.699 369.315 553.699 368.508ZM554.422 360.129L554.461 363.195H551.199C550.392 363.195 549.682 363.28 549.07 363.449C548.458 363.605 547.957 363.84 547.566 364.152C547.176 364.452 546.883 364.816 546.688 365.246C546.492 365.663 546.395 366.138 546.395 366.672C546.395 367.193 546.512 367.661 546.746 368.078C546.993 368.495 547.345 368.827 547.801 369.074C548.27 369.309 548.816 369.426 549.441 369.426C550.353 369.426 551.147 369.243 551.824 368.879C552.501 368.501 553.029 368.046 553.406 367.512C553.784 366.978 553.986 366.47 554.012 365.988L555.496 368.215C555.314 368.749 555.04 369.315 554.676 369.914C554.311 370.513 553.842 371.073 553.27 371.594C552.697 372.115 552.007 372.544 551.199 372.883C550.392 373.221 549.454 373.391 548.387 373.391C547.02 373.391 545.796 373.117 544.715 372.57C543.634 372.023 542.781 371.275 542.156 370.324C541.531 369.374 541.219 368.293 541.219 367.082C541.219 365.962 541.427 364.973 541.844 364.113C542.26 363.254 542.879 362.531 543.699 361.945C544.52 361.346 545.535 360.897 546.746 360.598C547.97 360.285 549.37 360.129 550.945 360.129H554.422ZM568.602 356.379V373H563.445V351.867H568.289L568.602 356.379ZM567.781 361.672H566.258C566.271 360.135 566.479 358.742 566.883 357.492C567.286 356.242 567.853 355.168 568.582 354.27C569.324 353.371 570.203 352.681 571.219 352.199C572.234 351.717 573.367 351.477 574.617 351.477C575.633 351.477 576.551 351.62 577.371 351.906C578.191 352.193 578.895 352.648 579.48 353.273C580.079 353.898 580.535 354.719 580.848 355.734C581.173 356.737 581.336 357.974 581.336 359.445V373H576.141V359.406C576.141 358.443 575.997 357.681 575.711 357.121C575.438 356.561 575.034 356.164 574.5 355.93C573.979 355.695 573.335 355.578 572.566 355.578C571.772 355.578 571.076 355.741 570.477 356.066C569.891 356.379 569.396 356.815 568.992 357.375C568.602 357.935 568.302 358.579 568.094 359.309C567.885 360.038 567.781 360.826 567.781 361.672ZM594.559 369.328C595.288 369.328 595.939 369.185 596.512 368.898C597.085 368.612 597.54 368.208 597.879 367.688C598.23 367.167 598.419 366.561 598.445 365.871H603.309C603.283 367.303 602.879 368.586 602.098 369.719C601.316 370.852 600.275 371.75 598.973 372.414C597.684 373.065 596.238 373.391 594.637 373.391C593.009 373.391 591.59 373.117 590.379 372.57C589.168 372.023 588.159 371.262 587.352 370.285C586.557 369.309 585.958 368.176 585.555 366.887C585.164 365.598 584.969 364.217 584.969 362.746V362.121C584.969 360.65 585.164 359.27 585.555 357.98C585.958 356.691 586.557 355.559 587.352 354.582C588.159 353.605 589.168 352.844 590.379 352.297C591.59 351.75 593.003 351.477 594.617 351.477C596.323 351.477 597.82 351.809 599.109 352.473C600.411 353.137 601.427 354.074 602.156 355.285C602.898 356.496 603.283 357.922 603.309 359.562H598.445C598.419 358.807 598.25 358.13 597.938 357.531C597.625 356.932 597.182 356.451 596.609 356.086C596.036 355.721 595.34 355.539 594.52 355.539C593.647 355.539 592.918 355.721 592.332 356.086C591.759 356.451 591.31 356.952 590.984 357.59C590.672 358.215 590.451 358.918 590.32 359.699C590.203 360.467 590.145 361.275 590.145 362.121V362.746C590.145 363.605 590.203 364.426 590.32 365.207C590.451 365.988 590.672 366.691 590.984 367.316C591.31 367.928 591.759 368.417 592.332 368.781C592.918 369.146 593.66 369.328 594.559 369.328ZM616.238 373.391C614.637 373.391 613.198 373.13 611.922 372.609C610.646 372.089 609.559 371.366 608.66 370.441C607.775 369.504 607.091 368.417 606.609 367.18C606.141 365.93 605.906 364.589 605.906 363.156V362.375C605.906 360.747 606.141 359.27 606.609 357.941C607.078 356.6 607.742 355.448 608.602 354.484C609.461 353.521 610.49 352.779 611.688 352.258C612.885 351.737 614.207 351.477 615.652 351.477C617.15 351.477 618.471 351.73 619.617 352.238C620.763 352.733 621.72 353.436 622.488 354.348C623.257 355.259 623.836 356.353 624.227 357.629C624.617 358.892 624.812 360.292 624.812 361.828V363.996H608.25V360.441H619.734V360.051C619.708 359.23 619.552 358.482 619.266 357.805C618.979 357.115 618.536 356.568 617.938 356.164C617.339 355.747 616.564 355.539 615.613 355.539C614.845 355.539 614.174 355.708 613.602 356.047C613.042 356.372 612.573 356.841 612.195 357.453C611.831 358.052 611.557 358.768 611.375 359.602C611.193 360.435 611.102 361.359 611.102 362.375V363.156C611.102 364.042 611.219 364.862 611.453 365.617C611.701 366.372 612.059 367.03 612.527 367.59C613.009 368.137 613.582 368.566 614.246 368.879C614.923 369.178 615.691 369.328 616.551 369.328C617.632 369.328 618.608 369.12 619.48 368.703C620.366 368.273 621.134 367.642 621.785 366.809L624.383 369.504C623.94 370.155 623.341 370.78 622.586 371.379C621.844 371.978 620.945 372.466 619.891 372.844C618.836 373.208 617.618 373.391 616.238 373.391Z" fill="black"/>
<defs>
<filter id="filter0_d_15_16" x="665" y="263" width="152" height="153" filterUnits="userSpaceOnUse" color-interpolation-filters="sRGB">
<feFlood flood-opacity="0" result="BackgroundImageFix"/>
<feColorMatrix in="SourceAlpha" type="matrix" values="0 0 0 0 0 0 0 0 0 0 0 0 0 0 0 0 0 0 127 0" result="hardAlpha"/>
<feOffset dy="4"/>
<feGaussianBlur stdDeviation="2"/>
<feComposite in2="hardAlpha" operator="out"/>
<feColorMatrix type="matrix" values="0 0 0 0 0 0 0 0 0 0 0 0 0 0 0 0 0 0 0.25 0"/>
<feBlend mode="normal" in2="BackgroundImageFix" result="effect1_dropShadow_15_16"/>
<feBlend mode="normal" in="SourceGraphic" in2="effect1_dropShadow_15_16" result="shape"/>
</filter>
</defs>
</svg>
