<svg width="881" height="440" viewBox="0 0 881 440" fill="none" xmlns="http://www.w3.org/2000/svg">
<g filter="url(#filter0_bd_59_4190)">
<rect x="552" y="97" width="122" height="122" rx="20" fill="white" fill-opacity="0.88" shape-rendering="crispEdges"/>
</g>
<g clip-path="url(#clip0_59_4190)">
<path d="M587.988 174.892C590.665 176.758 595.005 176.758 597.682 174.892C600.359 173.026 600.359 170.001 597.682 168.135C595.005 166.269 590.665 166.269 587.988 168.135C585.311 170.001 585.311 173.026 587.988 174.892Z" fill="#25CAAC"/>
<path d="M615.773 149.554C619.788 152.353 626.298 152.353 630.314 149.554C634.329 146.755 634.329 142.217 630.314 139.419C626.298 136.62 619.788 136.62 615.773 139.419C611.757 142.217 611.757 146.755 615.773 149.554Z" fill="#25CAAC"/>
<path d="M601.024 162.223C604.37 164.555 609.795 164.555 613.141 162.223C616.487 159.891 616.487 156.109 613.141 153.777C609.795 151.445 604.37 151.445 601.024 153.777C597.677 156.109 597.677 159.891 601.024 162.223Z" fill="#25CAAC"/>
<path d="M579.506 160.534C581.514 161.933 584.769 161.933 586.776 160.534C588.784 159.134 588.784 156.866 586.776 155.466C584.769 154.067 581.514 154.067 579.506 155.466C577.498 156.866 577.498 159.134 579.506 160.534Z" fill="#25CAAC"/>
<path d="M601.024 135.195C604.37 137.528 609.795 137.528 613.141 135.195C616.487 132.863 616.487 129.082 613.141 126.749C609.795 124.417 604.37 124.417 601.024 126.749C597.677 129.082 597.677 132.863 601.024 135.195Z" fill="#25CAAC"/>
<path d="M587.988 147.865C590.665 149.731 595.005 149.731 597.682 147.865C600.359 145.999 600.359 142.974 597.682 141.108C595.005 139.242 590.665 139.242 587.988 141.108C585.311 142.974 585.311 145.999 587.988 147.865Z" fill="#25CAAC"/>
<path d="M601.024 189.251C604.37 191.583 609.795 191.583 613.141 189.251C616.487 186.918 616.487 183.137 613.141 180.805C609.795 178.472 604.37 178.472 601.024 180.805C597.677 183.137 597.677 186.918 601.024 189.251Z" fill="#25CAAC"/>
<path d="M633.447 163.068C637.463 165.867 643.973 165.867 647.988 163.068C652.004 160.269 652.004 155.731 647.988 152.932C643.973 150.134 637.463 150.134 633.447 152.932C629.432 155.731 629.432 160.269 633.447 163.068Z" fill="#25CAAC"/>
<path d="M615.773 176.581C619.788 179.38 626.298 179.38 630.314 176.581C634.329 173.783 634.329 169.245 630.314 166.446C626.298 163.647 619.788 163.647 615.773 166.446C611.757 169.245 611.757 173.783 615.773 176.581Z" fill="#25CAAC"/>
</g>
<path d="M334 140L390.292 211.25H277.708L334 140Z" fill="#B483F2"/>
<g filter="url(#filter1_bd_59_4190)">
<rect x="461" y="179" width="122" height="122" rx="20" fill="white" fill-opacity="0.88" shape-rendering="crispEdges"/>
</g>
<path d="M499.43 262.824H502.964C502.926 263.18 502.849 263.879 502.595 264.374C501.794 266.09 499.952 267.043 496.457 267.043C493.66 267.043 491.843 266.344 490.864 265.162C490.191 264.374 489.848 263.281 489.848 261.883C489.848 260.612 490.165 259.558 490.801 258.782C491.818 257.511 493.648 256.749 496.52 256.749C500.434 256.749 502.061 258.147 502.659 259.634C502.862 260.155 502.926 260.74 502.938 261.057H499.405C499.392 260.829 499.303 260.536 499.151 260.32C498.782 259.786 497.969 259.392 496.482 259.392C495.135 259.392 494.156 259.736 493.711 260.435C493.483 260.778 493.394 261.286 493.394 261.922C493.394 262.608 493.508 263.078 493.749 263.421C494.245 264.158 495.351 264.438 496.495 264.438C497.829 264.438 498.782 264.171 499.202 263.561C499.354 263.345 499.418 263.091 499.43 262.824Z" fill="#394149"/>
<path d="M513.877 264.235V266.891H504.358V256.914H507.802V264.235H513.877Z" fill="#394149"/>
<path d="M525.741 266.891V264.413H518.586V263.116H525.449V260.689H518.586V259.405H525.652V256.914H515.23V266.891H525.741Z" fill="#394149"/>
<path fill-rule="evenodd" clip-rule="evenodd" d="M536.214 265.048H530.825L529.897 266.891H526.301L531.626 256.914H535.731L540.764 266.891H537.091L536.214 265.048ZM531.944 262.811H535.134L533.939 260.396L533.583 259.494L533.202 260.409L531.944 262.811Z" fill="#394149"/>
<path fill-rule="evenodd" clip-rule="evenodd" d="M553.536 259.952C553.536 259.049 553.32 258.401 552.862 257.931C552.265 257.295 551.235 256.914 549.66 256.914H541.716V266.891H545.11V263.37H548.198L550.676 266.891H554.464L551.452 262.824C552.125 262.722 552.672 262.316 553.027 261.833C553.345 261.388 553.536 260.727 553.536 259.952ZM550.231 260.269C550.231 260.435 550.206 260.638 550.117 260.79C549.99 261.045 549.66 261.146 549.113 261.146H545.122V259.329H549.049C549.583 259.329 549.939 259.418 550.117 259.748C550.206 259.875 550.231 260.079 550.231 260.269Z" fill="#394149"/>
<path d="M534.796 211.476C534.796 211.641 534.771 211.845 534.682 211.997C534.555 212.251 534.224 212.353 533.678 212.353H529.687V210.536H533.614C534.148 210.536 534.504 210.624 534.682 210.955C534.771 211.082 534.796 211.285 534.796 211.476Z" fill="#394149"/>
<path d="M544.732 214.018H547.922L546.727 211.603L546.371 210.701L545.99 211.616L544.732 214.018Z" fill="#394149"/>
<path fill-rule="evenodd" clip-rule="evenodd" d="M484.042 211.452C484.453 207.401 487.875 204.239 492.035 204.239H551.965C556.403 204.239 560 207.836 560 212.274V262.56C560 266.997 556.403 270.595 551.965 270.595H492.035C487.598 270.595 484 266.997 484 262.56V212.274C484 211.997 484.014 211.723 484.042 211.452ZM485.674 226.713L512.681 235.847C513.417 235.101 514.418 234.452 515.622 233.946C515.899 233.83 516.185 233.722 516.478 233.623L505.219 222.198H514.033L518.98 233.016C519.634 232.913 520.306 232.848 520.986 232.822C521.213 232.813 521.439 232.809 521.666 232.809V222.198H529.298L524.35 233.016C525.113 233.136 525.853 233.306 526.555 233.526C527.459 233.809 528.283 234.168 529.001 234.589L550.152 222.198H558.326V226.487L527.365 236.958C526.714 236.298 525.743 235.765 524.576 235.428C523.409 235.091 522.097 234.964 520.806 235.063C519.515 235.163 518.304 235.484 517.326 235.987C516.347 236.49 515.645 237.151 515.308 237.888C514.971 238.624 515.015 239.403 515.433 240.125C515.851 240.847 516.626 241.48 517.659 241.944C518.691 242.409 519.936 242.683 521.235 242.733C521.956 242.76 522.677 242.718 523.368 242.61C523.921 242.523 524.455 242.394 524.956 242.224L535.217 252.635H527.955L524.35 244.756C522.589 245.032 520.737 245.031 518.98 244.756L515.376 252.635H508.114L516.478 244.149C515.695 243.884 514.972 243.559 514.33 243.183L498.194 252.635H485.674V251.058L512.681 241.924C512.06 241.294 511.634 240.6 511.43 239.876C511.188 239.019 511.264 238.145 511.645 237.313L485.674 233.236V226.713ZM558.326 251.285L521.666 238.886L558.326 244.64V251.285ZM558.326 254.309H485.674V262.56C485.674 266.073 488.522 268.921 492.035 268.921H551.965C555.478 268.921 558.326 266.073 558.326 262.56V254.309ZM503.503 214.247V208.121H500.097V213.941C500.097 214.984 499.131 215.683 497.504 215.683C495.801 215.683 494.873 215.009 494.873 213.929V208.121H491.429V213.929C491.429 216.954 493.908 218.237 497.364 218.237C501.063 218.237 503.503 216.941 503.503 214.247ZM514.974 218.097V215.441H508.899V208.121H505.455V218.097H514.974ZM525.21 208.121V210.624H520.99V218.097H517.508V210.624H513.301V208.121H525.21ZM538.1 211.158C538.1 210.256 537.884 209.608 537.427 209.137C536.83 208.502 535.8 208.121 534.224 208.121H526.281V218.097H529.674V214.577H532.763L535.241 218.097H539.028L536.016 214.03C536.69 213.929 537.236 213.522 537.592 213.039C537.91 212.594 538.1 211.934 538.1 211.158ZM549.002 216.255H543.613L542.686 218.097H539.089L544.414 208.121H548.519L553.552 218.097H549.879L549.002 216.255Z" fill="#394149"/>
<g filter="url(#filter2_bd_59_4190)">
<rect x="338" y="101" width="122" height="122" rx="20" fill="white" fill-opacity="0.88" shape-rendering="crispEdges"/>
</g>
<path d="M394.709 125L440 172.5V198H418.864V181.667L385.969 147.167H379.136V198H358V125H394.709ZM418.864 150.333V125H440V150.333H418.864Z" fill="#212326"/>
<rect x="159" y="336" width="301" height="42" rx="20" fill="#D3B0FF"/>
<path d="M213.035 351.9H215.255V356.46H215.345C215.485 356.05 215.73 355.695 216.08 355.395C216.43 355.095 216.915 354.945 217.535 354.945C218.345 354.945 218.955 355.215 219.365 355.755C219.785 356.295 219.995 357.065 219.995 358.065V363H217.775V358.245C217.775 357.735 217.695 357.36 217.535 357.12C217.375 356.87 217.09 356.745 216.68 356.745C216.5 356.745 216.325 356.77 216.155 356.82C215.985 356.86 215.83 356.93 215.69 357.03C215.56 357.13 215.455 357.255 215.375 357.405C215.295 357.545 215.255 357.71 215.255 357.9V363H213.035V351.9ZM224.731 363C223.961 363 223.376 362.805 222.976 362.415C222.586 362.025 222.391 361.455 222.391 360.705V356.85H221.281V355.125H221.836C222.136 355.125 222.341 355.055 222.451 354.915C222.561 354.765 222.616 354.555 222.616 354.285V352.995H224.611V355.125H226.171V356.85H224.611V361.275H226.051V363H224.731ZM230.399 363C229.629 363 229.044 362.805 228.644 362.415C228.254 362.025 228.059 361.455 228.059 360.705V356.85H226.949V355.125H227.504C227.804 355.125 228.009 355.055 228.119 354.915C228.229 354.765 228.284 354.555 228.284 354.285V352.995H230.279V355.125H231.839V356.85H230.279V361.275H231.719V363H230.399ZM233.382 355.125H235.602V356.445H235.677C235.787 356.005 236.037 355.645 236.427 355.365C236.827 355.085 237.282 354.945 237.792 354.945C238.792 354.945 239.547 355.295 240.057 355.995C240.567 356.695 240.822 357.715 240.822 359.055C240.822 360.395 240.567 361.42 240.057 362.13C239.547 362.83 238.792 363.18 237.792 363.18C237.532 363.18 237.287 363.14 237.057 363.06C236.827 362.99 236.617 362.89 236.427 362.76C236.247 362.62 236.092 362.46 235.962 362.28C235.832 362.09 235.737 361.89 235.677 361.68H235.602V366H233.382V355.125ZM237.057 361.38C237.477 361.38 237.822 361.235 238.092 360.945C238.372 360.645 238.512 360.245 238.512 359.745V358.38C238.512 357.88 238.372 357.485 238.092 357.195C237.822 356.895 237.477 356.745 237.057 356.745C236.637 356.745 236.287 356.85 236.007 357.06C235.737 357.26 235.602 357.54 235.602 357.9V360.225C235.602 360.585 235.737 360.87 236.007 361.08C236.287 361.28 236.637 361.38 237.057 361.38ZM245.178 363.18C244.418 363.18 243.778 363.06 243.258 362.82C242.738 362.57 242.273 362.22 241.863 361.77L243.168 360.45C243.448 360.76 243.758 361.005 244.098 361.185C244.438 361.365 244.823 361.455 245.253 361.455C245.693 361.455 245.998 361.39 246.168 361.26C246.338 361.12 246.423 360.935 246.423 360.705C246.423 360.335 246.158 360.115 245.628 360.045L244.773 359.94C243.003 359.72 242.118 358.91 242.118 357.51C242.118 357.13 242.188 356.785 242.328 356.475C242.478 356.155 242.683 355.885 242.943 355.665C243.213 355.435 243.533 355.26 243.903 355.14C244.283 355.01 244.708 354.945 245.178 354.945C245.588 354.945 245.948 354.975 246.258 355.035C246.578 355.085 246.858 355.165 247.098 355.275C247.348 355.375 247.573 355.505 247.773 355.665C247.983 355.815 248.188 355.985 248.388 356.175L247.113 357.48C246.863 357.23 246.578 357.035 246.258 356.895C245.948 356.745 245.628 356.67 245.298 356.67C244.918 356.67 244.648 356.73 244.488 356.85C244.328 356.97 244.248 357.13 244.248 357.33C244.248 357.54 244.303 357.705 244.413 357.825C244.533 357.935 244.753 358.015 245.073 358.065L245.958 358.185C247.688 358.415 248.553 359.205 248.553 360.555C248.553 360.935 248.473 361.285 248.313 361.605C248.153 361.925 247.923 362.205 247.623 362.445C247.333 362.675 246.978 362.855 246.558 362.985C246.148 363.115 245.688 363.18 245.178 363.18ZM251.506 363.165C251.056 363.165 250.721 363.055 250.501 362.835C250.291 362.605 250.186 362.315 250.186 361.965V361.665C250.186 361.315 250.291 361.03 250.501 360.81C250.721 360.58 251.056 360.465 251.506 360.465C251.956 360.465 252.286 360.58 252.496 360.81C252.716 361.03 252.826 361.315 252.826 361.665V361.965C252.826 362.315 252.716 362.605 252.496 362.835C252.286 363.055 251.956 363.165 251.506 363.165ZM251.506 357.66C251.056 357.66 250.721 357.55 250.501 357.33C250.291 357.1 250.186 356.81 250.186 356.46V356.16C250.186 355.81 250.291 355.525 250.501 355.305C250.721 355.075 251.056 354.96 251.506 354.96C251.956 354.96 252.286 355.075 252.496 355.305C252.716 355.525 252.826 355.81 252.826 356.16V356.46C252.826 356.81 252.716 357.1 252.496 357.33C252.286 357.55 251.956 357.66 251.506 357.66ZM254.027 365.265L258.497 351.9H260.327L255.857 365.265H254.027ZM258.07 365.265L262.54 351.9H264.37L259.9 365.265H258.07ZM271.179 363C270.779 363 270.444 362.875 270.174 362.625C269.914 362.375 269.749 362.04 269.679 361.62H269.589C269.469 362.13 269.204 362.52 268.794 362.79C268.384 363.05 267.879 363.18 267.279 363.18C266.489 363.18 265.884 362.97 265.464 362.55C265.044 362.13 264.834 361.575 264.834 360.885C264.834 360.055 265.134 359.44 265.734 359.04C266.344 358.63 267.169 358.425 268.209 358.425H269.454V357.93C269.454 357.55 269.354 357.25 269.154 357.03C268.954 356.8 268.619 356.685 268.149 356.685C267.709 356.685 267.359 356.78 267.099 356.97C266.839 357.16 266.624 357.375 266.454 357.615L265.134 356.445C265.454 355.975 265.854 355.61 266.334 355.35C266.824 355.08 267.484 354.945 268.314 354.945C269.434 354.945 270.274 355.19 270.834 355.68C271.394 356.17 271.674 356.885 271.674 357.825V361.275H272.409V363H271.179ZM268.104 361.635C268.474 361.635 268.789 361.555 269.049 361.395C269.319 361.235 269.454 360.975 269.454 360.615V359.685H268.374C267.504 359.685 267.069 359.98 267.069 360.57V360.795C267.069 361.085 267.159 361.3 267.339 361.44C267.519 361.57 267.774 361.635 268.104 361.635ZM273.899 355.125H276.119V356.445H276.194C276.304 356.005 276.554 355.645 276.944 355.365C277.344 355.085 277.799 354.945 278.309 354.945C279.309 354.945 280.064 355.295 280.574 355.995C281.084 356.695 281.339 357.715 281.339 359.055C281.339 360.395 281.084 361.42 280.574 362.13C280.064 362.83 279.309 363.18 278.309 363.18C278.049 363.18 277.804 363.14 277.574 363.06C277.344 362.99 277.134 362.89 276.944 362.76C276.764 362.62 276.609 362.46 276.479 362.28C276.349 362.09 276.254 361.89 276.194 361.68H276.119V366H273.899V355.125ZM277.574 361.38C277.994 361.38 278.339 361.235 278.609 360.945C278.889 360.645 279.029 360.245 279.029 359.745V358.38C279.029 357.88 278.889 357.485 278.609 357.195C278.339 356.895 277.994 356.745 277.574 356.745C277.154 356.745 276.804 356.85 276.524 357.06C276.254 357.26 276.119 357.54 276.119 357.9V360.225C276.119 360.585 276.254 360.87 276.524 361.08C276.804 361.28 277.154 361.38 277.574 361.38ZM283.025 355.125H285.245V356.445H285.32C285.43 356.005 285.68 355.645 286.07 355.365C286.47 355.085 286.925 354.945 287.435 354.945C288.435 354.945 289.19 355.295 289.7 355.995C290.21 356.695 290.465 357.715 290.465 359.055C290.465 360.395 290.21 361.42 289.7 362.13C289.19 362.83 288.435 363.18 287.435 363.18C287.175 363.18 286.93 363.14 286.7 363.06C286.47 362.99 286.26 362.89 286.07 362.76C285.89 362.62 285.735 362.46 285.605 362.28C285.475 362.09 285.38 361.89 285.32 361.68H285.245V366H283.025V355.125ZM286.7 361.38C287.12 361.38 287.465 361.235 287.735 360.945C288.015 360.645 288.155 360.245 288.155 359.745V358.38C288.155 357.88 288.015 357.485 287.735 357.195C287.465 356.895 287.12 356.745 286.7 356.745C286.28 356.745 285.93 356.85 285.65 357.06C285.38 357.26 285.245 357.54 285.245 357.9V360.225C285.245 360.585 285.38 360.87 285.65 361.08C285.93 361.28 286.28 361.38 286.7 361.38ZM293.221 363.165C292.771 363.165 292.436 363.055 292.216 362.835C292.006 362.605 291.901 362.315 291.901 361.965V361.665C291.901 361.315 292.006 361.03 292.216 360.81C292.436 360.58 292.771 360.465 293.221 360.465C293.671 360.465 294.001 360.58 294.211 360.81C294.431 361.03 294.541 361.315 294.541 361.665V361.965C294.541 362.315 294.431 362.605 294.211 362.835C294.001 363.055 293.671 363.165 293.221 363.165ZM296.745 356.85H295.635V355.125H296.745V354.195C296.745 353.435 296.945 352.865 297.345 352.485C297.745 352.095 298.33 351.9 299.1 351.9H300.54V353.625H298.965V355.125H300.54V356.85H298.965V363H296.745V356.85ZM306.425 361.68H306.35C306.28 361.88 306.185 362.07 306.065 362.25C305.955 362.43 305.81 362.59 305.63 362.73C305.45 362.87 305.235 362.98 304.985 363.06C304.745 363.14 304.465 363.18 304.145 363.18C303.335 363.18 302.72 362.915 302.3 362.385C301.89 361.845 301.685 361.075 301.685 360.075V355.125H303.905V359.88C303.905 360.36 303.99 360.73 304.16 360.99C304.33 361.25 304.62 361.38 305.03 361.38C305.2 361.38 305.37 361.355 305.54 361.305C305.71 361.255 305.86 361.185 305.99 361.095C306.12 360.995 306.225 360.875 306.305 360.735C306.385 360.595 306.425 360.43 306.425 360.24V355.125H308.645V363H306.425V361.68ZM313.471 363C312.701 363 312.116 362.805 311.716 362.415C311.326 362.025 311.131 361.455 311.131 360.705V356.85H310.021V355.125H310.576C310.876 355.125 311.081 355.055 311.191 354.915C311.301 354.765 311.356 354.555 311.356 354.285V352.995H313.351V355.125H314.911V356.85H313.351V361.275H314.791V363H313.471ZM316.453 363V355.125H318.673V356.835H318.748C318.788 356.615 318.858 356.405 318.958 356.205C319.058 355.995 319.188 355.81 319.348 355.65C319.518 355.49 319.718 355.365 319.948 355.275C320.178 355.175 320.448 355.125 320.758 355.125H321.148V357.195H320.593C319.943 357.195 319.458 357.28 319.138 357.45C318.828 357.62 318.673 357.935 318.673 358.395V363H316.453ZM328.132 363C327.732 363 327.397 362.875 327.127 362.625C326.867 362.375 326.702 362.04 326.632 361.62H326.542C326.422 362.13 326.157 362.52 325.747 362.79C325.337 363.05 324.832 363.18 324.232 363.18C323.442 363.18 322.837 362.97 322.417 362.55C321.997 362.13 321.787 361.575 321.787 360.885C321.787 360.055 322.087 359.44 322.687 359.04C323.297 358.63 324.122 358.425 325.162 358.425H326.407V357.93C326.407 357.55 326.307 357.25 326.107 357.03C325.907 356.8 325.572 356.685 325.102 356.685C324.662 356.685 324.312 356.78 324.052 356.97C323.792 357.16 323.577 357.375 323.407 357.615L322.087 356.445C322.407 355.975 322.807 355.61 323.287 355.35C323.777 355.08 324.437 354.945 325.267 354.945C326.387 354.945 327.227 355.19 327.787 355.68C328.347 356.17 328.627 356.885 328.627 357.825V361.275H329.362V363H328.132ZM325.057 361.635C325.427 361.635 325.742 361.555 326.002 361.395C326.272 361.235 326.407 360.975 326.407 360.615V359.685H325.327C324.457 359.685 324.022 359.98 324.022 360.57V360.795C324.022 361.085 324.112 361.3 324.292 361.44C324.472 361.57 324.727 361.635 325.057 361.635ZM330.852 355.125H333.072V356.445H333.147C333.257 356.005 333.507 355.645 333.897 355.365C334.297 355.085 334.752 354.945 335.262 354.945C336.262 354.945 337.017 355.295 337.527 355.995C338.037 356.695 338.292 357.715 338.292 359.055C338.292 360.395 338.037 361.42 337.527 362.13C337.017 362.83 336.262 363.18 335.262 363.18C335.002 363.18 334.757 363.14 334.527 363.06C334.297 362.99 334.087 362.89 333.897 362.76C333.717 362.62 333.562 362.46 333.432 362.28C333.302 362.09 333.207 361.89 333.147 361.68H333.072V366H330.852V355.125ZM334.527 361.38C334.947 361.38 335.292 361.235 335.562 360.945C335.842 360.645 335.982 360.245 335.982 359.745V358.38C335.982 357.88 335.842 357.485 335.562 357.195C335.292 356.895 334.947 356.745 334.527 356.745C334.107 356.745 333.757 356.85 333.477 357.06C333.207 357.26 333.072 357.54 333.072 357.9V360.225C333.072 360.585 333.207 360.87 333.477 361.08C333.757 361.28 334.107 361.38 334.527 361.38ZM339.978 355.125H342.198V356.445H342.273C342.383 356.005 342.633 355.645 343.023 355.365C343.423 355.085 343.878 354.945 344.388 354.945C345.388 354.945 346.143 355.295 346.653 355.995C347.163 356.695 347.418 357.715 347.418 359.055C347.418 360.395 347.163 361.42 346.653 362.13C346.143 362.83 345.388 363.18 344.388 363.18C344.128 363.18 343.883 363.14 343.653 363.06C343.423 362.99 343.213 362.89 343.023 362.76C342.843 362.62 342.688 362.46 342.558 362.28C342.428 362.09 342.333 361.89 342.273 361.68H342.198V366H339.978V355.125ZM343.653 361.38C344.073 361.38 344.418 361.235 344.688 360.945C344.968 360.645 345.108 360.245 345.108 359.745V358.38C345.108 357.88 344.968 357.485 344.688 357.195C344.418 356.895 344.073 356.745 343.653 356.745C343.233 356.745 342.883 356.85 342.603 357.06C342.333 357.26 342.198 357.54 342.198 357.9V360.225C342.198 360.585 342.333 360.87 342.603 361.08C342.883 361.28 343.233 361.38 343.653 361.38ZM350.175 363.165C349.725 363.165 349.39 363.055 349.17 362.835C348.96 362.605 348.855 362.315 348.855 361.965V361.665C348.855 361.315 348.96 361.03 349.17 360.81C349.39 360.58 349.725 360.465 350.175 360.465C350.625 360.465 350.955 360.58 351.165 360.81C351.385 361.03 351.495 361.315 351.495 361.665V361.965C351.495 362.315 351.385 362.605 351.165 362.835C350.955 363.055 350.625 363.165 350.175 363.165ZM356.488 363.18C355.898 363.18 355.373 363.085 354.913 362.895C354.453 362.695 354.068 362.42 353.758 362.07C353.448 361.71 353.213 361.275 353.053 360.765C352.893 360.255 352.813 359.685 352.813 359.055C352.813 358.425 352.893 357.86 353.053 357.36C353.213 356.85 353.448 356.415 353.758 356.055C354.068 355.695 354.453 355.42 354.913 355.23C355.373 355.04 355.898 354.945 356.488 354.945C357.288 354.945 357.953 355.125 358.483 355.485C359.023 355.845 359.408 356.35 359.638 357L357.838 357.78C357.768 357.48 357.623 357.225 357.403 357.015C357.183 356.805 356.878 356.7 356.488 356.7C356.038 356.7 355.698 356.85 355.468 357.15C355.238 357.44 355.123 357.835 355.123 358.335V359.805C355.123 360.305 355.238 360.7 355.468 360.99C355.698 361.28 356.038 361.425 356.488 361.425C356.888 361.425 357.203 361.32 357.433 361.11C357.673 360.89 357.848 360.605 357.958 360.255L359.683 361.005C359.423 361.755 359.018 362.305 358.468 362.655C357.928 363.005 357.268 363.18 356.488 363.18ZM364.179 363.18C363.599 363.18 363.079 363.085 362.619 362.895C362.169 362.705 361.784 362.43 361.464 362.07C361.154 361.71 360.914 361.275 360.744 360.765C360.574 360.255 360.489 359.685 360.489 359.055C360.489 358.425 360.574 357.855 360.744 357.345C360.914 356.835 361.154 356.405 361.464 356.055C361.784 355.695 362.169 355.42 362.619 355.23C363.079 355.04 363.599 354.945 364.179 354.945C364.759 354.945 365.274 355.04 365.724 355.23C366.184 355.42 366.569 355.695 366.879 356.055C367.199 356.405 367.444 356.835 367.614 357.345C367.784 357.855 367.869 358.425 367.869 359.055C367.869 359.685 367.784 360.255 367.614 360.765C367.444 361.275 367.199 361.71 366.879 362.07C366.569 362.43 366.184 362.705 365.724 362.895C365.274 363.085 364.759 363.18 364.179 363.18ZM364.179 361.425C364.619 361.425 364.959 361.29 365.199 361.02C365.439 360.75 365.559 360.365 365.559 359.865V358.26C365.559 357.76 365.439 357.375 365.199 357.105C364.959 356.835 364.619 356.7 364.179 356.7C363.739 356.7 363.399 356.835 363.159 357.105C362.919 357.375 362.799 357.76 362.799 358.26V359.865C362.799 360.365 362.919 360.75 363.159 361.02C363.399 361.29 363.739 361.425 364.179 361.425ZM368.461 365.265L372.931 351.9H374.761L370.291 365.265H368.461ZM381.57 363C381.17 363 380.835 362.875 380.565 362.625C380.305 362.375 380.14 362.04 380.07 361.62H379.98C379.86 362.13 379.595 362.52 379.185 362.79C378.775 363.05 378.27 363.18 377.67 363.18C376.88 363.18 376.275 362.97 375.855 362.55C375.435 362.13 375.225 361.575 375.225 360.885C375.225 360.055 375.525 359.44 376.125 359.04C376.735 358.63 377.56 358.425 378.6 358.425H379.845V357.93C379.845 357.55 379.745 357.25 379.545 357.03C379.345 356.8 379.01 356.685 378.54 356.685C378.1 356.685 377.75 356.78 377.49 356.97C377.23 357.16 377.015 357.375 376.845 357.615L375.525 356.445C375.845 355.975 376.245 355.61 376.725 355.35C377.215 355.08 377.875 354.945 378.705 354.945C379.825 354.945 380.665 355.19 381.225 355.68C381.785 356.17 382.065 356.885 382.065 357.825V361.275H382.8V363H381.57ZM378.495 361.635C378.865 361.635 379.18 361.555 379.44 361.395C379.71 361.235 379.845 360.975 379.845 360.615V359.685H378.765C377.895 359.685 377.46 359.98 377.46 360.57V360.795C377.46 361.085 377.55 361.3 377.73 361.44C377.91 361.57 378.165 361.635 378.495 361.635ZM388.94 361.68H388.865C388.795 361.88 388.7 362.07 388.58 362.25C388.47 362.43 388.325 362.59 388.145 362.73C387.965 362.87 387.75 362.98 387.5 363.06C387.26 363.14 386.98 363.18 386.66 363.18C385.85 363.18 385.235 362.915 384.815 362.385C384.405 361.845 384.2 361.075 384.2 360.075V355.125H386.42V359.88C386.42 360.36 386.505 360.73 386.675 360.99C386.845 361.25 387.135 361.38 387.545 361.38C387.715 361.38 387.885 361.355 388.055 361.305C388.225 361.255 388.375 361.185 388.505 361.095C388.635 360.995 388.74 360.875 388.82 360.735C388.9 360.595 388.94 360.43 388.94 360.24V355.125H391.16V363H388.94V361.68ZM395.985 363C395.215 363 394.63 362.805 394.23 362.415C393.84 362.025 393.645 361.455 393.645 360.705V356.85H392.535V355.125H393.09C393.39 355.125 393.595 355.055 393.705 354.915C393.815 354.765 393.87 354.555 393.87 354.285V352.995H395.865V355.125H397.425V356.85H395.865V361.275H397.305V363H395.985ZM398.968 351.9H401.188V356.46H401.278C401.418 356.05 401.663 355.695 402.013 355.395C402.363 355.095 402.848 354.945 403.468 354.945C404.278 354.945 404.888 355.215 405.298 355.755C405.718 356.295 405.928 357.065 405.928 358.065V363H403.708V358.245C403.708 357.735 403.628 357.36 403.468 357.12C403.308 356.87 403.023 356.745 402.613 356.745C402.433 356.745 402.258 356.77 402.088 356.82C401.918 356.86 401.763 356.93 401.623 357.03C401.493 357.13 401.388 357.255 401.308 357.405C401.228 357.545 401.188 357.71 401.188 357.9V363H398.968V351.9Z" fill="white"/>
<path d="M182.073 346.636L175.143 352.186C174.363 352.806 173.863 354.116 174.033 355.096L175.363 363.056C175.603 364.476 176.963 365.626 178.403 365.626H189.603C191.033 365.626 192.403 364.466 192.643 363.056L193.973 355.096C194.133 354.116 193.633 352.806 192.863 352.186L185.933 346.646C184.863 345.786 183.133 345.786 182.073 346.636Z" fill="white"/>
<defs>
<filter id="filter0_bd_59_4190" x="550" y="95" width="146" height="148" filterUnits="userSpaceOnUse" color-interpolation-filters="sRGB">
<feFlood flood-opacity="0" result="BackgroundImageFix"/>
<feGaussianBlur in="BackgroundImageFix" stdDeviation="1"/>
<feComposite in2="SourceAlpha" operator="in" result="effect1_backgroundBlur_59_4190"/>
<feColorMatrix in="SourceAlpha" type="matrix" values="0 0 0 0 0 0 0 0 0 0 0 0 0 0 0 0 0 0 127 0" result="hardAlpha"/>
<feMorphology radius="10" operator="erode" in="SourceAlpha" result="effect2_dropShadow_59_4190"/>
<feOffset dx="14" dy="16"/>
<feGaussianBlur stdDeviation="9"/>
<feComposite in2="hardAlpha" operator="out"/>
<feColorMatrix type="matrix" values="0 0 0 0 0 0 0 0 0 0 0 0 0 0 0 0 0 0 0.2 0"/>
<feBlend mode="normal" in2="effect1_backgroundBlur_59_4190" result="effect2_dropShadow_59_4190"/>
<feBlend mode="normal" in="SourceGraphic" in2="effect2_dropShadow_59_4190" result="shape"/>
</filter>
<filter id="filter1_bd_59_4190" x="459" y="177" width="146" height="148" filterUnits="userSpaceOnUse" color-interpolation-filters="sRGB">
<feFlood flood-opacity="0" result="BackgroundImageFix"/>
<feGaussianBlur in="BackgroundImageFix" stdDeviation="1"/>
<feComposite in2="SourceAlpha" operator="in" result="effect1_backgroundBlur_59_4190"/>
<feColorMatrix in="SourceAlpha" type="matrix" values="0 0 0 0 0 0 0 0 0 0 0 0 0 0 0 0 0 0 127 0" result="hardAlpha"/>
<feMorphology radius="10" operator="erode" in="SourceAlpha" result="effect2_dropShadow_59_4190"/>
<feOffset dx="14" dy="16"/>
<feGaussianBlur stdDeviation="9"/>
<feComposite in2="hardAlpha" operator="out"/>
<feColorMatrix type="matrix" values="0 0 0 0 0 0 0 0 0 0 0 0 0 0 0 0 0 0 0.2 0"/>
<feBlend mode="normal" in2="effect1_backgroundBlur_59_4190" result="effect2_dropShadow_59_4190"/>
<feBlend mode="normal" in="SourceGraphic" in2="effect2_dropShadow_59_4190" result="shape"/>
</filter>
<filter id="filter2_bd_59_4190" x="336" y="99" width="146" height="148" filterUnits="userSpaceOnUse" color-interpolation-filters="sRGB">
<feFlood flood-opacity="0" result="BackgroundImageFix"/>
<feGaussianBlur in="BackgroundImageFix" stdDeviation="1"/>
<feComposite in2="SourceAlpha" operator="in" result="effect1_backgroundBlur_59_4190"/>
<feColorMatrix in="SourceAlpha" type="matrix" values="0 0 0 0 0 0 0 0 0 0 0 0 0 0 0 0 0 0 127 0" result="hardAlpha"/>
<feMorphology radius="10" operator="erode" in="SourceAlpha" result="effect2_dropShadow_59_4190"/>
<feOffset dx="14" dy="16"/>
<feGaussianBlur stdDeviation="9"/>
<feComposite in2="hardAlpha" operator="out"/>
<feColorMatrix type="matrix" values="0 0 0 0 0 0 0 0 0 0 0 0 0 0 0 0 0 0 0.2 0"/>
<feBlend mode="normal" in2="effect1_backgroundBlur_59_4190" result="effect2_dropShadow_59_4190"/>
<feBlend mode="normal" in="SourceGraphic" in2="effect2_dropShadow_59_4190" result="shape"/>
</filter>
<clipPath id="clip0_59_4190">
<rect width="73" height="66" fill="white" transform="translate(578 125)"/>
</clipPath>
</defs>
</svg>
