<svg width="177" height="40" viewBox="0 0 177 40" fill="none" xmlns="http://www.w3.org/2000/svg">
<path d="M33.4011 3C33.3661 3 33.3253 3 33.283 3C30.8608 3 28.5553 3.50308 26.467 4.41155L26.5779 4.36926C24.4167 5.29814 22.5705 6.56095 21.0146 8.11395C19.463 9.66986 18.2001 11.516 17.3135 13.5633L17.2697 13.677C16.405 15.6544 15.9004 17.9598 15.9004 20.3819V20.5058V20.5V20.6181C15.9004 23.0402 16.4035 25.3456 17.312 27.4338L17.2697 27.323C18.1972 29.484 19.4586 31.3287 21.0102 32.8861C22.5662 34.4376 24.4123 35.7019 26.4597 36.587L26.5735 36.6307C28.5509 37.4955 30.8564 38 33.2786 38H33.4084H33.4011H33.5192C35.9414 38 38.247 37.4969 40.3352 36.5885L40.2244 36.6307C42.3855 35.7019 44.2317 34.439 45.7877 32.8861C47.3393 31.3301 48.6036 29.484 49.4888 27.4367L49.5325 27.323C50.3973 25.3456 50.9004 23.0417 50.9004 20.621C50.9004 20.5787 50.9004 20.5365 50.9004 20.4942V20.5C50.9004 20.465 50.9004 20.4242 50.9004 20.3819C50.9004 17.9598 50.3973 15.6544 49.4888 13.5662L49.5311 13.677C48.6022 11.516 47.3393 9.66986 45.7862 8.11395C44.2303 6.56241 42.3841 5.2996 40.3367 4.41301L40.2229 4.36926C38.2455 3.50454 35.9414 3.00146 33.5207 3.00146C33.4784 3.00146 33.4347 3.00146 33.3924 3.00146H33.3982L33.4011 3ZM37.3253 9.01221C37.6214 8.4785 38.1172 8.0877 38.7092 7.93605L38.7253 7.93313C38.909 7.88063 39.119 7.85001 39.3363 7.85001C39.7767 7.85001 40.1865 7.97542 40.535 8.19123L40.5248 8.1854C41.0585 8.48142 41.4493 8.97721 41.601 9.56924L41.6039 9.58528C41.6579 9.7661 41.6885 9.97171 41.6885 10.1861C41.6885 10.6177 41.5631 11.0187 41.3458 11.357L41.3516 11.3483C41.0556 11.882 40.5598 12.2728 39.9677 12.4244L39.9531 12.4273C39.765 12.4842 39.5477 12.5163 39.3232 12.5163C38.9046 12.5163 38.5138 12.4025 38.1784 12.2057L38.1886 12.2115C37.6549 11.9155 37.2641 11.4197 37.1124 10.8277L37.1095 10.8116C37.0541 10.6206 37.022 10.4004 37.022 10.1715C37.022 9.74569 37.1343 9.34614 37.3326 9.00054L37.3268 9.01221H37.3253ZM33.4011 10.3436H33.4259C33.9057 10.3436 34.3782 10.3756 34.8404 10.4398L34.7865 10.434C35.2925 10.5025 35.7373 10.5973 36.1704 10.7198L36.1018 10.7023C36.1791 11.2068 36.3629 11.6574 36.6312 12.0453L36.6239 12.0351C36.9097 12.4507 37.2772 12.789 37.7059 13.034L37.722 13.0427C38.1215 13.2702 38.594 13.4189 39.0971 13.4568H39.1073C39.1846 13.4641 39.275 13.467 39.3655 13.467C39.7709 13.467 40.1588 13.3898 40.5146 13.2512L40.4927 13.2585C41.3443 14.0912 42.0516 15.0667 42.5722 16.1502L42.5984 16.2114C43.1161 17.273 43.4472 18.5139 43.5157 19.8234L43.5172 19.8467L40.204 19.8832C40.0421 18.1246 39.2298 16.5818 38.0136 15.4779L38.0078 15.4735C36.8383 14.3478 35.2444 13.6537 33.4901 13.6537C33.458 13.6537 33.4259 13.6537 33.3938 13.6537H33.3982C33.3967 13.6537 33.3967 13.6537 33.3953 13.6537C32.8659 13.6537 32.3512 13.7193 31.8597 13.8433L31.9035 13.8345C31.3683 13.9643 30.9075 14.1232 30.4656 14.3216L30.5167 14.3011L28.8965 11.3847C29.5104 11.0712 30.2235 10.8058 30.9702 10.6235L31.0373 10.6104C31.7299 10.4427 32.5247 10.345 33.3413 10.345H33.3997H33.3967L33.4011 10.3436ZM21.5147 22.839C21.5045 22.839 21.4914 22.839 21.4797 22.839C20.8439 22.839 20.2694 22.575 19.8596 22.1522C19.4352 21.7409 19.1713 21.1664 19.1713 20.5292C19.1713 20.5175 19.1713 20.5058 19.1713 20.4927C19.1713 20.481 19.1713 20.4694 19.1713 20.4563C19.1713 19.8219 19.4338 19.2489 19.8552 18.8391C20.265 18.4177 20.8396 18.1552 21.4739 18.1552H21.5147H21.5381C22.1666 18.1552 22.7353 18.4177 23.1378 18.8376L23.1393 18.8391C23.5607 19.2489 23.8232 19.8234 23.8232 20.4577V20.4985V20.4971V20.535C23.8232 21.1693 23.5607 21.7424 23.1393 22.1522C22.7353 22.5765 22.1651 22.839 21.5352 22.839C21.5293 22.839 21.5235 22.839 21.5177 22.839H21.5147ZM23.5665 23.0548C23.9253 22.7413 24.2213 22.3651 24.4386 21.9422L24.4488 21.9218C24.6646 21.5135 24.79 21.0279 24.79 20.5146C24.79 20.5102 24.79 20.5044 24.79 20.5C24.79 20.4956 24.79 20.4927 24.79 20.4869C24.79 19.9721 24.6632 19.488 24.44 19.0622L24.4488 19.0797C24.2213 18.6364 23.9253 18.2602 23.5709 17.9496L23.5665 17.9452C23.8946 16.6678 24.4342 15.5494 25.1517 14.5695L25.1327 14.5972C25.8662 13.5925 26.7426 12.7452 27.743 12.0642L27.7795 12.0409L29.4711 14.9209C28.6034 15.5552 27.8961 16.3543 27.3828 17.2774L27.3639 17.3138C26.8549 18.2164 26.5545 19.2941 26.5545 20.4431V20.5029V20.5V20.5583C26.5545 21.7045 26.8476 22.7821 27.3639 23.7197L27.3464 23.6862C27.8728 24.6544 28.5874 25.455 29.4492 26.066L29.4711 26.0806L27.778 28.962C26.7412 28.2591 25.8648 27.4105 25.1517 26.4364L25.1313 26.4072C24.4327 25.455 23.8932 24.3366 23.5811 23.1262L23.5665 23.0592V23.0548ZM40.5233 32.8102C40.1879 33.0202 39.7811 33.1456 39.345 33.1456C39.1292 33.1456 38.9221 33.115 38.7253 33.0581L38.7413 33.0625C38.1318 32.8992 37.6316 32.5098 37.3253 31.9936L37.3195 31.9834C37.1285 31.6495 37.0147 31.2499 37.0147 30.8241C37.0147 30.5967 37.0468 30.375 37.1066 30.1665L37.1022 30.1825C37.2582 29.5745 37.6491 29.0787 38.1711 28.7885L38.1828 28.7826C38.508 28.5902 38.8988 28.4779 39.3173 28.4779C39.5419 28.4779 39.7577 28.51 39.9633 28.5712L39.9473 28.5668C40.5554 28.7229 41.0512 29.1137 41.3414 29.6357L41.3472 29.6474C41.5587 29.9769 41.6841 30.3779 41.6841 30.8096C41.6841 31.0239 41.6535 31.231 41.5952 31.4264L41.5995 31.4103C41.445 32.017 41.0556 32.5127 40.535 32.8044L40.5233 32.8102ZM40.4883 27.7342C40.1529 27.6015 39.7665 27.5257 39.3611 27.5257C39.2707 27.5257 39.1803 27.53 39.0913 27.5373L39.103 27.5359C38.5897 27.5738 38.1172 27.7225 37.7016 27.9588L37.7176 27.95C37.2743 28.2037 36.9068 28.542 36.6268 28.9474L36.6195 28.9591C36.3585 29.3368 36.1733 29.7873 36.0989 30.2729L36.096 30.2904C35.7329 30.3969 35.2881 30.4917 34.8331 30.5544L34.7821 30.5602C34.3738 30.6171 33.9013 30.6506 33.4215 30.6506C33.4128 30.6506 33.404 30.6506 33.3953 30.6506H33.3967C33.3865 30.6506 33.3734 30.6506 33.3617 30.6506C32.5378 30.6506 31.7358 30.5529 30.9687 30.3663L31.0387 30.3808C30.2235 30.1854 29.5104 29.92 28.8411 29.5803L28.898 29.6065L30.5181 26.6901C30.9075 26.8666 31.3697 27.027 31.8481 27.1451L31.9035 27.1567C32.3512 27.2705 32.8659 27.3361 33.3953 27.3361H33.3982H33.4886C35.2429 27.3361 36.8368 26.642 38.0093 25.5148L38.0078 25.5162C39.2313 24.4051 40.045 22.8608 40.2025 21.127L40.204 21.1008L43.5172 21.1372C43.4486 22.47 43.1176 23.711 42.5737 24.8294L42.5984 24.7726C42.0501 25.9202 41.3429 26.8986 40.4912 27.7313L40.4898 27.7327L40.4883 27.7342Z" fill="white"/>
<path d="M65.8398 28V10.9609H69.3086V25.1055H77.9336V28H65.8398ZM80.3945 13.8672V10.8203H83.6875V13.8672H80.3945ZM80.3945 28V15.5547H83.6875V28H80.3945ZM98.3945 28H95.1016V21.6484C95.1016 20.3047 95.0312 19.4375 94.8906 19.0469C94.75 18.6484 94.5195 18.3398 94.1992 18.1211C93.8867 17.9023 93.5078 17.793 93.0625 17.793C92.4922 17.793 91.9805 17.9492 91.5273 18.2617C91.0742 18.5742 90.7617 18.9883 90.5898 19.5039C90.4258 20.0195 90.3438 20.9727 90.3438 22.3633V28H87.0508V15.5547H90.1094V17.3828C91.1953 15.9766 92.5625 15.2734 94.2109 15.2734C94.9375 15.2734 95.6016 15.4062 96.2031 15.6719C96.8047 15.9297 97.2578 16.2617 97.5625 16.668C97.875 17.0742 98.0898 17.5352 98.207 18.0508C98.332 18.5664 98.3945 19.3047 98.3945 20.2656V28ZM109.938 28V26.1367C109.484 26.8008 108.887 27.3242 108.145 27.707C107.41 28.0898 106.633 28.2812 105.812 28.2812C104.977 28.2812 104.227 28.0977 103.562 27.7305C102.898 27.3633 102.418 26.8477 102.121 26.1836C101.824 25.5195 101.676 24.6016 101.676 23.4297V15.5547H104.969V21.2734C104.969 23.0234 105.027 24.0977 105.145 24.4961C105.27 24.8867 105.492 25.1992 105.812 25.4336C106.133 25.6602 106.539 25.7734 107.031 25.7734C107.594 25.7734 108.098 25.6211 108.543 25.3164C108.988 25.0039 109.293 24.6211 109.457 24.168C109.621 23.707 109.703 22.5859 109.703 20.8047V15.5547H112.996V28H109.938ZM114.836 28L119.324 21.5898L115.023 15.5547H119.043L121.246 18.9766L123.566 15.5547H127.434L123.215 21.4492L127.82 28H123.777L121.246 24.1445L118.691 28H114.836Z" fill="white"/>
</svg>
