<svg width="156" height="40" viewBox="0 0 156 40" fill="none" xmlns="http://www.w3.org/2000/svg">
<path d="M31.3952 8.58213C32.0567 7.81967 32.5612 6.93404 32.8795 5.97609C33.1978 5.01815 33.3237 4.00676 33.2501 3C31.2191 3.16394 29.3338 4.11915 28.0004 5.65982C27.3619 6.39823 26.878 7.25726 26.5774 8.18603C26.2769 9.11481 26.1657 10.0945 26.2505 11.067C27.2412 11.0752 28.2205 10.8554 29.1126 10.4245C30.0048 9.99362 30.7858 9.36323 31.3952 8.58213ZM35.8049 21.6013C35.8166 20.2604 36.1698 18.9446 36.8312 17.7781C37.4925 16.6116 38.4401 15.6329 39.5847 14.9342C38.8623 13.8934 37.9075 13.0353 36.7958 12.4278C35.6841 11.8203 34.4461 11.4802 33.1801 11.4344C30.4503 11.1545 27.9304 13.0268 26.478 13.0268C25.0256 13.0268 22.9783 11.4694 20.7034 11.5044C19.2162 11.5534 17.7671 11.987 16.4975 12.7629C15.2278 13.5388 14.1809 14.6306 13.4589 15.9316C10.3791 21.2863 12.6714 29.2483 15.7512 33.5705C17.1512 35.6878 18.901 38.0852 21.2109 37.9977C23.5207 37.9102 24.2732 36.5628 26.9505 36.5628C29.6278 36.5628 30.4503 37.9977 32.7251 37.9452C35 37.8927 36.6099 35.7753 38.0798 33.658C39.121 32.1207 39.9344 30.4409 40.4946 28.6708C39.1078 28.0794 37.9246 27.0946 37.0911 25.8383C36.2577 24.5819 35.8106 23.1089 35.8049 21.6013Z" fill="white"/>
<path d="M55.6992 32V14.8203H60.8906L64.0078 26.5391L67.0898 14.8203H72.293V32H69.0703V18.4766L65.6602 32H62.3203L58.9219 18.4766V32H55.6992ZM78.1758 23.3516L75.1875 22.8125C75.5234 21.6094 76.1016 20.7188 76.9219 20.1406C77.7422 19.5625 78.9609 19.2734 80.5781 19.2734C82.0469 19.2734 83.1406 19.4492 83.8594 19.8008C84.5781 20.1445 85.082 20.5859 85.3711 21.125C85.668 21.6562 85.8164 22.6367 85.8164 24.0664L85.7812 27.9102C85.7812 29.0039 85.832 29.8125 85.9336 30.3359C86.043 30.8516 86.2422 31.4062 86.5312 32H83.2734C83.1875 31.7812 83.082 31.457 82.957 31.0273C82.9023 30.832 82.8633 30.7031 82.8398 30.6406C82.2773 31.1875 81.6758 31.5977 81.0352 31.8711C80.3945 32.1445 79.7109 32.2812 78.9844 32.2812C77.7031 32.2812 76.6914 31.9336 75.9492 31.2383C75.2148 30.543 74.8477 29.6641 74.8477 28.6016C74.8477 27.8984 75.0156 27.2734 75.3516 26.7266C75.6875 26.1719 76.1562 25.75 76.7578 25.4609C77.3672 25.1641 78.2422 24.9062 79.3828 24.6875C80.9219 24.3984 81.9883 24.1289 82.582 23.8789V23.5508C82.582 22.918 82.4258 22.4688 82.1133 22.2031C81.8008 21.9297 81.2109 21.793 80.3438 21.793C79.7578 21.793 79.3008 21.9102 78.9727 22.1445C78.6445 22.3711 78.3789 22.7734 78.1758 23.3516ZM82.582 26.0234C82.1602 26.1641 81.4922 26.332 80.5781 26.5273C79.6641 26.7227 79.0664 26.9141 78.7852 27.1016C78.3555 27.4062 78.1406 27.793 78.1406 28.2617C78.1406 28.7227 78.3125 29.1211 78.6562 29.457C79 29.793 79.4375 29.9609 79.9688 29.9609C80.5625 29.9609 81.1289 29.7656 81.668 29.375C82.0664 29.0781 82.3281 28.7148 82.4531 28.2852C82.5391 28.0039 82.582 27.4688 82.582 26.6797V26.0234ZM99.9258 23.2344L96.6797 23.8203C96.5703 23.1719 96.3203 22.6836 95.9297 22.3555C95.5469 22.0273 95.0469 21.8633 94.4297 21.8633C93.6094 21.8633 92.9531 22.1484 92.4609 22.7188C91.9766 23.2812 91.7344 24.2266 91.7344 25.5547C91.7344 27.0312 91.9805 28.0742 92.4727 28.6836C92.9727 29.293 93.6406 29.5977 94.4766 29.5977C95.1016 29.5977 95.6133 29.4219 96.0117 29.0703C96.4102 28.7109 96.6914 28.0977 96.8555 27.2305L100.09 27.7812C99.7539 29.2656 99.1094 30.3867 98.1562 31.1445C97.2031 31.9023 95.9258 32.2812 94.3242 32.2812C92.5039 32.2812 91.0508 31.707 89.9648 30.5586C88.8867 29.4102 88.3477 27.8203 88.3477 25.7891C88.3477 23.7344 88.8906 22.1367 89.9766 20.9961C91.0625 19.8477 92.5312 19.2734 94.3828 19.2734C95.8984 19.2734 97.1016 19.6016 97.9922 20.2578C98.8906 20.9062 99.5352 21.8984 99.9258 23.2344ZM101.754 23.5156C101.754 21.7656 102.016 20.2969 102.539 19.1094C102.93 18.2344 103.461 17.4492 104.133 16.7539C104.812 16.0586 105.555 15.543 106.359 15.207C107.43 14.7539 108.664 14.5273 110.062 14.5273C112.594 14.5273 114.617 15.3125 116.133 16.8828C117.656 18.4531 118.418 20.6367 118.418 23.4336C118.418 26.207 117.664 28.3789 116.156 29.9492C114.648 31.5117 112.633 32.293 110.109 32.293C107.555 32.293 105.523 31.5156 104.016 29.9609C102.508 28.3984 101.754 26.25 101.754 23.5156ZM105.328 23.3984C105.328 25.3438 105.777 26.8203 106.676 27.8281C107.574 28.8281 108.715 29.3281 110.098 29.3281C111.48 29.3281 112.613 28.832 113.496 27.8398C114.387 26.8398 114.832 25.3438 114.832 23.3516C114.832 21.3828 114.398 19.9141 113.531 18.9453C112.672 17.9766 111.527 17.4922 110.098 17.4922C108.668 17.4922 107.516 17.9844 106.641 18.9688C105.766 19.9453 105.328 21.4219 105.328 23.3984ZM120.258 26.4102L123.633 26.082C123.836 27.2148 124.246 28.0469 124.863 28.5781C125.488 29.1094 126.328 29.375 127.383 29.375C128.5 29.375 129.34 29.1406 129.902 28.6719C130.473 28.1953 130.758 27.6406 130.758 27.0078C130.758 26.6016 130.637 26.2578 130.395 25.9766C130.16 25.6875 129.746 25.4375 129.152 25.2266C128.746 25.0859 127.82 24.8359 126.375 24.4766C124.516 24.0156 123.211 23.4492 122.461 22.7773C121.406 21.832 120.879 20.6797 120.879 19.3203C120.879 18.4453 121.125 17.6289 121.617 16.8711C122.117 16.1055 122.832 15.5234 123.762 15.125C124.699 14.7266 125.828 14.5273 127.148 14.5273C129.305 14.5273 130.926 15 132.012 15.9453C133.105 16.8906 133.68 18.1523 133.734 19.7305L130.266 19.8828C130.117 19 129.797 18.3672 129.305 17.9844C128.82 17.5938 128.09 17.3984 127.113 17.3984C126.105 17.3984 125.316 17.6055 124.746 18.0195C124.379 18.2852 124.195 18.6406 124.195 19.0859C124.195 19.4922 124.367 19.8398 124.711 20.1289C125.148 20.4961 126.211 20.8789 127.898 21.2773C129.586 21.6758 130.832 22.0898 131.637 22.5195C132.449 22.9414 133.082 23.5234 133.535 24.2656C133.996 25 134.227 25.9102 134.227 26.9961C134.227 27.9805 133.953 28.9023 133.406 29.7617C132.859 30.6211 132.086 31.2617 131.086 31.6836C130.086 32.0977 128.84 32.3047 127.348 32.3047C125.176 32.3047 123.508 31.8047 122.344 30.8047C121.18 29.7969 120.484 28.332 120.258 26.4102Z" fill="white"/>
</svg>
