<svg width="167" height="40" viewBox="0 0 167 40" fill="none" xmlns="http://www.w3.org/2000/svg">
<g clip-path="url(#clip0_40_171)">
<path d="M6.5 5H20.7215V19.2154H6.5V5ZM22.2785 5H36.5V19.2154H22.2785V5ZM6.5 20.7785H20.7215V35H6.5V20.7785ZM22.2785 20.7785H36.5V35H22.2785" fill="white"/>
<path d="M54.6836 28L50.582 10.8203H54.1328L56.7227 22.6211L59.8633 10.8203H63.9883L67 22.8203L69.6367 10.8203H73.1289L68.957 28H65.2773L61.8555 15.1562L58.4453 28H54.6836ZM74.6758 13.8672V10.8203H77.9688V13.8672H74.6758ZM74.6758 28V15.5547H77.9688V28H74.6758ZM92.6758 28H89.3828V21.6484C89.3828 20.3047 89.3125 19.4375 89.1719 19.0469C89.0312 18.6484 88.8008 18.3398 88.4805 18.1211C88.168 17.9023 87.7891 17.793 87.3438 17.793C86.7734 17.793 86.2617 17.9492 85.8086 18.2617C85.3555 18.5742 85.043 18.9883 84.8711 19.5039C84.707 20.0195 84.625 20.9727 84.625 22.3633V28H81.332V15.5547H84.3906V17.3828C85.4766 15.9766 86.8438 15.2734 88.4922 15.2734C89.2188 15.2734 89.8828 15.4062 90.4844 15.6719C91.0859 15.9297 91.5391 16.2617 91.8438 16.668C92.1562 17.0742 92.3711 17.5352 92.4883 18.0508C92.6133 18.5664 92.6758 19.3047 92.6758 20.2656V28ZM107.441 28H104.383V26.1719C103.875 26.8828 103.273 27.4141 102.578 27.7656C101.891 28.1094 101.195 28.2812 100.492 28.2812C99.0625 28.2812 97.8359 27.707 96.8125 26.5586C95.7969 25.4023 95.2891 23.793 95.2891 21.7305C95.2891 19.6211 95.7852 18.0195 96.7773 16.9258C97.7695 15.8242 99.0234 15.2734 100.539 15.2734C101.93 15.2734 103.133 15.8516 104.148 17.0078V10.8203H107.441V28ZM98.6523 21.5078C98.6523 22.8359 98.8359 23.7969 99.2031 24.3906C99.7344 25.25 100.477 25.6797 101.43 25.6797C102.188 25.6797 102.832 25.3594 103.363 24.7188C103.895 24.0703 104.16 23.1055 104.16 21.8242C104.16 20.3945 103.902 19.3672 103.387 18.7422C102.871 18.1094 102.211 17.793 101.406 17.793C100.625 17.793 99.9688 18.1055 99.4375 18.7305C98.9141 19.3477 98.6523 20.2734 98.6523 21.5078ZM109.938 21.6016C109.938 20.5078 110.207 19.4492 110.746 18.4258C111.285 17.4023 112.047 16.6211 113.031 16.082C114.023 15.543 115.129 15.2734 116.348 15.2734C118.23 15.2734 119.773 15.8867 120.977 17.1133C122.18 18.332 122.781 19.875 122.781 21.7422C122.781 23.625 122.172 25.1875 120.953 26.4297C119.742 27.6641 118.215 28.2812 116.371 28.2812C115.23 28.2812 114.141 28.0234 113.102 27.5078C112.07 26.9922 111.285 26.2383 110.746 25.2461C110.207 24.2461 109.938 23.0312 109.938 21.6016ZM113.312 21.7773C113.312 23.0117 113.605 23.957 114.191 24.6133C114.777 25.2695 115.5 25.5977 116.359 25.5977C117.219 25.5977 117.938 25.2695 118.516 24.6133C119.102 23.957 119.395 23.0039 119.395 21.7539C119.395 20.5352 119.102 19.5977 118.516 18.9414C117.938 18.2852 117.219 17.957 116.359 17.957C115.5 17.957 114.777 18.2852 114.191 18.9414C113.605 19.5977 113.312 20.543 113.312 21.7773ZM127.691 28L123.754 15.5547H126.953L129.285 23.7109L131.43 15.5547H134.605L136.68 23.7109L139.059 15.5547H142.305L138.309 28H135.145L133 19.9961L130.891 28H127.691ZM142.891 24.4492L146.195 23.9453C146.336 24.5859 146.621 25.0742 147.051 25.4102C147.48 25.7383 148.082 25.9023 148.855 25.9023C149.707 25.9023 150.348 25.7461 150.777 25.4336C151.066 25.2148 151.211 24.9219 151.211 24.5547C151.211 24.3047 151.133 24.0977 150.977 23.9336C150.812 23.7773 150.445 23.6328 149.875 23.5C147.219 22.9141 145.535 22.3789 144.824 21.8945C143.84 21.2227 143.348 20.2891 143.348 19.0938C143.348 18.0156 143.773 17.1094 144.625 16.375C145.477 15.6406 146.797 15.2734 148.586 15.2734C150.289 15.2734 151.555 15.5508 152.383 16.1055C153.211 16.6602 153.781 17.4805 154.094 18.5664L150.988 19.1406C150.855 18.6562 150.602 18.2852 150.227 18.0273C149.859 17.7695 149.332 17.6406 148.645 17.6406C147.777 17.6406 147.156 17.7617 146.781 18.0039C146.531 18.1758 146.406 18.3984 146.406 18.6719C146.406 18.9062 146.516 19.1055 146.734 19.2695C147.031 19.4883 148.055 19.7969 149.805 20.1953C151.562 20.5938 152.789 21.082 153.484 21.6602C154.172 22.2461 154.516 23.0625 154.516 24.1094C154.516 25.25 154.039 26.2305 153.086 27.0508C152.133 27.8711 150.723 28.2812 148.855 28.2812C147.16 28.2812 145.816 27.9375 144.824 27.25C143.84 26.5625 143.195 25.6289 142.891 24.4492Z" fill="white"/>
</g>
<defs>
<clipPath id="clip0_40_171">
<rect width="166" height="40" fill="white" transform="translate(0.5)"/>
</clipPath>
</defs>
</svg>
