<svg id="image-desktop" xmlns="http://www.w3.org/2000/svg" x="0" y="0" viewBox="0 0 980.6 548" style="enable-background:new 0 0 980.6 548" xml:space="preserve" class=""><style>.st2{display:inline}.st4{fill:#2c2d43}.st5{fill:#e86992}.st6{fill:#f7e734}.st7{fill:#f7f7f9}.st8{fill:#41e3b9}.st10{fill:#6b4b3e}.st11{fill:#c49f86}.st12{fill:#ffd6b0}.st13{fill:#f9f4fb}.st14{fill:#bda7e5}.st16{fill:#0e1821}.st17{fill:#344966}.st18{fill:#b4cdec}.st19{fill:#eff4ef}.st20{fill:#c0cc94}.st22{fill:#ff4a9e}.st23{fill:#d165b5}.st24{fill:#a580ce}.st25{fill:#779ce7}.st26{fill:#4bb6ff}.st28{fill:#485695}.st29{fill:#e7e7e7}.st30{fill:#f9c784}.st31{fill:#fc7b1d}.st32{fill:#f24c00}.st34{fill:#e27396}.st35{fill:#eb9ab4}.st36{fill:#efd0e4}.st37{fill:#eaf4d9}.st38{fill:#b0dfe2}.st40{fill:#17697b}.st41{fill:#4aa0b6}.st42{fill:#82c1cb}.st43{fill:#ece7e4}.st44{fill:#ffa62b}.st46{fill:#5ba8e6}.st47{fill:#80c8f9}.st48{fill:#f9f9f9}.st49{fill:#ffe55d}.st50{fill:#ff6392}.st52{fill:#d63f44}.st53{fill:#e9fffa}.st54{fill:#9ed9da}.st55{fill:#477699}.st56{fill:#1c3353}.st58{fill:#555863}.st59{fill:#00e8fc}.st60{fill:#f96e47}.st61{fill:#fac848}.st62{fill:#ffe3e2}.st64{fill:#10263a}.st65{fill:#09bcc0}.st66{fill:#c5d9d2}.st67{fill:#f5edeb}.st68{fill:#f3d1af}.st70{fill:#091e05}.st71{fill:#00512d}.st72{fill:#d87cab}.st73{fill:#f9b9c3}.st74{fill:#feda22}.st76{fill:#47403a}.st77{fill:#8a817c}.st78{fill:#bcb7b1}.st79{fill:#f4f3ef}.st80{fill:#e0afa1}.st82{fill:#21587b}.st83{fill:#37a3a5}.st84{fill:#57cc98}.st85{fill:#80eb9a}.st86{fill:#c6facc}.st88{fill:#f49098}.st89{fill:#dfb2f3}.st90{fill:#f5e960}.st91{fill:#f2f4ff}.st92{fill:#55d6c2}.st94{fill:#cdc393}.st95{fill:#e8e6da}.st96{fill:#9fb7e5}.st97{fill:#648de5}.st98{fill:#304e89}.st100{fill:#0a0904}.st101{fill:#fe0000}.st102{fill:#ff8203}.st103{fill:#ffc102}.st104{fill:#feebad}.st106{fill:#fbb001}.st107{fill:#ffd539}.st108{fill:#ffa3ae}.st109{fill:#017bbe}.st110{fill:#00ae55}.st112{fill:#7e6c6c}.st113{fill:#f97476}.st114{fill:#ffa9a2}.st115{fill:#b8e6ff}.st116{fill:#6390ff}.st118{fill:#07004d}.st119{fill:#2f81bd}.st120{fill:#41e2b8}.st121{fill:#f4debf}.st122{fill:#ea8b90}.st124{fill:#1d2f6f}.st125{fill:#7f91fe}.st126{fill:#fac748}.st127{fill:#f9e9ec}.st128{fill:#f98ead}.st130{fill:#00926e}.st131{fill:#ffede6}.st132{fill:#ffcf00}.st133{fill:#ef6222}.st134{fill:#fc003e}.st136{fill:#642ca9}.st137{fill:#ff34ac}.st138{fill:#ff74d5}.st139{fill:#ffb9df}.st140{fill:#ffdfe0}.st142{fill:#2c6f4b}.st143{fill:#4c9768}.st144{fill:#fefee4}.st145{fill:#fecab9}.st146{fill:#dc8945}.st148{fill:#030788}.st149{fill:#2f4392}.st150{fill:#647aa3}.st151{fill:#95b2b0}.st152{fill:#c6edbe}.st154{fill:#bef5dd}.st155{fill:#cce5d8}.st156{fill:#ded7d2}.st157{fill:#eec6ca}.st158{fill:#ffb7c4}.st160{fill:#655b7c}.st161{fill:#a994bd}.st162{fill:#afc1d7}.st163{fill:#cef9f2}.st164{fill:#d8ca96}.st166{fill:#656e79}.st167{fill:#8d98a8}.st168{fill:#dcccbc}.st169{fill:#ebb464}.st170{fill:#a77647}.st172{fill:#f18180}.st173{fill:#f4978f}.st174{fill:#faad9d}.st175{fill:#fcc5ab}.st176{fill:#fedabb}.st178{fill:#4059ad}.st179{fill:#6c9ac4}.st180{fill:#97d9c4}.st181{fill:#f0f2f1}.st182{fill:#f9b743}.st184{fill:#9b5de6}.st185{fill:#f15bb4}.st186{fill:#fde442}.st187{fill:#01bbfa}.st188{fill:#01f5d4}.st190{fill:#ff7577}.st191{fill:#e69597}.st192{fill:#cfb5b8}.st193{fill:#b6d5d7}.st194{fill:#9cf7f6}.st196{fill:#ae4d9a}.st197{fill:#d76ba0}.st198{fill:#e5a9a9}.st199{fill:#f4e4b9}.st200{fill:#9cf7e5}.st202{fill:#9481ff}.st203{fill:#b8b8ff}.st204{fill:#f8f7ff}.st205{fill:#ffeede}.st206{fill:#ffd8be}.st208{fill:#231f20}.st209{fill:#bb4430}.st210{fill:#7ebdc2}.st211{fill:#f3dfa2}.st212{fill:#efe6dd}.st214{fill:#ff6aec}.st215{fill:#ff86c9}.st216{fill:#ffa3a4}.st217{fill:#ffbf82}.st218{fill:#ffdc5e}.st220{fill:#a8d5e2}.st221{fill:#f9a720}.st222{fill:#ffd449}.st223{fill:#568c30}.st224{fill:#0f4a12}.st226{fill:#070707}.st227{fill:#3772ff}.st228{fill:#df2935}.st229{fill:#feca40}.st230{fill:#e6e8e5}.st232{fill:#f3f330}.st233{fill:#c2f263}.st234{fill:#91f291}.st235{fill:#61f2c1}.st236{fill:#30f2f2}.st238{fill:#ef6551}.st239{fill:#f38375}.st240{fill:#f8a399}.st241{fill:#fcc3bc}.st242{fill:#ffe3e0}.st244{fill:#7d690a}.st245{fill:#babd8e}.st246{fill:#ffdac8}.st247{fill:#fa9500}.st248{fill:#ea6426}.st250{fill:#072ac9}.st251{fill:#1e97fe}.st252{fill:#a1d6f8}.st253{fill:#fcf400}.st254{fill:#ffc404}.st256{fill:#816aec}.st257{fill:#cb77ff}.st258{fill:#ffb8ff}.st259{fill:#3bf3fc}.st260{fill:#c9ff89}.st262{fill:#042a9f}.st263{fill:#5c4ae5}.st264{fill:#947cd4}.st265{fill:#f0a7a0}.st266{fill:#f26bac}.st268{fill:#ffbf86}.st269{fill:#ffe152}.st270{fill:#ffeacf}.st271{fill:#ffb5c3}.st272{fill:#3875ff}.st322{fill:#e1e1e5}.st323{fill:#c9c8cc}.st330{fill:#80ed99}</style><g id="homepage_hero-explore"><path class="st322" d="M570.2 464.6h118.4v73.9H570.2z"></path><path d="M958 6H299.6c-8.4 0-15.1 6.8-15.1 15.1v431.7c0 8.4 6.8 15.1 15.1 15.1H958c8.4 0 15.1-6.8 15.1-15.1V21.1c0-8.3-6.8-15.1-15.1-15.1zm5 14.3v433.5c0 2.3-1.9 4.2-4.2 4.2h-660c-2.3 0-4.2-1.9-4.2-4.2V20.3c0-2.3 1.9-4.2 4.2-4.2h660.1c2.2 0 4.1 1.9 4.1 4.2z" style="fill:#000"></path><path class="st323" d="M532.6 532h193c0 5.5-4.5 10-10 10h-173c-5.5 0-10-4.5-10-10z"></path><path d="M963 20.3v433.5c0 2.3-1.9 4.2-4.2 4.2h-660c-2.3 0-4.2-1.9-4.2-4.2V20.3c0-2.3 1.9-4.2 4.2-4.2h660.1c2.2 0 4.1 1.9 4.1 4.2z" style="fill:transparent"></path></g><path class="st330" d="M780.7 454.9v61.2h30.7v-61.2c0-9.3-6.9-16.8-15.3-16.8-8.5.1-15.4 7.6-15.4 16.8z"></path><path class="st330" d="M820.1 492.9h-21.7a6.7 6.7 0 0 1 0-13.4h21.7c.8 0 1.4-.6 1.4-1.4V470a6.7 6.7 0 0 1 13.4 0v8.1c0 8.2-6.7 14.8-14.8 14.8z"></path><path class="st330" d="M791.5 502.9h-19.8c-7.6 0-13.7-6.5-13.7-14.4v-3.2c0-3.5 2.8-6.4 6.4-6.4 3.5 0 6.4 2.8 6.4 6.4v3.2c0 1 .6 1.7 1 1.7h19.8c3.5 0 6.4 2.8 6.4 6.4s-2.9 6.3-6.5 6.3z"></path><path class="st322" d="m765.1 513.5 2.4 18.3.1.8c0 .2.1.5.1.7h56.4c0-.2.1-.5.1-.7l.1-.8 2.4-18.3h-61.6z"></path><path class="st323" d="M767.7 533.3c1 5.1 5.4 8.8 10.6 8.8h35.1c5.2 0 9.6-3.7 10.6-8.8h-56.3z"></path></svg>