<svg width="980.6" height="548" xmlns="http://www.w3.org/2000/svg" xml:space="preserve">

 <g>
  <title>Layer 1</title>
  <g id="homepage_hero-explore">
   <path id="svg_1" fill="#e1e1e5" d="m298.2,467.6l118.4,0l0,73.9l-118.4,0l0,-73.9z" class="st322"/>
   <path id="svg_2" fill="#000" d="m686,9l-658.4,0c-8.4,0 -15.1,6.8 -15.1,15.1l0,431.7c0,8.4 6.8,15.1 15.1,15.1l658.4,0c8.4,0 15.1,-6.8 15.1,-15.1l0,-431.7c0,-8.3 -6.8,-15.1 -15.1,-15.1zm5,14.3l0,433.5c0,2.3 -1.9,4.2 -4.2,4.2l-660,0c-2.3,0 -4.2,-1.9 -4.2,-4.2l0,-433.5c0,-2.3 1.9,-4.2 4.2,-4.2l660.1,0c2.2,0 4.1,1.9 4.1,4.2z"/>
   <path id="svg_3" fill="#c9c8cc" d="m260.6,535l193,0c0,5.5 -4.5,10 -10,10l-173,0c-5.5,0 -10,-4.5 -10,-10z" class="st323"/>
   <path id="svg_4" fill="transparent" d="m691,23.3l0,433.5c0,2.3 -1.9,4.2 -4.2,4.2l-660,0c-2.3,0 -4.2,-1.9 -4.2,-4.2l0,-433.5c0,-2.3 1.9,-4.2 4.2,-4.2l660.1,0c2.2,0 4.1,1.9 4.1,4.2z"/>
  </g>
  <path id="svg_5" fill="#80ed99" d="m520.7,456.9l0,61.2l30.7,0l0,-61.2c0,-9.3 -6.9,-16.8 -15.3,-16.8c-8.5,0.1 -15.4,7.6 -15.4,16.8z" class="st330"/>
  <path id="svg_6" fill="#80ed99" d="m560.1,494.9l-21.7,0a6.7,6.7 0 0 1 0,-13.4l21.7,0c0.8,0 1.4,-0.6 1.4,-1.4l0,-8.1a6.7,6.7 0 0 1 13.4,0l0,8.1c0,8.2 -6.7,14.8 -14.8,14.8z" class="st330"/>
  <path id="svg_7" fill="#80ed99" d="m531.5,504.9l-19.8,0c-7.6,0 -13.7,-6.5 -13.7,-14.4l0,-3.2c0,-3.5 2.8,-6.4 6.4,-6.4c3.5,0 6.4,2.8 6.4,6.4l0,3.2c0,1 0.6,1.7 1,1.7l19.8,0c3.5,0 6.4,2.8 6.4,6.4s-2.9,6.3 -6.5,6.3z" class="st330"/>
  <path id="svg_8" fill="#e1e1e5" d="m505.1,515.5l2.4,18.3l0.1,0.8c0,0.2 0.1,0.5 0.1,0.7l56.4,0c0,-0.2 0.1,-0.5 0.1,-0.7l0.1,-0.8l2.4,-18.3l-61.6,0z" class="st322"/>
  <path id="svg_9" fill="#c9c8cc" d="m507.7,535.3c1,5.1 5.4,8.8 10.6,8.8l35.1,0c5.2,0 9.6,-3.7 10.6,-8.8l-56.3,0z" class="st323"/>
 </g>
</svg>